<?xml version="1.0" encoding="utf-8"?>
<!-- Generator: Adobe Illustrator 23.0.3, SVG Export Plug-In . SVG Version: 6.00 Build 0)  -->
<svg version="1.1" id="Layer_1" xmlns="http://www.w3.org/2000/svg" xmlns:xlink="http://www.w3.org/1999/xlink" x="0px" y="0px"
	 viewBox="0 0 320 320" style="enable-background:new 0 0 320 320;" xml:space="preserve">
<style type="text/css">
	.st0{fill:#009CB9;}
</style>
<g>
	<path class="st0" d="M174,206.1l-9.6-7c4.5-8.9,7-18.9,7-29.4c0-12.7-3.7-24.6-10-34.7l30.4-26.8c9.1,6.8,20.3,10.8,32.5,10.8
		c30,0,54.5-24.4,54.5-54.5S254.4,10,224.4,10c-30,0-54.5,24.4-54.5,54.5c0,10,2.7,19.3,7.4,27.4l-30.4,26.7
		c-11.3-9.1-25.6-14.6-41.2-14.6c-36.2,0-65.7,29.5-65.7,65.7c0,36.2,29.5,65.7,65.7,65.7c17.8,0,33.9-7.1,45.7-18.6l9.6,7
		L174,206.1z M224.4,31.9c18,0,32.6,14.6,32.6,32.6s-14.6,32.6-32.6,32.6s-32.6-14.6-32.6-32.6S206.4,31.9,224.4,31.9z M105.7,213.5
		c-24.1,0-43.8-19.6-43.8-43.8c0-24.1,19.6-43.8,43.8-43.8c24.1,0,43.8,19.6,43.8,43.8C149.5,193.8,129.9,213.5,105.7,213.5z"/>
	
		<rect x="176.1" y="217.2" transform="matrix(0.5912 -0.8065 0.8065 0.5912 -108.4633 244.5416)" class="st0" width="21.9" height="24.2"/>
	<path class="st0" d="M242.9,236c-7.4,0-14.3,2.2-20.1,6l-9.9-7.2L200,252.4l8.8,6.4c-1.8,4.4-2.8,9.2-2.8,14.2
		c0,20.4,16.6,37,37,37s37-16.6,37-37S263.3,236,242.9,236z M242.9,288.1c-8.3,0-15.1-6.8-15.1-15.1s6.8-15.1,15.1-15.1
		s15.1,6.8,15.1,15.1S251.3,288.1,242.9,288.1z"/>
</g>
</svg>
