<?xml version="1.0" encoding="UTF-8" standalone="no"?>
<svg
   xmlns:dc="http://purl.org/dc/elements/1.1/"
   xmlns:cc="http://creativecommons.org/ns#"
   xmlns:rdf="http://www.w3.org/1999/02/22-rdf-syntax-ns#"
   xmlns:svg="http://www.w3.org/2000/svg"
   xmlns="http://www.w3.org/2000/svg"
   viewBox="0 0 1000 1000"
   height="1000"
   width="1000"
   xml:space="preserve"
   version="1.1"
   id="svg2"><metadata
     id="metadata8"><rdf:RDF><cc:Work
         rdf:about=""><dc:format>image/svg+xml</dc:format><dc:type
           rdf:resource="http://purl.org/dc/dcmitype/StillImage" /><dc:title></dc:title></cc:Work></rdf:RDF></metadata><defs
     id="defs6"><clipPath
       id="clipPath16"
       clipPathUnits="userSpaceOnUse"><path
         id="path18"
         d="M 0,800 800,800 800,0 0,0 0,800 Z" /></clipPath><clipPath
       id="clipPath36"
       clipPathUnits="userSpaceOnUse"><path
         id="path38"
         d="m 104.959,212.85 152.463,0 0,-60.221 -152.463,0 0,60.221 z" /></clipPath><clipPath
       id="clipPath64"
       clipPathUnits="userSpaceOnUse"><path
         id="path66"
         d="m 422.68,212.85 152.462,0 0,-60.221 -152.462,0 0,60.221 z" /></clipPath><clipPath
       id="clipPath268"
       clipPathUnits="userSpaceOnUse"><path
         id="path270"
         d="m 280.847,730.331 33.413,0 0,-26.183 -33.413,0 0,26.183 z" /></clipPath><clipPath
       id="clipPath284"
       clipPathUnits="userSpaceOnUse"><path
         id="path286"
         d="m 248.454,707.536 64.275,0 0,-18.673 -64.275,0 0,18.673 z" /></clipPath><clipPath
       id="clipPath308"
       clipPathUnits="userSpaceOnUse"><path
         id="path310"
         d="m 304.47,706.539 9.346,0 0,-47.996 -9.346,0 0,47.996 z" /></clipPath><clipPath
       id="clipPath324"
       clipPathUnits="userSpaceOnUse"><path
         id="path326"
         d="m 312.141,708.806 20.273,0 0,-28.972 -20.273,0 0,28.972 z" /></clipPath><clipPath
       id="clipPath344"
       clipPathUnits="userSpaceOnUse"><path
         id="path346"
         d="m 317.038,711.071 39.67,0 0,-9.581 -39.67,0 0,9.581 z" /></clipPath><clipPath
       id="clipPath360"
       clipPathUnits="userSpaceOnUse"><path
         id="path362"
         d="m 315.554,714.856 26.29,0 0,-11.457 -26.29,0 0,11.457 z" /></clipPath><clipPath
       id="clipPath376"
       clipPathUnits="userSpaceOnUse"><path
         id="path378"
         d="m 307.865,725.378 7.005,0 0,-18.839 -7.005,0 0,18.839 z" /></clipPath><clipPath
       id="clipPath392"
       clipPathUnits="userSpaceOnUse"><path
         id="path394"
         d="m 313.369,734.457 10.873,0 0,-29.185 -10.873,0 0,29.185 z" /></clipPath><clipPath
       id="clipPath508"
       clipPathUnits="userSpaceOnUse"><path
         id="path510"
         d="m 76.4072,663.693 481.7098,0 0,-506.611 -481.7098,0 0,506.611 z" /></clipPath><clipPath
       id="clipPath524"
       clipPathUnits="userSpaceOnUse"><path
         id="path526"
         d="m 76.4159,467.95 21.6521,0 0,-54.679 -21.6521,0 0,54.679 z" /></clipPath><clipPath
       id="clipPath540"
       clipPathUnits="userSpaceOnUse"><path
         id="path542"
         d="m 298.72,438.261 60.119,0 0,-40.488 -60.119,0 0,40.488 z" /></clipPath><clipPath
       id="clipPath556"
       clipPathUnits="userSpaceOnUse"><path
         id="path558"
         d="m 285.905,530.604 98.932,0 0,-77.799 -98.932,0 0,77.799 z" /></clipPath><clipPath
       id="clipPath572"
       clipPathUnits="userSpaceOnUse"><path
         id="path574"
         d="m 162.246,764.173 101.865,0 0,-159.762 -101.865,0 0,159.762 z" /></clipPath><clipPath
       id="clipPath588"
       clipPathUnits="userSpaceOnUse"><path
         id="path590"
         d="m 290.249,785.694 172.934,0 0,-124.203 -172.934,0 0,124.203 z" /></clipPath><clipPath
       id="clipPath604"
       clipPathUnits="userSpaceOnUse"><path
         id="path606"
         d="m 482.624,402.617 62.807,0 0,-97.841 -62.807,0 0,97.841 z" /></clipPath><clipPath
       id="clipPath620"
       clipPathUnits="userSpaceOnUse"><path
         id="path622"
         d="m 493.938,335.197 66.696,0 0,-50.101 -66.696,0 0,50.101 z" /></clipPath><clipPath
       id="clipPath636"
       clipPathUnits="userSpaceOnUse"><path
         id="path638"
         d="m 495.075,709.554 259.958,0 0,-374.129 -259.958,0 0,374.129 z" /></clipPath></defs><g
     transform="matrix(1.25,0,0,-1.25,0,1000)"
     id="g10"><g
       id="g12"><g
         clip-path="url(#clipPath16)"
         id="g14"><g
           transform="translate(622.4106,160.383)"
           id="g20"><path
             id="path22"
             style="fill:#b0af9c;fill-opacity:1;fill-rule:nonzero;stroke:none"
             d="m 0,0 c 0,-20.023 -125.38,-36.254 -280.045,-36.254 -154.664,0 -280.044,16.231 -280.044,36.254 0,20.023 125.38,36.254 280.044,36.254 C -125.38,36.254 0,20.023 0,0" /></g><g
           transform="translate(263.0205,169.6611)"
           id="g24"><path
             id="path26"
             style="fill:#0093cf;fill-opacity:1;fill-rule:nonzero;stroke:none"
             d="m 0,0 c 0,0 -34.801,1.898 -58.331,-7.416 -23.529,-9.313 -32.843,-10.294 -54.902,-9.313 -22.06,0.98 -23.04,16.888 -23.04,16.888 0,0 -2.941,-7.575 -16.667,5.661 -13.726,13.235 2.941,38.236 23.53,42.648 20.588,4.411 57.287,-4.907 73.114,-16.763 C -40.469,19.849 0,0 0,0" /></g><g
           transform="translate(128.9033,186.4711)"
           id="g28"><path
             id="path30"
             style="fill:#231f20;fill-opacity:1;fill-rule:nonzero;stroke:none"
             d="m 0,0 0.842,-16.466 c 0.041,-0.517 1.247,-13.232 20.174,-14.073 22.019,-0.978 30.635,-0.01 53.665,9.105 14.989,5.934 34.086,7.452 46.579,7.741 C 107.989,-6.875 86.707,4.487 76.02,12.492 61.364,23.475 25.868,33.118 5.337,28.721 -6.139,26.263 -17.068,16.447 -20.081,5.89 c -1.175,-4.112 -1.548,-10.003 3.341,-14.719 7.189,-6.931 10.409,-7.062 11.199,-6.955 0.424,0.063 0.588,0.256 0.649,0.365 L 0,0 Z m 32.373,-36.846 c -3.529,0 -7.342,0.116 -11.623,0.307 -16.512,0.734 -22.528,9.361 -24.7,14.955 -0.062,-0.016 -0.127,-0.032 -0.193,-0.045 -4.352,-0.963 -9.852,1.81 -16.765,8.478 -5.489,5.293 -7.247,12.641 -4.948,20.69 3.637,12.739 16.225,24.118 29.934,27.055 22.596,4.842 59.804,-5.502 75.544,-17.295 15.423,-11.554 55.417,-31.216 55.817,-31.413 l 13.238,-6.493 -14.722,0.799 c -0.346,0.015 -34.431,1.748 -57.065,-7.209 -19.388,-7.676 -29.331,-9.828 -44.517,-9.829" /></g><g
           id="g32"><g
             id="g34" /><g
             id="g40"><g
               style="opacity:0.33000201"
               id="g42"
               clip-path="url(#clipPath36)"><g
                 id="g44"
                 transform="translate(127.408,212.8504)"><path
                   id="path46"
                   style="fill:#001e38;fill-opacity:1;fill-rule:nonzero;stroke:none"
                   d="m 0,0 c 0,0 -18.975,-5.858 -11.189,-17.89 7.785,-12.033 24.42,5.642 35.39,5.298 0,0 -11.066,-9.899 3.137,-25.116 14.203,-15.218 38.004,-4.636 44.991,10.794 6.988,15.43 -12.386,24.949 -12.386,24.949 l 23.711,-10.971 46.36,-28.665 -24.772,-1.73 -48.605,-14.684 -47.064,-2.206 -8.73,9.773 -4.49,5.314 c 0,0 -16.745,-4.983 -18.691,15.023 C -24.284,-10.105 0,0 0,0" /></g></g></g></g><g
           transform="translate(417.0812,169.6611)"
           id="g48"><path
             id="path50"
             style="fill:#0093cf;fill-opacity:1;fill-rule:nonzero;stroke:none"
             d="m 0,0 c 0,0 34.801,1.898 58.331,-7.416 23.529,-9.313 32.843,-10.294 54.902,-9.313 22.06,0.98 23.04,16.888 23.04,16.888 0,0 2.941,-7.575 16.667,5.661 13.726,13.235 -2.941,38.236 -23.53,42.648 C 108.822,52.879 72.123,43.561 56.296,31.705 40.469,19.849 0,0 0,0" /></g><g
           transform="translate(556.0906,171.0518)"
           id="g52"><path
             id="path54"
             style="fill:#231f20;fill-opacity:1;fill-rule:nonzero;stroke:none"
             d="m 0,0 c 0.061,-0.108 0.225,-0.302 0.649,-0.365 0.79,-0.107 4.01,0.024 11.198,6.955 4.89,4.716 4.517,10.607 3.342,14.72 -3.013,10.556 -13.942,20.372 -25.418,22.83 -20.531,4.397 -56.027,-5.246 -70.683,-16.229 -10.687,-8.005 -31.969,-19.367 -45.24,-26.185 12.493,-0.289 31.59,-1.807 46.579,-7.741 23.03,-9.115 31.646,-10.083 53.665,-9.105 18.927,0.842 20.133,13.556 20.174,14.073 L -4.892,15.419 0,0 Z m -81.782,-11.598 c -22.634,8.957 -56.72,7.225 -57.066,7.209 l -14.721,-0.799 13.238,6.493 c 0.4,0.197 40.394,19.859 55.817,31.413 15.74,11.793 52.948,22.137 75.544,17.295 C 4.739,47.076 17.327,35.698 20.964,22.958 23.263,14.909 21.505,7.561 16.016,2.268 9.103,-4.4 3.603,-7.173 -0.749,-6.21 c -0.066,0.014 -0.131,0.029 -0.193,0.045 -2.172,-5.593 -8.188,-14.221 -24.7,-14.955 -4.282,-0.191 -8.094,-0.307 -11.623,-0.307 -15.186,0.001 -25.13,2.153 -44.517,9.829" /></g><g
           transform="translate(550.3663,169.5191)"
           id="g56"><path
             id="path58"
             style="fill:#231f20;fill-opacity:1;fill-rule:nonzero;stroke:none"
             d="m 0,0 5.975,0.602 c -3.13,31.033 -30.718,30.301 -30.986,30.349 l 0.01,-0.001 0.538,2.954 -0.548,-2.953 C -24.1,30.779 -2.667,26.434 0,0" /></g><g
           id="g60"><g
             id="g62" /><g
             id="g68"><g
               style="opacity:0.33000201"
               id="g70"
               clip-path="url(#clipPath64)"><g
                 id="g72"
                 transform="translate(552.6937,212.8504)"><path
                   id="path74"
                   style="fill:#001e38;fill-opacity:1;fill-rule:nonzero;stroke:none"
                   d="m 0,0 c 0,0 18.975,-5.858 11.19,-17.89 -7.786,-12.033 -24.421,5.642 -35.391,5.298 0,0 11.066,-9.899 -3.137,-25.116 -14.203,-15.218 -38.004,-4.636 -44.991,10.794 -6.988,15.43 12.386,24.949 12.386,24.949 l -23.711,-10.971 -46.36,-28.665 24.772,-1.73 48.605,-14.684 47.064,-2.206 8.73,9.773 4.49,5.314 c 0,0 16.745,-4.983 18.691,15.023 C 24.284,-10.105 0,0 0,0" /></g></g></g></g><g
           transform="translate(468.2628,614.543)"
           id="g76"><path
             id="path78"
             style="fill:#ffffff;fill-opacity:1;fill-rule:nonzero;stroke:none"
             d="m 0,0 c 0,0 35.936,26.507 38.444,52.324 0,0 86.517,-9.291 135.419,49.014 0,0 18.181,-99.587 135.419,-119.697 0,0 -47.021,-72.541 0,-166.385 0,0 -108.461,12.737 -138.554,-95.724 0,0 -64.466,67.544 -141.207,11.967 -76.741,-55.577 -44.924,115.923 -44.924,115.923 L 0,0 Z" /></g><g
           transform="translate(471.1193,612.9385)"
           id="g80"><path
             id="path82"
             style="fill:#231f20;fill-opacity:1;fill-rule:nonzero;stroke:none"
             d="m 0,0 -15.308,-151.521 c -5.366,-28.946 -14.41,-107.158 7.893,-121.255 7.382,-4.666 18.256,-1.873 32.318,8.311 67.509,48.893 126.441,4.386 141.458,-8.875 16.615,53.885 53.061,76.432 81.115,85.858 23.396,7.859 44.458,8.115 53.973,7.707 -37.713,79.993 -8.376,144.761 0.262,160.824 C 242.773,-7.655 209.727,24.022 192.292,48.913 178.243,68.967 171.919,87.54 169.434,96.615 124.779,48.305 53.372,49.797 38.166,50.724 33.853,27.179 5.967,4.598 0,0 m 169.354,-284.755 -3.652,3.816 c -0.159,0.166 -16.098,16.629 -40.942,26.178 -33.042,12.695 -65.452,7.796 -96.334,-14.568 -16.246,-11.764 -29.384,-14.633 -39.05,-8.524 -30.048,18.995 -11.7,121.384 -10.611,127.305 L -5.711,3.23 -4.639,4.021 C -4.291,4.278 30.25,30.045 32.598,54.22 l 0.293,3.016 3.015,-0.32 c 0.856,-0.095 85.522,-8.414 132.799,47.956 l 4.099,4.888 1.156,-6.276 c 0.045,-0.244 4.719,-24.768 23.405,-51.348 17.193,-24.452 50.156,-55.74 109.567,-65.931 l 4.481,-0.769 -2.467,-3.822 c -0.461,-0.713 -45.489,-72.296 0.162,-163.409 l 2.491,-4.969 -5.523,0.642 c -0.268,0.028 -26.989,2.979 -56.899,-7.125 -39.855,-13.464 -66.236,-42.54 -78.412,-86.419 l -1.411,-5.089 z" /></g><g
           transform="translate(687.6067,406.6495)"
           id="g84"><path
             id="path86"
             style="fill:#231f20;fill-opacity:1;fill-rule:nonzero;stroke:none"
             d="m 0,0 c -0.598,0.926 -60.062,92.929 -71.313,123.874 l 1.88,0.684 C -58.258,93.825 1.083,2.012 1.681,1.088 L 0,0 Z" /></g><g
           transform="translate(622.0665,429.666)"
           id="g88"><path
             id="path90"
             style="fill:#231f20;fill-opacity:1;fill-rule:nonzero;stroke:none"
             d="m 0,0 -1.658,1.12 c 19.955,29.559 78.649,54.883 81.249,55.994 l 3.386,-0.73 C 82.346,56.114 19.625,29.069 0,0" /></g><g
           transform="translate(703.2711,486.3669)"
           id="g92"><path
             id="path94"
             style="fill:#ee3339;fill-opacity:1;fill-rule:nonzero;stroke:none"
             d="m 0,0 c 0,0 -35.227,-13.319 -48.046,-24.161 l 32.204,-53.432 c 0,0 16.356,10.383 35.324,14.866 18.968,4.483 44.816,6.618 44.816,6.618 L 0,0 Z" /></g><g
           transform="translate(714.9585,575.4755)"
           id="g96"><path
             id="path98"
             style="fill:#ee3339;fill-opacity:1;fill-rule:nonzero;stroke:none"
             d="m 0,0 c 0,0 -15.064,-28.125 -16.255,-49.641 l 55.097,-9.746 c 0,0 2.489,24.742 8.797,43.625 6.308,18.883 14.947,36.471 14.947,36.471 L 0,0 Z" /></g><g
           transform="translate(693.7828,629.4114)"
           id="g100"><path
             id="path102"
             style="fill:#ee3339;fill-opacity:1;fill-rule:nonzero;stroke:none"
             d="m 0,0 -25.869,-31.581 c 0,0 -25.596,13.362 -39.334,38.125 l 13.546,79.926 c 0,0 5.896,-31.117 17.868,-49.014 C -21.818,19.559 0,0 0,0" /></g><g
           transform="translate(564.9192,669.6927)"
           id="g104"><path
             id="path106"
             style="fill:#ee3339;fill-opacity:1;fill-rule:nonzero;stroke:none"
             d="m 0,0 c 0,0 11.498,-47.166 18.791,-61.402 l -31.354,-26.321 -2.474,1.102 c 0,0 9.052,23.308 -6.748,41.565 -15.8,18.256 -43.507,14.958 -43.507,14.958 0,0 6.675,16.425 6.86,25.662 0,0 39.309,-4.099 58.432,4.436" /></g><g
           transform="translate(630.0898,633.9109)"
           id="g108"><path
             id="path110"
             style="fill:#ee3339;fill-opacity:1;fill-rule:nonzero;stroke:none"
             d="m 0,0 c 0,0 -38.443,-22.938 -46.95,-25.83 l 28.793,-65.869 6.96,3.963 L 0,0 Z" /></g><g
           transform="translate(549.8825,583.0722)"
           id="g112"><path
             id="path114"
             style="fill:#ee3339;fill-opacity:1;fill-rule:nonzero;stroke:none"
             d="M 0,0 C 0,0 -8.845,-17.252 -13.235,-29.811 L 53.823,-43.515 0,0 Z" /></g><g
           transform="translate(514.8004,554.7225)"
           id="g116"><path
             id="path118"
             style="fill:#ee3339;fill-opacity:1;fill-rule:nonzero;stroke:none"
             d="m 0,0 21.985,-1.072 c 0,0 -8.641,-30.109 -5.4,-43.356 l -6.636,0 c 0,0 -6.278,34.393 -9.949,44.428" /></g><g
           transform="translate(626.7073,430.2262)"
           id="g120"><path
             id="path122"
             style="fill:#ee3339;fill-opacity:1;fill-rule:nonzero;stroke:none"
             d="m 0,0 -41.477,4.288 c 0,0 -2.922,3.403 -6.057,-15.705 -3.135,-19.108 -2.375,-11.616 -2.375,-11.616 l -0.609,-2.191 -5.835,-34.793 c 0,0 54.457,-17.047 64.264,-32.046 9.808,-15 0,2.517 0,2.517 L 0,0 Z" /></g><g
           transform="translate(616.162,529.3022)"
           id="g124"><path
             id="path126"
             style="fill:#ee3339;fill-opacity:1;fill-rule:nonzero;stroke:none"
             d="m 0,0 -31.843,-99.076 -5.925,13.208 -4.961,23.502 L 0,0 Z" /></g><g
           transform="translate(531.7379,507.6038)"
           id="g128"><path
             id="path130"
             style="fill:#ee3339;fill-opacity:1;fill-rule:nonzero;stroke:none"
             d="M 0,0 C 0,0 1.147,-17.062 4.936,-26.324 L 71.967,27.64 c 0,0 -31.494,-13.304 -44.327,-19.156 C 14.807,2.632 0,0 0,0" /></g><g
           transform="translate(538.1021,471.0263)"
           id="g132"><path
             id="path134"
             style="fill:#ee3339;fill-opacity:1;fill-rule:nonzero;stroke:none"
             d="M 0,0 -1.428,10.253 -11.544,4.333 -13.454,-5.59 0,0 Z" /></g><g
           transform="translate(618.8931,530.8654)"
           id="g136"><path
             id="path138"
             style="fill:#ee3339;fill-opacity:1;fill-rule:nonzero;stroke:none"
             d="M 0,0 C 0,0 31.496,-62.477 36.332,-70.443 L 5.548,-96.351 C 5.548,-96.351 -6.887,-8.315 0,0" /></g><g
           transform="translate(698.7034,525.8347)"
           id="g140"><path
             id="path142"
             style="fill:#ee3339;fill-opacity:1;fill-rule:nonzero;stroke:none"
             d="M 0,0 C 0,0 -2.744,-27.873 0.046,-38.864 L -28.246,-17.851 -77.466,10.875 0,0 Z" /></g><g
           transform="translate(565.2904,418.6107)"
           id="g144"><path
             id="path146"
             style="fill:#0093cf;fill-opacity:1;fill-rule:nonzero;stroke:none"
             d="M 0,0 C -2.528,2.596 4.98,6.753 2.431,6.638 1.833,17.755 5.187,19.153 -3.06,22.932 -6.856,24.673 6.184,50.723 -0.971,44.119 -9.245,36.481 -8.737,27.917 -8.289,20.362 -7.82,12.479 -7.415,5.669 -15.947,-0.728 -29.968,-11.245 -45.409,-4.45 -50.525,-1.653 c 1.984,9.297 9.658,47.113 10.395,79.491 0.846,37.292 -15.91,84.54 -16.653,86.61 -1.242,3.191 -31.071,78.193 -86.451,83.811 -31.957,3.243 -67.133,3.257 -90.562,2.726 l -0.237,4.837 -10.288,-5.132 c -9.949,-0.331 -16.082,-0.69 -16.275,-0.703 l -2.806,-0.169 -0.052,-8.672 -111.216,-55.477 c -3.638,0.319 -19.425,2.039 -34.584,8.858 -9.619,4.327 -23.407,3.164 -35.99,-3.033 -12.442,-6.128 -21.018,-15.728 -23.535,-26.34 -2.289,-9.664 1.344,-19.216 9.719,-25.553 9.751,-7.378 27.767,-10.94 50.713,-0.888 -5.419,-11.68 -13.986,-34.478 -13.388,-60.875 0.737,-32.378 8.411,-70.194 10.395,-79.491 -5.122,-2.8 -20.557,-9.593 -34.579,0.925 -8.531,6.397 -8.127,13.207 -7.657,21.09 0.447,7.555 0.956,16.119 -7.318,23.757 -7.153,6.604 -13.177,5.917 -16.975,4.177 -8.247,-3.78 -13.164,-16.17 -13.762,-27.287 -2.565,0.118 -5.871,-0.374 -8.395,-2.97 -4.637,-4.766 -4.332,-14.069 0.933,-28.442 4.61,-12.586 13.851,-22.371 26.727,-28.299 17.327,-7.975 40.883,-8.568 62.619,-1.778 -3.869,-17.965 -14.164,-76.789 5.498,-120.651 15.633,-34.873 55.323,-90.375 151.138,-101.969 l 1.424,-0.162 5.127,0 c 1.412,-0.017 6.642,-0.513 8.034,-0.513 5.189,0 6.526,0.459 11.451,0.683 4.93,-0.224 7.283,0.171 12.477,0.171 1.385,0 4.593,-0.175 5.997,-0.158 l 1.541,0.193 -1.541,-0.193 c 95.691,11.639 135.361,67.096 150.985,101.948 19.662,43.862 9.366,102.686 5.497,120.651 21.736,-6.791 30.279,18.923 47.611,26.902 12.874,5.925 4.962,1.897 9.572,14.483 C 10.329,15.279 4.637,-4.765 0,0" /></g><g
           transform="translate(313.7733,158.351)"
           id="g148"><path
             id="path150"
             style="fill:#231f20;fill-opacity:1;fill-rule:nonzero;stroke:none"
             d="m 0,0 4.958,0 c 0.749,-0.009 2.387,-0.129 4.061,-0.256 1.497,-0.114 3.364,-0.256 3.972,-0.256 2.921,0 4.538,0.15 6.409,0.323 1.366,0.127 2.825,0.262 4.905,0.357 l 0.137,0.006 0.137,-0.006 c 2.764,-0.129 4.658,-0.05 6.85,0.04 1.595,0.066 3.294,0.134 5.49,0.134 0.666,0 1.74,-0.038 2.846,-0.078 1.093,-0.039 2.229,-0.068 2.954,-0.081 l 1.367,0.17 c 94.3,12.016 132.611,67.739 147.074,100.004 19.359,43.184 8.954,101.841 5.302,118.79 l -1.083,5.034 4.915,-1.535 c 11.99,-3.748 19.372,3.848 27.923,12.64 5.24,5.387 10.659,10.958 17.537,14.124 l 1.331,0.611 c 2.21,1.015 4.036,1.853 4.839,2.329 0,0.038 -0.002,0.077 -0.004,0.119 -0.023,0.928 -0.057,2.212 0.272,4.114 -1.023,0.192 -1.992,0.724 -2.827,1.582 -3.285,3.375 0.029,7.264 1.568,8.89 -0.151,3.112 -0.006,5.53 0.102,7.311 0.252,4.226 0.252,4.226 -3.828,6.095 -0.382,0.175 -0.714,0.385 -0.997,0.627 0.003,-0.095 0.009,-0.192 0.015,-0.286 0.477,-8.018 0.972,-16.306 -8.854,-23.673 -15.617,-11.714 -32.895,-3.849 -37.82,-1.158 l -1.963,1.073 0.467,2.189 c 2.241,10.498 9.607,47.216 10.329,78.933 0.836,36.829 -15.769,83.557 -16.477,85.527 -1.185,3.046 -30.319,76.401 -83.927,81.838 -31.674,3.213 -66.526,3.246 -90.191,2.711 l -2.925,-0.066 -0.154,3.166 -6.759,-3.372 -0.655,-0.021 c -10.133,-0.338 -16.129,-0.695 -16.18,-0.699 l -0.015,0 -0.047,-7.708 -113.624,-56.679 -0.845,0.074 c -4.457,0.391 -20.193,2.201 -35.554,9.111 -8.827,3.969 -21.634,2.824 -33.431,-2.988 -11.634,-5.731 -19.63,-14.601 -21.939,-24.339 -2.008,-8.471 1.21,-16.869 8.608,-22.466 4.205,-3.182 20.08,-12.63 47.697,-0.531 l 7.269,3.184 -3.342,-7.199 c -5.147,-11.097 -13.696,-33.588 -13.108,-59.543 0.721,-31.717 8.088,-68.435 10.328,-78.933 l 0.468,-2.189 -1.963,-1.073 c -4.925,-2.689 -22.199,-10.557 -37.822,1.159 -9.824,7.366 -9.329,15.654 -8.852,23.671 0.428,7.226 0.87,14.699 -6.358,21.371 -4.766,4.401 -9.367,5.631 -13.687,3.653 -7.191,-3.295 -11.488,-14.929 -12.014,-24.717 l -0.16,-2.975 -2.976,0.136 c -2.619,0.112 -4.658,-0.577 -6.105,-2.064 -3.699,-3.802 -3.161,-12.319 1.599,-25.315 4.328,-11.819 13.03,-21.019 25.163,-26.605 16.639,-7.657 39.243,-8.271 60.469,-1.639 l 4.915,1.535 -1.083,-5.034 c -3.652,-16.949 -14.057,-75.606 5.302,-118.79 C -135.438,67.891 -96.76,11.7 -1.232,0.141 L 0,0 Z m 12.991,-6.518 c -0.778,0 -2.258,0.108 -4.428,0.273 -1.513,0.115 -2.995,0.231 -3.64,0.239 l -5.433,0.02 -1.424,0.162 C -100.414,6.093 -140.4,64.277 -155.473,97.9 c -18.52,41.317 -10.929,95.711 -6.688,117.629 -21.179,-5.539 -43.265,-4.376 -59.943,3.3 -13.619,6.27 -23.402,16.642 -28.291,29.994 -5.781,15.783 -5.865,25.815 -0.266,31.569 2.041,2.099 4.692,3.376 7.773,3.767 1.208,10.951 6.199,22.963 15.284,27.126 3.789,1.733 11.453,3.432 20.264,-4.701 9.318,-8.601 8.741,-18.324 8.278,-26.138 -0.452,-7.596 -0.778,-13.083 6.461,-18.511 11.077,-8.309 23.144,-4.637 29.366,-1.696 -2.686,12.929 -9.296,47.534 -9.986,77.79 -0.512,22.675 5.609,42.769 10.77,55.524 -26.502,-9.1 -42.412,0.513 -46.904,3.913 -9.353,7.077 -13.4,17.783 -10.829,28.64 2.725,11.487 11.884,21.817 25.13,28.342 13.362,6.58 28.134,7.763 38.549,3.078 13.812,-6.213 28.365,-8.081 32.78,-8.527 l 108.796,54.269 0.059,9.638 5.611,0.338 c 0.033,0.003 5.939,0.353 15.701,0.685 l 13.816,6.893 0.319,-6.514 c 23.724,0.471 57.311,0.313 88.009,-2.802 57.223,-5.805 87.679,-82.449 88.945,-85.709 0.751,-2.089 17.719,-49.837 16.859,-87.768 -0.691,-30.256 -7.3,-64.861 -9.987,-77.79 6.221,-2.941 18.286,-6.617 29.365,1.696 7.241,5.428 6.915,10.915 6.463,18.508 -0.463,7.817 -1.04,17.54 8.278,26.141 0.776,0.715 3.134,2.89 5.571,1.336 2.794,-1.782 1.709,-5.163 -0.666,-12.57 -0.907,-2.824 -2.505,-7.806 -2.663,-9.926 6.125,-3.05 6.614,-5.8 6.278,-11.417 -0.082,-1.387 -0.182,-3.037 -0.149,-5.068 0.534,0.456 1.134,0.568 2.02,0.502 l 2.254,-0.158 0.473,-2.213 c 0.191,-0.893 -0.319,-2.509 -1.197,-4.199 -0.273,-0.705 -0.614,-1.606 -1.03,-2.74 -1.558,-4.257 -1.509,-6.214 -1.476,-7.509 0.108,-4.184 -1.513,-4.928 -8.334,-8.059 l -1.326,-0.61 c -5.861,-2.697 -10.883,-7.862 -15.742,-12.855 -8.129,-8.356 -16.482,-16.964 -29.253,-15.259 C 207.498,194.129 215.25,139.415 196.642,97.9 181.58,64.306 141.63,6.161 43.278,-5.801 l -0.326,-0.021 c -0.778,-0.02 -2.117,0.037 -3.406,0.084 -1.02,0.037 -2.012,0.074 -2.627,0.074 -2.098,0 -3.723,-0.066 -5.246,-0.129 -2.201,-0.09 -4.279,-0.175 -7.229,-0.045 -1.891,-0.089 -3.232,-0.214 -4.489,-0.33 -1.938,-0.18 -3.765,-0.35 -6.964,-0.35" /></g><g
           transform="translate(337.1672,554.7202)"
           id="g152"><path
             id="path154"
             style="fill:#b28e82;fill-opacity:1;fill-rule:nonzero;stroke:none"
             d="m 0,0 c 0,0 -24.084,0.688 -38.54,-21.684 -14.456,-22.373 -0.344,-35.797 13.079,-36.485 13.424,-0.688 21.685,9.293 32.355,6.54 10.67,-2.754 20.307,-8.261 31.321,-5.163 C 49.23,-53.694 55.425,-5.826 0,0" /></g><g
           transform="translate(336.8289,551.7209)"
           id="g156"><path
             id="path158"
             style="fill:#231f20;fill-opacity:1;fill-rule:nonzero;stroke:none"
             d="m 0,0 c -2.653,0 -22.979,-0.661 -35.679,-20.315 -5.744,-8.888 -7.118,-16.834 -3.975,-22.978 2.593,-5.068 8.358,-8.553 14.686,-8.878 5.787,-0.303 10.671,1.687 15.379,3.605 5.448,2.222 11.088,4.517 17.571,2.844 2.816,-0.727 5.547,-1.634 8.186,-2.509 7.325,-2.432 14.25,-4.734 21.572,-2.671 2.213,0.623 5.904,6.935 5.067,16.782 C 42.213,-27.113 37.376,-3.966 0.152,-0.001 0.111,-0.001 0.061,0 0,0 m -23.791,-58.207 c -0.488,0 -0.983,0.013 -1.485,0.038 -8.56,0.439 -16.118,5.091 -19.725,12.141 -2.911,5.691 -4.533,15.338 4.278,28.972 C -25.531,6.461 -0.659,6.028 0.424,6.001 L 0.653,5.985 c 41.921,-4.405 47.444,-31.422 48.138,-39.597 0.951,-11.183 -3.19,-21.317 -9.425,-23.071 -9.1,-2.556 -17.227,0.141 -25.09,2.751 -2.544,0.845 -5.177,1.718 -7.795,2.394 -4.567,1.178 -8.847,-0.566 -13.805,-2.59 -4.711,-1.921 -10.007,-4.079 -16.467,-4.079" /></g><g
           transform="translate(330.5377,420.5565)"
           id="g160"><path
             id="path162"
             style="fill:#231f20;fill-opacity:1;fill-rule:nonzero;stroke:none"
             d="M 0,0 C -21.834,0 -31.622,17.514 -31.818,17.705 -30.805,16.733 -6.616,-5.889 28.301,14.167 17.613,3.773 9.185,0 0,0" /></g><g
           transform="translate(360.334,536.7094)"
           id="g164"><path
             id="path166"
             style="fill:#231f20;fill-opacity:1;fill-rule:nonzero;stroke:none"
             d="m 0,0 c 0,-6.73 -10.372,-12.185 -23.167,-12.185 -12.795,0 -23.167,5.455 -23.167,12.185 0,6.73 10.372,12.185 23.167,12.185 C -10.372,12.185 0,6.73 0,0" /></g><g
           transform="translate(337.1671,545.892)"
           id="g168"><path
             id="path170"
             style="fill:#231f20;fill-opacity:1;fill-rule:nonzero;stroke:none"
             d="m 0,0 c -11.54,0 -20.164,-4.848 -20.164,-9.183 0,-4.334 8.624,-9.182 20.164,-9.182 11.54,0 20.164,4.848 20.164,9.182 C 20.164,-4.848 11.54,0 0,0 m 0,-24.37 c -14.674,0 -26.17,6.671 -26.17,15.187 0,8.517 11.496,15.189 26.17,15.189 14.674,0 26.17,-6.672 26.17,-15.189 C 26.17,-17.699 14.674,-24.37 0,-24.37" /></g><g
           transform="translate(311.7065,496.5513)"
           id="g172"><path
             id="path174"
             style="fill:#ffffff;fill-opacity:1;fill-rule:nonzero;stroke:none"
             d="m 0,0 c 0,0 4.13,-20.652 9.293,-23.749 5.163,-3.098 18.931,-1.377 18.931,-1.377 l -0.42,13.326 0.42,-13.326 c 0,0 12.311,-1.332 17.948,0.923 5.638,2.255 9.437,24.694 9.437,24.694 0,0 -7.496,0.79 -18.05,4.51 C 27.004,8.722 5.696,4.583 0,0" /></g><g
           transform="translate(315.0656,495.1709)"
           id="g176"><path
             id="path178"
             style="fill:#231f20;fill-opacity:1;fill-rule:nonzero;stroke:none"
             d="m 0,0 c 1.955,-8.857 5.243,-18.452 7.478,-19.795 2.485,-1.488 9.11,-1.628 14.297,-1.239 l 2.67,17.758 3.002,-7.049 0.334,-10.65 c 4.148,-0.264 10.688,-0.35 13.918,0.94 1.945,0.874 5.102,9.737 7.036,19.405 C 45.472,-0.045 39.949,1.172 33.2,3.55 24.449,6.632 6.694,3.649 0,0 m 16.844,-27.23 c -4.383,0 -9.425,0.467 -12.455,2.286 -5.847,3.508 -9.662,20.585 -10.692,25.735 l -0.358,1.787 1.42,1.141 C 1.024,8.764 23.37,13.384 35.198,9.214 45.245,5.673 52.496,4.866 52.567,4.858 L 55.74,4.517 55.21,1.37 c -1.226,-7.246 -4.78,-24.381 -11.283,-26.981 -5.786,-2.315 -16.656,-1.394 -19.038,-1.156 -1.184,-0.137 -4.385,-0.463 -8.045,-0.463" /></g><g
           transform="translate(474.3123,602.2014)"
           id="g180"><path
             id="path182"
             style="fill:#ffffff;fill-opacity:1;fill-rule:nonzero;stroke:none"
             d="m 0,0 c 11.914,-32.138 -1.959,-66.914 -30.987,-77.675 -29.028,-10.761 -62.218,6.569 -74.132,38.706 -11.914,32.138 1.959,66.914 30.987,77.675 C -45.104,49.467 -11.914,32.138 0,0" /></g><g
           transform="translate(417.9506,641.0869)"
           id="g184"><path
             id="path186"
             style="fill:#231f20;fill-opacity:1;fill-rule:nonzero;stroke:none"
             d="m 0,0 c -5.611,0 -11.249,-0.964 -16.727,-2.994 -27.429,-10.169 -40.536,-43.283 -29.216,-73.816 11.323,-30.532 42.84,-47.097 70.273,-36.935 27.429,10.169 40.536,43.282 29.216,73.816 C 44.487,-15.494 22.485,0 0,0 m 7.625,-122.742 c -24.935,0 -49.242,16.987 -59.198,43.844 -12.472,33.638 2.224,70.215 32.758,81.534 30.535,11.324 65.522,-6.838 77.992,-40.477 12.471,-33.639 -2.225,-70.215 -32.759,-81.535 -6.156,-2.282 -12.496,-3.366 -18.793,-3.366" /></g><g
           transform="translate(440.8537,582.717)"
           id="g188"><path
             id="path190"
             style="fill:#231f20;fill-opacity:1;fill-rule:nonzero;stroke:none"
             d="m 0,0 c 0,-13.658 -11.072,-24.729 -24.729,-24.729 -13.658,0 -24.73,11.071 -24.73,24.729 0,13.658 11.072,24.729 24.73,24.729 C -11.072,24.729 0,13.658 0,0" /></g><g
           transform="translate(416.1246,604.4439)"
           id="g192"><path
             id="path194"
             style="fill:#231f20;fill-opacity:1;fill-rule:nonzero;stroke:none"
             d="m 0,0 c -11.98,0 -21.726,-9.747 -21.726,-21.727 0,-11.98 9.746,-21.726 21.726,-21.726 11.98,0 21.726,9.746 21.726,21.726 C 21.726,-9.747 11.98,0 0,0 m 0,-49.459 c -15.292,0 -27.732,12.441 -27.732,27.732 0,15.292 12.44,27.733 27.732,27.733 15.292,0 27.732,-12.441 27.732,-27.733 0,-15.291 -12.44,-27.732 -27.732,-27.732" /></g><g
           transform="translate(453.3825,596.184)"
           id="g196"><path
             id="path198"
             style="fill:#ffffff;fill-opacity:1;fill-rule:nonzero;stroke:none"
             d="m 0,0 c 0,-7.851 -6.364,-14.215 -14.215,-14.215 -7.85,0 -14.214,6.364 -14.214,14.215 0,7.851 6.364,14.215 14.214,14.215 C -6.364,14.215 0,7.851 0,0" /></g><g
           transform="translate(433.5309,583.0722)"
           id="g200"><path
             id="path202"
             style="fill:#ffffff;fill-opacity:1;fill-rule:nonzero;stroke:none"
             d="m 0,0 c 0,-4.534 -3.676,-8.21 -8.21,-8.21 -4.535,0 -8.21,3.676 -8.21,8.21 0,4.534 3.675,8.21 8.21,8.21 C -3.676,8.21 0,4.534 0,0" /></g><g
           transform="translate(399.7098,571.0632)"
           id="g204"><path
             id="path206"
             style="fill:#ffffff;fill-opacity:1;fill-rule:nonzero;stroke:none"
             d="m 0,0 c 0,-3.858 -3.127,-6.985 -6.985,-6.985 -3.857,0 -6.985,3.127 -6.985,6.985 0,3.858 3.128,6.985 6.985,6.985 C -3.127,6.985 0,3.858 0,0" /></g><g
           transform="translate(195.4852,602.2014)"
           id="g208"><path
             id="path210"
             style="fill:#ffffff;fill-opacity:1;fill-rule:nonzero;stroke:none"
             d="m 0,0 c -11.914,-32.138 1.959,-66.914 30.987,-77.675 29.028,-10.761 62.218,6.569 74.132,38.706 C 117.033,-6.831 103.16,27.945 74.132,38.706 45.104,49.467 11.914,32.138 0,0" /></g><g
           transform="translate(251.8461,641.0869)"
           id="g212"><path
             id="path214"
             style="fill:#231f20;fill-opacity:1;fill-rule:nonzero;stroke:none"
             d="m 0,0 c -22.487,0 -44.487,-15.492 -53.546,-39.929 -11.32,-30.534 1.787,-63.647 29.216,-73.816 27.433,-10.167 58.955,6.401 70.273,36.935 11.32,30.534 -1.787,63.647 -29.216,73.816 C 11.251,-0.965 5.609,0 0,0 m -7.625,-122.742 c -6.299,0 -12.635,1.083 -18.793,3.366 -30.534,11.32 -45.23,47.896 -32.759,81.535 12.47,33.64 47.457,51.801 77.992,40.477 30.534,-11.319 45.23,-47.895 32.758,-81.534 -9.955,-26.855 -34.263,-43.844 -59.198,-43.844" /></g><g
           transform="translate(280.0111,582.717)"
           id="g216"><path
             id="path218"
             style="fill:#231f20;fill-opacity:1;fill-rule:nonzero;stroke:none"
             d="m 0,0 c 0,-13.658 -11.072,-24.729 -24.729,-24.729 -13.658,0 -24.73,11.071 -24.73,24.729 0,13.658 11.072,24.729 24.73,24.729 C -11.072,24.729 0,13.658 0,0" /></g><g
           transform="translate(255.2811,604.4439)"
           id="g220"><path
             id="path222"
             style="fill:#231f20;fill-opacity:1;fill-rule:nonzero;stroke:none"
             d="m 0,0 c -11.98,0 -21.726,-9.747 -21.726,-21.727 0,-11.98 9.746,-21.726 21.726,-21.726 11.98,0 21.728,9.746 21.728,21.726 C 21.728,-9.747 11.98,0 0,0 m 0,-49.459 c -15.292,0 -27.732,12.441 -27.732,27.732 0,15.292 12.44,27.733 27.732,27.733 15.292,0 27.734,-12.441 27.734,-27.733 0,-15.291 -12.442,-27.732 -27.734,-27.732" /></g><g
           transform="translate(292.5399,596.184)"
           id="g224"><path
             id="path226"
             style="fill:#ffffff;fill-opacity:1;fill-rule:nonzero;stroke:none"
             d="m 0,0 c 0,-7.851 -6.364,-14.215 -14.215,-14.215 -7.85,0 -14.214,6.364 -14.214,14.215 0,7.851 6.364,14.215 14.214,14.215 C -6.364,14.215 0,7.851 0,0" /></g><g
           transform="translate(272.6884,583.0722)"
           id="g228"><path
             id="path230"
             style="fill:#ffffff;fill-opacity:1;fill-rule:nonzero;stroke:none"
             d="m 0,0 c 0,-4.534 -3.676,-8.21 -8.21,-8.21 -4.535,0 -8.21,3.676 -8.21,8.21 0,4.534 3.675,8.21 8.21,8.21 C -3.676,8.21 0,4.534 0,0" /></g><g
           transform="translate(238.8672,571.0632)"
           id="g232"><path
             id="path234"
             style="fill:#ffffff;fill-opacity:1;fill-rule:nonzero;stroke:none"
             d="m 0,0 c 0,-3.858 -3.127,-6.985 -6.985,-6.985 -3.857,0 -6.985,3.127 -6.985,6.985 0,3.858 3.128,6.985 6.985,6.985 C -3.127,6.985 0,3.858 0,0" /></g><g
           transform="translate(189.1714,632.7347)"
           id="g236"><path
             id="path238"
             style="fill:#2c303b;fill-opacity:1;fill-rule:nonzero;stroke:none"
             d="m 0,0 c 0,0 -29.972,83.79 57.349,131.439 87.321,47.648 175.108,10.691 182.73,-71.987 3.633,-39.397 -48.264,-7.554 -48.264,-7.554 L 127.369,43.964 42.034,5.96 0,0 Z" /></g><g
           transform="translate(323.8965,782.1954)"
           id="g240"><path
             id="path242"
             style="fill:#231f20;fill-opacity:1;fill-rule:nonzero;stroke:none"
             d="m 0,0 c -24.561,0 -50.807,-6.945 -75.937,-20.659 -76.078,-41.513 -60.543,-111.835 -56.674,-125.469 l 39.083,5.54 85.36,38.017 65.933,8.117 0.895,-0.548 c 7.791,-4.775 30.051,-15.892 39.349,-10.107 3.591,2.234 5.056,7.222 4.354,14.825 -3.202,34.75 -20.921,62.39 -49.89,77.83 C 36.842,-4.125 18.921,0 0,0 m -136.726,-152.777 -0.825,2.305 c -0.317,0.883 -7.695,21.938 -4.223,49.241 3.21,25.241 16.739,60.623 62.959,85.845 46.272,25.248 96.402,28.328 134.113,8.232 30.811,-16.423 49.651,-45.749 53.047,-82.579 0.927,-10.055 -1.486,-16.945 -7.167,-20.477 -13.206,-8.212 -38.903,6.077 -44.748,9.541 l -62.975,-7.754 -85.31,-37.992 -44.871,-6.362 z" /></g><g
           transform="translate(184.5599,655.1835)"
           id="g244"><path
             id="path246"
             style="fill:#ee3339;fill-opacity:1;fill-rule:nonzero;stroke:none"
             d="m 0,0 c 0,0 43.465,47.893 96.711,67.286 53.245,19.393 121.205,3.673 143.729,-4.508 0,0 4.412,-9.195 4.251,-25.775 C 244.53,20.424 231.935,24.992 231.935,24.992 L 4.611,-22.449 0,0 Z" /></g><g
           transform="translate(186.2076,647.1625)"
           id="g248"><path
             id="path250"
             style="fill:#ffffff;fill-opacity:1;fill-rule:nonzero;stroke:none"
             d="m 0,0 c 0,0 52.043,49.661 113.943,61.626 61.899,11.965 117.088,1.548 128.744,-7.838 L 243.043,45.024 83.251,15.919 2.964,-14.428 0,0 Z" /></g><g
           transform="translate(274.8403,651.5103)"
           id="g252"><path
             id="path254"
             style="fill:#ee3339;fill-opacity:1;fill-rule:nonzero;stroke:none"
             d="m 0,0 c 0,0 1.098,9.767 -11.039,14.669 -12.137,4.902 -15.916,6.561 -17.4,18.099 -1.485,11.538 -5.09,15.63 -5.09,15.63 0,0 4.042,8.432 3.094,22.839 -0.948,14.407 14.323,20.67 17.452,29.419 3.13,8.75 19.632,13.115 27.603,18.292 7.97,5.176 16.477,0.337 26.743,2.507 10.266,2.17 38.525,-5.526 44.55,-18.249 6.024,-12.723 6.18,-16.054 10.533,-28.128 4.353,-12.074 -0.22,-12.428 0.091,-20.049 0.312,-7.622 0.657,-13.704 -6.191,-17.97 C 83.498,32.793 85.519,24.124 85.519,24.124 85.519,24.124 11.114,-2.582 0,0" /></g><g
           transform="translate(332.3804,666.0432)"
           id="g256"><path
             id="path258"
             style="fill:#ffffff;fill-opacity:1;fill-rule:nonzero;stroke:none"
             d="m 0,0 c 0,0 10.994,3.459 9.693,11.027 -1.301,7.569 11.912,11.765 10.4,18.427 -1.512,6.661 -3.5,12.094 0.944,15.173 4.444,3.079 6.451,10.07 0.806,16.64 -5.644,6.57 -6.404,11.527 -10.793,17.327 -4.389,5.8 -11.289,5.153 -18.862,4.739 -7.573,-0.414 -34.007,3.911 -37.453,-3.511 -3.445,-7.422 -21.618,-17.999 -21.841,-30.148 -0.223,-12.148 -4.74,-17.6 -2.147,-20.019 2.593,-2.419 6.74,-4.988 4.841,-8.715 -1.9,-3.728 8.766,-3.911 14.648,-9.867 5.882,-5.956 3.967,-7.614 8.906,-9.813 4.939,-2.199 6.337,-4.496 6.337,-4.496 l 0.879,-7.081 L 0,0 Z" /></g><g
           transform="translate(327.734,684.8955)"
           id="g260"><path
             id="path262"
             style="fill:#0093cf;fill-opacity:1;fill-rule:nonzero;stroke:none"
             d="m 0,0 c 0,0 -11.672,-6.418 -17.619,-8.455 -5.948,-2.036 0.439,2.408 -5.522,2.884 -5.96,0.477 -9.35,1.933 -10.248,8.357 -0.898,6.423 -2.74,7.137 -6.497,6.194 -3.756,-0.944 0.422,11.279 -1.566,16.713 -1.989,5.433 10.702,5.736 8.659,11.755 -2.044,6.02 16.254,3.299 17.601,7.862 1.347,4.563 13.818,-2.254 17.428,-6.057 3.61,-3.802 -0.833,-3.736 3.972,-7.668 4.806,-3.932 7.802,-7.496 6.079,-11.207 C 10.565,16.667 6.313,21.001 6.542,15.403 6.771,9.804 -2.52,4.792 0,0" /></g><g
           id="g264"><g
             id="g266" /><g
             id="g272"><g
               style="opacity:0.64999402"
               id="g274"
               clip-path="url(#clipPath268)"><g
                 id="g276"
                 transform="translate(302.4029,704.148)"><path
                   id="path278"
                   style="fill:#2c303b;fill-opacity:1;fill-rule:nonzero;stroke:none"
                   d="M 0,0 C -5.58,0 -12.993,2.029 -21.556,9.373 -6.512,-3.525 5.535,2.225 8.772,4.051 7.726,5.008 5.529,6.943 1.116,10.598 -6.248,16.701 -13.994,26.088 -14.07,26.183 -13.994,26.091 -4.821,18.118 2.395,12.141 9.738,6.056 11.067,4.631 11.12,4.574 L 11.857,3.771 10.995,3.105 C 10.923,3.048 6.837,0 0,0" /></g></g></g></g><g
           id="g280"><g
             id="g282" /><g
             id="g288"><g
               style="opacity:0.64999402"
               id="g290"
               clip-path="url(#clipPath284)"><g
                 id="g292"
                 transform="translate(277.3611,688.8627)"><path
                   id="path294"
                   style="fill:#2c303b;fill-opacity:1;fill-rule:nonzero;stroke:none"
                   d="m 0,0 c -15.02,0 -27.896,6.604 -28.907,6.964 0.434,-0.156 47.01,-12.367 64.275,11.709 L 33.869,14.6 C 25.685,3.188 12.346,0 0,0" /></g></g></g></g><g
           transform="translate(265.5899,681.3202)"
           id="g296"><path
             id="path298"
             style="fill:#231f20;fill-opacity:1;fill-rule:nonzero;stroke:none"
             d="m 0,0 -0.051,2.002 c 0.211,0.005 21.259,0.651 30.852,10.35 l 1.424,-1.408 C 22.062,0.67 0.895,0.023 0,0" /></g><g
           transform="translate(297.3375,658.9)"
           id="g300"><path
             id="path302"
             style="fill:#231f20;fill-opacity:1;fill-rule:nonzero;stroke:none"
             d="m 0,0 c -0.156,0.953 -3.728,23.491 2.807,36.657 l 1.795,-0.89 C -1.648,23.18 1.937,0.549 1.975,0.323 L 0,0 Z" /></g><g
           id="g304"><g
             id="g306" /><g
             id="g312"><g
               style="opacity:0.64999402"
               id="g314"
               clip-path="url(#clipPath308)"><g
                 id="g316"
                 transform="translate(311.3433,658.5432)"><path
                   id="path318"
                   style="fill:#2c303b;fill-opacity:1;fill-rule:nonzero;stroke:none"
                   d="m 0,0 c -0.094,0.036 -9.329,3.757 -6.242,14.829 1.487,5.345 1.44,8.425 1.396,11.404 -0.042,2.654 -0.083,5.398 1,9.513 2.251,8.55 4.548,12.103 4.644,12.25 L 2.473,46.899 C 2.45,46.865 0.244,43.417 -1.91,35.235 -2.923,31.387 -2.886,28.898 -2.845,26.264 -2.798,23.143 -2.749,19.915 -4.315,14.291 -6.905,4.998 0.414,1.989 0.725,1.866 L 0,0 Z" /></g></g></g></g><g
           id="g320"><g
             id="g322" /><g
             id="g328"><g
               style="opacity:0.64999402"
               id="g330"
               clip-path="url(#clipPath324)"><g
                 id="g332"
                 transform="translate(330.4673,679.8344)"><path
                   id="path334"
                   style="fill:#2c303b;fill-opacity:1;fill-rule:nonzero;stroke:none"
                   d="m 0,0 c -3.316,14.074 -18.197,26.609 -18.326,26.705 l 2.119,2.267 C -15.662,28.563 -1.537,15.254 1.947,0.459 L 0,0 Z" /></g></g></g></g><g
           transform="translate(353.3567,687.4893)"
           id="g336"><path
             id="path338"
             style="fill:#231f20;fill-opacity:1;fill-rule:nonzero;stroke:none"
             d="m 0,0 c -0.839,0.06 -20.667,1.572 -33.478,11.049 l 1.189,1.609 C -19.939,3.524 -0.059,2.011 0.141,1.996 L 0,0 Z" /></g><g
           id="g340"><g
             id="g342" /><g
             id="g348"><g
               style="opacity:0.64999402"
               id="g350"
               clip-path="url(#clipPath344)"><g
                 id="g352"
                 transform="translate(317.6423,701.4902)"><path
                   id="path354"
                   style="fill:#2c303b;fill-opacity:1;fill-rule:nonzero;stroke:none"
                   d="m 0,0 -0.604,1.909 c 0.19,0.061 4.711,1.466 12.215,1.272 7.241,-0.205 27.253,6.333 27.454,6.4 C 38.238,9.312 19.646,1.175 11.904,1.175 11.787,1.175 11.671,1.176 11.56,1.179 4.459,1.366 0.043,0.016 0,0" /></g></g></g></g><g
           id="g356"><g
             id="g358" /><g
             id="g364"><g
               style="opacity:0.64999402"
               id="g366"
               clip-path="url(#clipPath360)"><g
                 id="g368"
                 transform="translate(317.0382,703.3992)"><path
                   id="path370"
                   style="fill:#2c303b;fill-opacity:1;fill-rule:nonzero;stroke:none"
                   d="M 0,0 -1.484,1.873 C 1.324,3.935 24.248,11.186 24.805,11.456 24.67,11.391 2.663,1.955 0,0" /></g></g></g></g><g
           id="g372"><g
             id="g374" /><g
             id="g380"><g
               style="opacity:0.64999402"
               id="g382"
               clip-path="url(#clipPath376)"><g
                 id="g384"
                 transform="translate(312.1409,706.539)"><path
                   id="path386"
                   style="fill:#2c303b;fill-opacity:1;fill-rule:nonzero;stroke:none"
                   d="M 0,0 C -1.541,7.741 -4.24,18.819 -4.276,18.839 -4.1,18.748 0.979,10.976 2.729,2.183 L 0,0 Z" /></g></g></g></g><g
           id="g388"><g
             id="g390" /><g
             id="g396"><g
               style="opacity:0.64999402"
               id="g398"
               clip-path="url(#clipPath392)"><g
                 id="g400"
                 transform="translate(314.2601,707.9193)"><path
                   id="path402"
                   style="fill:#2c303b;fill-opacity:1;fill-rule:nonzero;stroke:none"
                   d="M 0,0 2.293,6.493 C 2.282,6.543 2.28,6.67 2.291,6.861 L 2.278,6.863 c 0.004,0.028 0.015,0.121 0.035,0.288 0.023,0.294 0.064,0.673 0.121,1.122 0.004,0.035 0.008,0.071 0.012,0.107 0.743,7.144 -3.296,18.048 -3.337,18.157 0.117,-0.314 3.902,-4.764 4.873,-10.422 1.134,4.234 3.629,6.623 6,7.611 C 6.921,22.451 4.688,10.572 4.264,6.622 L 4.242,6.624 C 4.106,5.91 2.543,-2.612 1.973,-2.647 L 0,0 Z" /></g></g></g></g><g
           transform="translate(197.4646,606.9468)"
           id="g404"><path
             id="path406"
             style="fill:#2c303b;fill-opacity:1;fill-rule:nonzero;stroke:none"
             d="m 0,0 c 0,0 -29.27,-4.924 -34.195,24.195 0,0 35.549,12.611 76.037,36.041 40.489,23.43 101.376,37.197 140.503,33.341 34.343,-3.384 70.015,-2.697 85.943,-7.556 0,0 -3.003,-19.517 -19.431,-29.141 0,0 -15.218,-4.253 -49.425,-1.925 C 165.225,57.284 95.289,46.236 69.123,37.153 35.72,25.557 0,0 0,0" /></g><g
           transform="translate(166.7225,629.2169)"
           id="g408"><path
             id="path410"
             style="fill:#231f20;fill-opacity:1;fill-rule:nonzero;stroke:none"
             d="m 0,0 c 5.056,-21.263 25.583,-19.879 29.603,-19.398 5.007,3.527 37.832,26.201 69.278,37.117 27.699,9.617 97.798,20.25 131.497,17.962 30.342,-2.068 45.605,1.15 48.064,1.734 11.255,6.794 15.605,18.882 17.026,24.185 -9.769,2.311 -25.438,3.124 -43.333,4.054 -12.185,0.632 -25.998,1.349 -39.343,2.664 C 172.976,72.248 113.335,58.078 74.087,35.366 39.853,15.557 8.762,3.303 0,0 m 26.242,-25.55 c -9.28,0 -28.594,2.963 -32.654,26.974 l -0.423,2.487 2.378,0.844 c 0.353,0.125 35.778,12.803 75.538,35.81 40.197,23.263 101.358,37.766 142.302,33.73 13.204,-1.301 26.35,-1.984 39.063,-2.644 20.035,-1.04 37.337,-1.939 47.46,-5.028 l 2.487,-0.758 -0.395,-2.57 C 301.867,62.44 298.577,42.247 281.116,32.018 l -0.709,-0.301 c -0.641,-0.178 -16.11,-4.366 -50.436,-2.028 -32.492,2.21 -102.5,-8.402 -129.119,-17.643 C 68.234,0.722 32.844,-24.46 32.49,-24.712 l -0.565,-0.405 -0.684,-0.115 c -0.078,-0.013 -2.023,-0.318 -4.999,-0.318" /></g><g
           transform="translate(171.8897,587.8702)"
           id="g412"><path
             id="path414"
             style="fill:#27285e;fill-opacity:1;fill-rule:nonzero;stroke:none"
             d="M 0,0 C 0,0 -6.504,-1.3 -21.338,0.704 -36.172,2.709 -52.209,-0.661 -43.389,-13.008 -34.569,-25.356 0,0 0,0" /></g><g
           transform="translate(142.6562,586.1283)"
           id="g416"><path
             id="path418"
             style="fill:#231f20;fill-opacity:1;fill-rule:nonzero;stroke:none"
             d="m 0,0 c -7.257,0 -12.102,-1.664 -13.335,-3.711 -0.956,-1.585 0.354,-4.034 1.622,-5.809 0.792,-1.108 1.92,-1.746 3.551,-2.008 6.737,-1.068 18.336,4.717 26.94,9.946 -3.073,0.138 -6.819,0.449 -11.286,1.053 C 4.784,-0.163 2.274,0 0,0 m -6.51,-17.655 c -0.898,0 -1.768,0.064 -2.6,0.197 -3.232,0.518 -5.752,2.013 -7.49,4.446 -4.194,5.871 -3.337,9.985 -1.879,12.401 3.965,6.581 16.432,7.43 26.776,6.033 C 22.279,3.532 28.598,4.677 28.661,4.689 30.039,4.953 31.421,4.224 31.98,2.937 32.539,1.651 32.141,0.151 31.009,-0.679 28.512,-2.511 7.439,-17.655 -6.51,-17.655" /></g><g
           transform="translate(129.7355,169.5191)"
           id="g420"><path
             id="path422"
             style="fill:#231f20;fill-opacity:1;fill-rule:nonzero;stroke:none"
             d="m 0,0 -5.975,0.602 c 3.13,31.033 30.718,30.301 30.986,30.349 l -0.01,-0.001 -0.538,2.954 0.548,-2.953 C 24.1,30.779 2.667,26.434 0,0" /></g><g
           transform="translate(94.6272,413.2711)"
           id="g424"><path
             id="path426"
             style="fill:#231f20;fill-opacity:1;fill-rule:nonzero;stroke:none"
             d="m 0,0 c -7.868,21.233 -17.912,22.649 -17.861,22.626 l -0.342,5.996 C -17.578,28.66 -2.651,29.375 0,0" /></g><g
           transform="translate(476.7635,629.5632)"
           id="g428"><path
             id="path430"
             style="fill:#0093cf;fill-opacity:1;fill-rule:nonzero;stroke:none"
             d="M 0,0 C 0,0 29.529,21.918 58.056,4.902 86.584,-12.115 80.578,-59.491 38.037,-74.841 38.037,-74.841 23.022,-18.415 0,0" /></g><g
           transform="translate(481.7292,629.1857)"
           id="g432"><path
             id="path434"
             style="fill:#231f20;fill-opacity:1;fill-rule:nonzero;stroke:none"
             d="m 0,0 c 18.87,-18.156 31.642,-58.651 35.069,-70.469 21.824,9.061 31.056,26.485 32.371,40.185 C 68.778,-16.363 62.838,-4.032 51.552,2.701 30.338,15.353 8.094,4.772 0,0 m 33.813,-81.136 -3.643,5.901 c -0.149,0.554 -14.944,60.441 -36.925,78.024 l -3.11,4.093 3.11,-4.093 c 1.269,0.942 31.476,22.908 61.384,5.069 13.331,-7.952 20.356,-22.425 18.79,-38.716 -1.979,-20.6 -17.05,-38.391 -39.329,-46.43 l -0.277,-3.848 z" /></g><g
           transform="translate(496.941,607.4464)"
           id="g436"><path
             id="path438"
             style="fill:#27285e;fill-opacity:1;fill-rule:nonzero;stroke:none"
             d="M 0,0 C 0,0 10.352,13.005 24.366,5.498 38.379,-2.009 27.179,-23.755 13.26,-29.398 13.26,-29.398 8.666,-8 0,0" /></g><g
           transform="translate(501.0663,607.4272)"
           id="g440"><path
             id="path442"
             style="fill:#231f20;fill-opacity:1;fill-rule:nonzero;stroke:none"
             d="m 0,0 c 5.822,-7.063 9.533,-18.926 11.146,-24.977 6.625,4.145 12.16,12.279 12.52,19.015 C 23.879,-1.937 22.25,1.033 18.823,2.87 10.106,7.537 3.13,2.859 0,0 m 9.136,-32.382 c -0.483,0 -0.966,0.117 -1.406,0.349 -0.784,0.415 -1.343,1.155 -1.531,2.022 -0.043,0.206 -4.5,20.566 -12.361,27.824 -1.156,1.068 -1.292,2.846 -0.313,4.077 4.123,5.175 15.302,13.146 28.133,6.274 5.501,-2.947 8.344,-8.077 8.004,-14.445 -0.542,-10.154 -9.244,-21.764 -19.398,-25.881 -0.362,-0.147 -0.745,-0.22 -1.128,-0.22" /></g><g
           transform="translate(498.9473,405.7964)"
           id="g444"><path
             id="path446"
             style="fill:#ffffff;fill-opacity:1;fill-rule:nonzero;stroke:none"
             d="m 0,0 c 0,0 8.147,4.526 18.558,-2.716 10.41,-7.242 12.674,-19.01 12.674,-19.01 0,0 -29.874,-21.727 -27.611,-48.884 2.263,-27.158 27.611,-14.485 36.663,-4.979 9.053,9.505 30.779,4.979 17.2,-19.011 -13.579,-23.989 -38.926,-38.926 -71.968,-11.768 C -47.526,-79.21 -23.537,-20.821 0,0" /></g><g
           transform="translate(500.6362,403.279)"
           id="g448"><path
             id="path450"
             style="fill:#231f20;fill-opacity:1;fill-rule:nonzero;stroke:none"
             d="m 0,0 c -14.848,-13.344 -29.824,-42.162 -29.361,-67.692 0.262,-14.437 5.342,-25.823 15.093,-33.839 13.42,-11.03 26.194,-15.511 37.982,-13.318 11.347,2.111 21.813,10.722 29.466,24.246 4.683,8.271 5.224,14.882 1.447,17.683 -3.601,2.668 -10.205,1.612 -13.857,-2.223 -6.608,-6.938 -20.557,-15.071 -30.846,-11.441 -4.448,1.568 -9.965,6.006 -10.986,18.241 -2.082,25.015 20.7,45.109 27.185,50.29 -1.032,3.282 -3.988,10.533 -10.97,15.389 C 7.38,2.744 1.316,0.585 0,0 m 17.785,-121.4 c -11.513,0 -23.544,5.102 -35.865,15.23 -11.017,9.054 -16.993,22.322 -17.284,38.369 -0.499,27.438 15.718,58.442 31.685,72.567 l 0.531,0.376 c 0.399,0.222 9.924,5.338 21.73,-2.875 11.287,-7.851 13.807,-20.379 13.908,-20.909 l 0.36,-1.871 -1.54,-1.123 C 31.024,-21.844 2.831,-42.717 4.925,-67.844 c 0.604,-7.253 2.958,-11.652 6.995,-13.076 7.263,-2.555 19.093,4.241 24.502,9.92 5.762,6.053 15.742,7.387 21.781,2.904 3.097,-2.296 9.314,-9.373 0.205,-25.465 -8.543,-15.095 -20.475,-24.752 -33.597,-27.193 -2.318,-0.431 -4.663,-0.646 -7.026,-0.646" /></g><g
           transform="translate(521.6625,310.6296)"
           id="g452"><path
             id="path454"
             style="fill:#231f20;fill-opacity:1;fill-rule:nonzero;stroke:none"
             d="m 0,0 c -0.768,-0.9 -24.195,-2.8 -22.201,27.729 l 5.994,-0.391 C -17.836,2.421 -0.729,0.087 0,0" /></g><g
           transform="translate(509.3439,407.1934)"
           id="g456"><path
             id="path458"
             style="fill:#2c303b;fill-opacity:1;fill-rule:nonzero;stroke:none"
             d="m 0,0 104.553,138.185 c 0,0 6.005,4.683 7.34,-8.669 L 15.406,-11.315 0,0 Z" /></g><g
           transform="translate(513.5765,407.8098)"
           id="g460"><path
             id="path462"
             style="fill:#231f20;fill-opacity:1;fill-rule:nonzero;stroke:none"
             d="m 0,0 10.45,-7.674 94.101,137.346 c -0.647,4.945 -1.91,5.688 -1.924,5.694 -0.041,-0.007 -0.151,-0.027 -0.264,-0.074 L 0,0 Z m 11.896,-16.189 -20.361,14.955 106.629,140.929 0.31,0.243 c 0.317,0.246 3.187,2.372 6.516,0.949 3.156,-1.352 5.007,-5.175 5.658,-11.688 l 0.11,-1.092 -98.862,-144.296 z" /></g><g
           transform="translate(667.9137,597.83)"
           id="g464"><path
             id="path466"
             style="fill:#ee3339;fill-opacity:1;fill-rule:nonzero;stroke:none"
             d="m 0,0 c 0,0 29.641,-21.317 45.002,-22.968 15.362,-1.651 -1.518,-0.457 -1.518,-0.457 L -45.406,-55.618 0,0 Z" /></g><g
           transform="translate(526.5577,446.9858)"
           id="g468"><path
             id="path470"
             style="fill:#0093cf;fill-opacity:1;fill-rule:nonzero;stroke:none"
             d="m 0,0 c 0,0 -9.053,-5.405 -7.695,-17.187 1.358,-11.781 16.748,-2.729 22.632,-12.687 5.884,-9.958 -4.44,-27.158 -11.316,-33.042 0,0 20.368,-1.81 38.474,15.842 C 60.2,-29.421 57.484,8.6 40.284,21.726 23.084,34.853 3.621,20.821 -2.263,14.032 -8.147,7.242 0,0 0,0" /></g><g
           transform="translate(528.1082,444.4137)"
           id="g472"><path
             id="path474"
             style="fill:#231f20;fill-opacity:1;fill-rule:nonzero;stroke:none"
             d="m 0,0 c -0.371,-0.23 -7.365,-4.706 -6.262,-14.271 0.393,-3.411 1.902,-3.919 7.677,-4.452 4.896,-0.453 10.99,-1.017 14.556,-7.051 5.409,-9.154 -0.28,-22.624 -6.761,-31.191 7.107,0.999 18.628,4.267 29.239,14.614 7.973,7.774 12.225,20.805 11.375,34.855 C 49.048,5.34 44.221,16.333 36.911,21.912 21.116,33.966 3.411,20.356 -1.544,14.637 -5.441,10.141 0.203,5.031 0.446,4.816 L 3.507,2.094 0,0 Z m 3.826,-63.404 c -1.165,0 -1.873,0.056 -2.022,0.069 l -7.11,0.633 5.423,4.64 c 6.378,5.455 15.498,21.085 10.684,29.232 -1.87,3.164 -5.002,3.67 -9.939,4.126 -5.104,0.472 -12.096,1.119 -13.091,9.745 -1.053,9.133 3.263,14.97 6.327,17.886 -2.894,3.894 -5.064,10.008 -0.182,15.644 5.918,6.826 27.186,22.963 46.639,8.115 C 49.231,20.063 54.938,7.421 55.82,-7.133 56.774,-22.902 51.847,-37.675 42.641,-46.652 26.911,-61.989 9.654,-63.404 3.826,-63.404" /></g><g
           transform="translate(553.7073,443.2377)"
           id="g476"><path
             id="path478"
             style="fill:#231f20;fill-opacity:1;fill-rule:nonzero;stroke:none"
             d="m 0,0 c -0.618,0.467 -15.277,11.37 -25.026,1.625 l -4.247,4.246 C -18.491,16.649 -6.671,5.091 0,0" /></g><g
           transform="translate(768.1301,427.9153)"
           id="g480"><path
             id="path482"
             style="fill:#231f20;fill-opacity:1;fill-rule:nonzero;stroke:none"
             d="m 0,0 c -50.917,42.272 -132.077,105.331 -146.986,105.792 l 0.187,6.004 C -125.043,111.121 -9.29,15.52 3.836,4.622 L 0,0 Z" /></g><g
           transform="translate(636.821,331.9999)"
           id="g484"><path
             id="path486"
             style="fill:#231f20;fill-opacity:1;fill-rule:nonzero;stroke:none"
             d="m 0,0 c -1.093,6.838 -29.249,173.452 -22.494,199.616 l 5.814,-1.501 C -23.122,173.153 1.333,5.088 1.599,3.425 L 0,0 Z" /></g><g
           transform="translate(620.221,545.8636)"
           id="g488"><path
             id="path490"
             style="fill:#231f20;fill-opacity:1;fill-rule:nonzero;stroke:none"
             d="m 0,0 -5.975,0.622 c 5.194,48.042 27.561,172.366 27.349,171.086 l -1.37,-19.803 C 19.851,150.834 4.61,44.268 0,0" /></g><g
           transform="translate(622.9619,538.9164)"
           id="g492"><path
             id="path494"
             style="fill:#231f20;fill-opacity:1;fill-rule:nonzero;stroke:none"
             d="m 0,0 -3.449,4.917 c 22.256,15.604 144.553,48.936 149.747,50.348 l 9.797,1.846 C 154.832,56.769 21.402,15.006 0,0" /></g><g
           transform="translate(605.4938,534.3388)"
           id="g496"><path
             id="path498"
             style="fill:#231f20;fill-opacity:1;fill-rule:nonzero;stroke:none"
             d="m 0,0 c -0.352,0.274 -36.393,29.78 -56.138,48.378 l 1.443,2.954 C -35.153,32.927 3.337,5.014 3.687,4.741 L 0,0 Z" /></g><g
           transform="translate(525.42,507.3116)"
           id="g500"><path
             id="path502"
             style="fill:#231f20;fill-opacity:1;fill-rule:nonzero;stroke:none"
             d="M 0,0 C -1.55,0 -1.691,-0.132 -2.981,0.115 L -3.146,6.261 C 13.462,3.099 69.972,31.2 87.612,40.739 L 83.346,31.422 C 80.834,30.064 24.938,0 0,0" /></g><g
           id="g504"><g
             id="g506" /><g
             id="g512"><g
               style="opacity:0.33000201"
               id="g514"
               clip-path="url(#clipPath508)"><g
                 id="g516"
                 transform="translate(76.4072,391.6212)"><path
                   id="path518"
                   style="fill:#001e38;fill-opacity:1;fill-rule:nonzero;stroke:none"
                   d="m 0,0 c 0,0 21.989,-12.006 54.02,-8.201 32.031,3.805 57.801,12.458 57.801,12.458 0,0 -16.551,-51.521 -4.183,-101.069 12.369,-49.548 108.184,-109.486 186.76,-81.959 78.576,27.527 78.713,82.088 78.572,121.225 -0.14,39.137 16.876,73.124 38.897,100.674 22.022,27.549 32.724,83.779 29.125,104.962 -3.6,21.183 -10.557,31.761 -10.557,31.761 0,0 -0.227,38.157 -28.26,60.25 -28.033,22.093 -32.107,4.345 -32.107,4.345 0,0 -15.453,20.093 -39.878,6.743 -24.425,-13.35 -38.66,-36.178 -38.66,-36.178 0,0 13.155,31.656 -26.094,31.246 -39.249,-0.41 -40.213,-18.465 -39.23,-34.211 0,0 -11.151,27.793 -25.604,33.8 -14.453,6.007 -18.41,3.62 -18.41,3.62 l -45.93,-25.809 -17.184,-13.077 -4.156,-27.339 5.458,-28.688 8.306,-6.617 c 0,0 -15.171,26.978 -23.898,31.915 -8.727,4.937 -28.27,-24.276 -32.262,-48.457 l 2.326,20.16 8.629,16.83 -25.457,-8.107 c 0,0 18.08,9.459 23.523,18.123 5.444,8.663 -9.469,4.451 -9.469,4.451 l 20.244,11.199 -13.904,2.39 -9.612,3.221 c 0,0 16.866,-4.128 18.057,7.015 1.19,11.144 -7.234,14.841 -7.234,14.841 l 28.169,-8.061 c 0,0 -1.934,-4.48 -10.339,7.199 -8.405,11.679 -7.144,20.458 -7.144,20.458 l 38.778,14.654 c 0,0 0.273,-18.148 20.117,-13.477 19.844,4.671 73.665,28.252 111.071,29.609 37.406,1.357 91.884,-5.795 101.163,-4.191 9.278,1.605 17.983,-5.404 17.983,-5.404 0,0 17.995,-21.689 29.277,-20.014 11.282,1.675 27.236,5.481 27.236,5.481 0,0 -10.506,-5.168 -7.236,-16.438 3.27,-11.27 10.606,-7.994 10.606,-7.994 0,0 -5.36,-28.032 2.367,-31.79 0,0 -6.854,-10.028 4.19,-13.149 l 11.044,-3.122 8.35,6.497 -21.589,-18.674 c 0,0 2.858,-26.745 4.671,-61.208 1.814,-34.463 -0.456,-32.497 -0.456,-32.497 l 14.777,7.911 10.284,2.727 8.761,0 c 0,0 -17.392,-0.225 -16.448,-10.358 0.945,-10.133 8.216,-15.669 8.216,-15.669 0,0 -22.193,6.544 -19.129,-5.159 3.064,-11.704 10.913,-18.836 10.913,-18.836 l -19.394,2.65 -13.925,-20.085 -14.411,0 c 0,0 -36.179,-45.323 -22.673,-85.951 13.506,-40.628 46.343,-33.237 46.343,-33.237 0,0 -22.327,-62.945 -57.361,-90.472 -35.034,-27.526 -49.134,-32.049 -85.583,-35.534 -36.449,-3.485 -87.084,-1.165 -87.084,-1.165 0,0 -47.122,12.321 -87.585,49.211 -40.463,36.891 -37.447,40.051 -45.249,74.829 -7.803,34.778 0,92.388 0,92.388 0,0 -50.28,-17.788 -78.339,17.354" /></g></g></g></g><g
           id="g520"><g
             id="g522" /><g
             id="g528"><g
               style="opacity:0.33000201"
               id="g530"
               clip-path="url(#clipPath524)"><g
                 id="g532"
                 transform="translate(94.6272,413.2711)"><path
                   id="path534"
                   style="fill:#001e38;fill-opacity:1;fill-rule:nonzero;stroke:none"
                   d="m 0,0 c 0,0 7.742,28.507 0,37.015 -7.742,8.509 0,17.664 0,17.664 0,0 -18.655,-6.923 -18.203,-26.057 0,0 16.774,-0.333 18.203,-28.622" /></g></g></g></g><g
           id="g536"><g
             id="g538" /><g
             id="g544"><g
               style="opacity:0.33000201"
               id="g546"
               clip-path="url(#clipPath540)"><g
                 id="g548"
                 transform="translate(298.7197,438.2612)"><path
                   id="path550"
                   style="fill:#001e38;fill-opacity:1;fill-rule:nonzero;stroke:none"
                   d="m 0,0 c 0,0 2.207,-24.724 25.045,-38.126 22.838,-13.402 35.074,34.588 35.074,34.588 0,0 -3.671,-9.165 -24.226,-10.307 C 15.339,-14.987 0,0 0,0" /></g></g></g></g><g
           id="g552"><g
             id="g554" /><g
             id="g560"><g
               style="opacity:0.33000201"
               id="g562"
               clip-path="url(#clipPath556)"><g
                 id="g564"
                 transform="translate(293.7293,530.6044)"><path
                   id="path566"
                   style="fill:#001e38;fill-opacity:1;fill-rule:nonzero;stroke:none"
                   d="m 0,0 c 0,0 -10.685,-13.856 -7.083,-27.611 3.602,-13.754 18.782,-17.23 20.069,-28.871 1.286,-11.641 4.631,-18.686 26.243,-20.567 21.612,-1.88 26.638,-0.336 34.357,5.838 7.718,6.175 3.153,20.936 12.442,27.577 9.289,6.642 2.998,38.471 2.998,38.471 l -2.998,-23.482 -9.482,-5.418 c 0,0 -3.159,-19.353 -10.461,-22.59 -7.303,-3.237 -13.735,-2.796 -13.735,-2.796 l -13.379,-0.753 -11.835,1.253 -5.386,5.53 -1.479,18.486 -5.238,0.29 c 0,0 -11.626,0.878 -16.222,12.3 -4.596,11.423 2.988,21.114 2.988,21.114 L 0,0 Z" /></g></g></g></g><g
           id="g568"><g
             id="g570" /><g
             id="g576"><g
               style="opacity:0.5"
               id="g578"
               clip-path="url(#clipPath572)"><g
                 id="g580"
                 transform="translate(246.5205,764.1733)"><path
                   id="path582"
                   style="fill:#000000;fill-opacity:1;fill-rule:nonzero;stroke:none"
                   d="m 0,0 c 0,0 -37.079,-28.686 -44.273,-65.985 -7.194,-37.3 21.479,-39.645 21.479,-39.645 l 17.585,9.778 c 0,0 -8.085,5.659 -5.629,15.483 2.456,9.825 4.1,5.749 2.19,18.599 -1.911,12.851 2.666,34.857 11.126,40.315 8.459,5.458 15.112,13.119 15.112,13.119 0,0 -1,-4.078 -7.784,-11.37 -6.784,-7.292 -11.722,-10.967 -11.921,-21.72 -0.199,-10.754 -3.772,-14.24 -1.628,-22.6 2.145,-8.361 2.106,-9.2 3.623,-15.869 1.518,-6.669 4.674,-10.828 4.674,-10.828 0,0 -19.412,-12.836 -36.232,-19.525 -16.82,-6.689 -16.82,-16.672 -8.36,-24.507 8.46,-7.835 31.929,3.316 31.929,3.316 l -25.38,-15.79 -18.801,-12.5 c 0,0 -14.757,-1.142 -23.771,10.044 -9.015,11.185 -8.194,19.483 -8.194,19.483 l 21.562,7.116 2.489,2.918 c 0,0 -8.809,20.317 3.631,57.485 C -44.132,-25.516 0,0 0,0" /></g></g></g></g><g
           id="g584"><g
             id="g586" /><g
             id="g592"><g
               style="opacity:0.5"
               id="g594"
               clip-path="url(#clipPath588)"><g
                 id="g596"
                 transform="translate(324.2425,773.33)"><path
                   id="path598"
                   style="fill:#000000;fill-opacity:1;fill-rule:nonzero;stroke:none"
                   d="m 0,0 c 0,0 23.183,-1.815 32.465,-13.285 9.282,-11.469 13.317,-20.581 14.579,-33.457 1.261,-12.875 0,-25.098 0,-25.098 l 37.077,-3.291 c 0,0 21.221,-1.204 23.456,-15.953 2.236,-14.749 -26.125,-20.755 -26.125,-20.755 l 38.162,0 19.327,22.801 0,9.366 -32.131,3.201 c 0,0 -0.763,34.278 -28.576,61.182 C 50.422,11.615 21.389,13.59 -1.965,11.935 -25.318,10.28 -33.993,7.611 -33.993,7.611 c 0,0 58.326,12.433 86.12,-11.2 65.36,-55.575 31.396,-63.707 16.223,-60.935 C 55.954,-62.259 58.655,-3.629 0,0" /></g></g></g></g><g
           id="g600"><g
             id="g602" /><g
             id="g608"><g
               style="opacity:0.33000201"
               id="g610"
               clip-path="url(#clipPath604)"><g
                 id="g612"
                 transform="translate(510.5017,402.6171)"><path
                   id="path614"
                   style="fill:#231f20;fill-opacity:1;fill-rule:nonzero;stroke:none"
                   d="m 0,0 c 0,0 -21.694,-26.108 -27.012,-55.598 -5.318,-29.49 14.903,-43.655 32.228,-42.132 17.324,1.523 22.884,25.388 28.444,27.113 5.559,1.725 -8.944,-6.252 -8.944,-6.252 L 8.762,-83.637 c 0,0 -18.352,-3.933 -19.328,13.02 C -11.542,-53.664 0,-39.732 0,-39.732 L 19.677,-18.547 11.668,-4.844 0,0 Z" /></g></g></g></g><g
           id="g616"><g
             id="g618" /><g
             id="g624"><g
               style="opacity:0.33000201"
               id="g626"
               clip-path="url(#clipPath620)"><g
                 id="g628"
                 transform="translate(493.9382,292.6375)"><path
                   id="path630"
                   style="fill:#231f20;fill-opacity:1;fill-rule:nonzero;stroke:none"
                   d="m 0,0 c 0,0 28.864,-6.749 45.133,12.139 16.268,18.887 10.813,30.06 10.813,30.06 0,0 7.696,2.694 10.386,-6.653 C 69.021,26.2 55.943,8.921 55.943,8.921 L 48.889,1.998 38.727,-4.748 c 0,0 -23.554,-8.761 -38.727,4.748" /></g></g></g></g><g
           id="g632"><g
             id="g634" /><g
             id="g640"><g
               style="opacity:0.22999603"
               id="g642"
               clip-path="url(#clipPath636)"><g
                 id="g644"
                 transform="translate(615.9395,543.1022)"><path
                   id="path646"
                   style="fill:#000000;fill-opacity:1;fill-rule:nonzero;stroke:none"
                   d="m 0,0 c 0,0 -20.475,-26.24 -51.217,-39.241 -30.742,-13.002 -16.722,7.979 -16.722,7.979 l 55.705,27.717 c 0,0 -42.092,-28.558 -58.275,-7.049 -16.183,21.51 33.838,26.806 33.838,26.806 l 12.53,-10.131 c 0,0 -42.067,50.056 -34.042,83.552 8.024,33.495 54.091,15.492 60.371,-6.904 C 8.467,60.333 6.569,38.867 6.569,38.867 l 18.045,127.584 c 0,0 -6.434,-8.874 -35.888,-23.709 -29.453,-14.834 -62.458,-18.314 -62.458,-18.314 l -35.72,-2.274 -11.412,-24.169 c 0,0 45.441,4.491 52.757,-19.134 7.316,-23.626 -6.164,-48.556 -6.164,-48.556 l -25.85,-21.499 9.602,-44.587 -1.126,-46.294 c 0,0 19.072,14.919 28.061,13.105 l 8.99,-1.814 c 0,0 12.872,3.075 17.923,-19.504 5.05,-22.578 -2.47,-45.611 -2.47,-45.611 l -10.472,-9.42 -16.971,-10.313 -13.707,-4.04 -7.128,-4.572 -11.218,-7.138 2.287,-12.863 c 0,0 23.842,10.863 48.064,8.86 24.222,-2.003 65.261,-22.022 70.767,-32.282 l -14.086,85.131 c 0,0 9.937,-39.837 0,-50.848 -9.938,-11.01 -45.472,57.252 -32.459,101.947 13.012,44.695 25.045,12.407 28.312,-2.727 3.267,-15.133 3.835,-20.531 3.835,-20.531 0,0 -3.955,21.164 11.728,43.307 15.682,22.144 99.364,-36.913 99.364,-36.913 l 19.919,-14.014 c 0,0 -59.558,66.897 -82.08,86.75 -22.522,19.854 53.862,48.1 72.818,58.144 0,0 -48.805,-7.623 -87.332,-7.623 -39.106,0 -22.419,110.814 -22.419,110.814 L 2.188,16.903 2.954,3.072 -16.71,0.073" /></g></g></g></g><g
           transform="translate(16.8349,77.5455)"
           id="g648"><path
             id="path650"
             style="fill:#231f20;fill-opacity:1;fill-rule:nonzero;stroke:none"
             d="m 0,0 c 0,34.17 19.563,50.604 61.298,50.604 2.609,0 13.955,-0.262 25.041,-4.044 C 80.731,39.908 76.819,34.693 69.254,26.215 41.996,31.561 37.823,16.694 37.823,0.391 c 0,-3.26 0,-6.52 0.13,-9.651 0.131,-3.13 0.522,-6.13 1.695,-8.87 2.609,-5.998 8.477,-9.258 19.303,-8.998 l 5.999,0.131 0,20.997 30.911,0 0,-40.04 C 84.644,-48.909 71.602,-50.082 59.864,-50.082 17.607,-50.082 0,-34.301 0,0" /></g><g
           transform="translate(184.4172,74.6764)"
           id="g652"><path
             id="path654"
             style="fill:#231f20;fill-opacity:1;fill-rule:nonzero;stroke:none"
             d="m 0,0 c 0,2.347 -0.13,4.825 -0.782,7.043 -1.174,4.695 -4.304,9.26 -12.26,9.26 -8.086,0 -11.347,-4.565 -12.52,-9.26 -0.653,-2.218 -0.783,-4.696 -0.783,-7.043 -0.131,-2.218 0,-4.305 0,-6.129 0,-1.827 -0.131,-3.914 0,-6.131 0,-2.347 0.13,-4.825 0.783,-7.043 1.173,-4.696 4.434,-9.26 12.52,-9.26 7.956,0 11.086,4.564 12.26,9.26 0.652,2.218 0.782,4.696 0.782,7.043 0.131,2.217 0,4.435 0,6.131 0,1.695 0.131,3.911 0,6.129 m -60.385,-6.129 c 0,28.039 12.912,41.995 47.343,41.995 34.432,0 46.952,-13.956 46.952,-41.995 0,-28.303 -12.52,-41.084 -47.213,-41.084 -34.431,0 -47.082,12.912 -47.082,41.084" /></g><path
           id="path656"
           style="fill:#231f20;fill-opacity:1;fill-rule:nonzero;stroke:none"
           d="m 229.273,129.323 36.518,0 0,-100.686 -36.518,0 0,100.686 z" /><g
           transform="translate(320.0414,64.3737)"
           id="g658"><path
             id="path660"
             style="fill:#231f20;fill-opacity:1;fill-rule:nonzero;stroke:none"
             d="m 0,0 c -8.347,0 -12.129,-3.522 -12.129,-9.913 0,-5.347 3.26,-9.259 10.956,-9.259 5.477,0 12.65,2.347 12.65,8.738 l 0,9.13 C 5.999,-0.262 3,0 0,0 m 45.779,1.696 c 0,-31.433 -11.478,-38.997 -45.127,-38.997 -26.867,0 -43.431,8.478 -43.431,27.388 0,21.129 25.433,26.867 53.604,22.694 l 0,3.913 c 0,8.738 -12.129,10.172 -17.999,10.172 -9.259,0 -18.258,-1.434 -27.649,-3.783 l 0,18.521 c 11.347,3.391 23.085,4.305 35.214,4.305 31.171,0 45.388,-18.652 45.388,-44.213" /></g><g
           transform="translate(465.1906,79.2411)"
           id="g662"><path
             id="path664"
             style="fill:#231f20;fill-opacity:1;fill-rule:nonzero;stroke:none"
             d="m 0,0 0,-50.604 -32.606,0 0,50.082 c 0,6.26 -3.52,10.434 -11.867,10.434 -8.478,0 -11.869,-4.043 -11.869,-10.434 l 0,-50.082 -32.344,0 0,50.604 c 0,23.085 17.345,31.041 44.213,31.041 C -17.999,31.041 0,22.694 0,0" /></g><g
           transform="translate(507.8297,85.2412)"
           id="g666"><path
             id="path668"
             style="fill:#231f20;fill-opacity:1;fill-rule:nonzero;stroke:none"
             d="m 0,0 c 0,-4.958 2.087,-8.347 8.347,-8.347 7.434,0 9.912,2.216 9.912,8.347 0,4.956 -1.827,8.216 -8.87,8.216 C 2.218,8.216 0,5.216 0,0 m -3.782,-50.995 c -1.045,-2.478 -1.436,-3.652 -1.436,-4.436 0,-5.216 7.045,-5.869 14.347,-5.869 12.13,0 20.346,0.131 20.346,4.696 0,3.651 -3.521,4.304 -8.999,4.564 l -24.258,1.045 z m -27.259,-7.696 c 0,2.869 1.826,6.26 7.696,11.087 -6.261,4.302 -8.609,7.956 -8.609,12.52 0,5.085 2.477,10.172 14.607,15.781 -9.521,6.129 -12.912,11.867 -12.912,19.954 0,12.912 11.738,24.128 42.911,24.65 10.954,0.131 15.78,-0.522 20.345,-1.564 4.825,-1.045 8.347,-3.131 10.043,-4.956 2.346,-2.478 4.302,-5.869 4.564,-10.305 0.131,-2.869 0.26,-5.478 0,-7.565 -1.564,-12.649 -11.347,-24.518 -38.475,-24.518 -3.129,0 -6,0.131 -10.694,0.653 -1.435,-2.218 -1.695,-3.131 -1.695,-4.174 0,-3.653 4.042,-4.435 6.911,-4.564 l 23.217,-0.785 c 21.519,-0.782 30.779,-7.694 30.779,-19.954 0,-15.258 -14.478,-25.954 -47.996,-25.954 -30.127,0 -40.692,9.391 -40.692,19.694" /></g><g
           transform="translate(628.5938,102.4556)"
           id="g670"><path
             id="path672"
             style="fill:#0093cf;fill-opacity:1;fill-rule:nonzero;stroke:none"
             d="m 0,0 -52.3,0 0,23.999 95.338,0 0,-19.955 C 27.779,-12.521 9.65,-33.388 -7.827,-50.211 l 50.865,0 0,-23.608 -95.338,0 0,17.739 C -36.519,-38.735 -18.39,-17.999 0,0" /></g><g
           transform="translate(681.2755,77.5455)"
           id="g674"><path
             id="path676"
             style="fill:#0093cf;fill-opacity:1;fill-rule:nonzero;stroke:none"
             d="m 0,0 c 0,34.17 19.563,50.604 61.298,50.604 2.607,0 13.954,-0.262 25.041,-4.044 C 80.73,39.908 76.817,34.693 69.254,26.215 41.995,31.561 37.822,16.694 37.822,0.391 c 0,-3.26 0,-6.52 0.131,-9.651 0.129,-3.13 0.52,-6.13 1.693,-8.87 2.609,-5.998 8.479,-9.258 19.303,-8.998 l 6.001,0.131 0,20.997 30.91,0 0,-40.04 C 84.644,-48.909 71.601,-50.082 59.863,-50.082 17.605,-50.082 0,-34.301 0,0" /></g></g></g></g></svg>