<?xml version="1.0" encoding="UTF-8"?>
<svg width="126px" height="23px" viewBox="0 0 126 23" version="1.1" xmlns="http://www.w3.org/2000/svg" xmlns:xlink="http://www.w3.org/1999/xlink">
    <!-- Generator: Sketch 48.2 (47327) - http://www.bohemiancoding.com/sketch -->
    <title>Ars Futura Logo</title>
    <desc>Created with Sketch.</desc>
    <defs></defs>
    <g id="Page-1" stroke="none" stroke-width="1" fill="none" fill-rule="evenodd">
        <path d="M15.6742169,22.614094 L11.732476,22.614094 L11.732476,20.9624161 C11.2378237,21.569578 10.6246701,22.0609601 9.89299689,22.4365772 C9.16132367,22.8121943 8.28023745,23 7.24971178,23 C6.21918612,23 5.26081163,22.7993309 4.37455956,22.3979866 C3.48830749,21.9966423 2.72057739,21.4460885 2.07134622,20.7463087 C1.42211506,20.0465289 0.914588781,19.2155529 0.548752171,18.2533557 C0.182915561,17.2911585 -1.42108547e-14,16.2492226 -1.42108547e-14,15.1275168 C-1.42108547e-14,14.0058109 0.182915561,12.9638751 0.548752171,12.0016779 C0.914588781,11.0394806 1.42211506,10.2085046 2.07134622,9.50872483 C2.72057739,8.80894505 3.48830749,8.25839127 4.37455956,7.85704698 C5.26081163,7.45570269 6.21918612,7.25503356 7.24971178,7.25503356 C8.28023745,7.25503356 9.16132367,7.44283929 9.89299689,7.81845638 C10.6246701,8.19407347 11.2378237,8.69060094 11.732476,9.30805369 L11.732476,7.65637584 L15.6742169,7.65637584 L15.6742169,22.614094 Z M6.39180346,11.3302013 C5.91260903,11.5463098 5.5055575,11.8395955 5.17063666,12.2100671 C4.83571582,12.5805388 4.57808827,13.0178946 4.39774627,13.5221477 C4.21740428,14.0264007 4.12723464,14.5615184 4.12723464,15.1275168 C4.12723464,15.703806 4.21740428,16.2414964 4.39774627,16.740604 C4.57808827,17.2397117 4.83571582,17.6744948 5.17063666,18.0449664 C5.5055575,18.4154381 5.91260903,18.7087238 6.39180346,18.9248322 C6.87099789,19.1409407 7.40428692,19.2489933 7.99168655,19.2489933 C8.56878092,19.2489933 9.09434113,19.146086 9.56838293,18.9402685 C10.0424247,18.7344509 10.4494763,18.4463106 10.7895497,18.0758389 C11.1296232,17.7053673 11.3924033,17.2680115 11.5778979,16.7637584 C11.7633925,16.2595053 11.8561385,15.7140969 11.8561385,15.1275168 C11.8561385,14.5409367 11.7633925,13.9955282 11.5778979,13.4912752 C11.3924033,12.9870221 11.1296232,12.5496663 10.7895497,12.1791946 C10.4494763,11.808723 10.0424247,11.5205827 9.56838293,11.3147651 C9.09434113,11.1089475 8.56878092,11.0060403 7.99168655,11.0060403 C7.40428692,11.0060403 6.87099789,11.1140929 6.39180346,11.3302013 Z M27.4899934,7.33993289 C27.8352195,7.39653272 28.2815819,7.4994402 28.5598238,7.60234899 L27.4899934,11.4775747 C27.246514,11.3919463 27.1061267,11.3173382 26.6630006,11.2298658 C26.2198746,11.1423933 25.7922129,11.0986577 25.3800026,11.0986577 C24.9162661,11.0986577 24.4911806,11.1706928 24.1047335,11.3147651 C23.7182864,11.4588374 23.3859468,11.6697973 23.1077049,11.947651 C22.829463,12.2255047 22.6130558,12.5753894 22.458477,12.9973154 C22.3038981,13.4192415 22.2266099,13.9080509 22.2266099,14.4637584 L22.2266099,22.614094 L18.1921221,22.614094 L18.1921221,7.65637584 L22.1029474,7.65637584 L22.1029474,9.29261745 C22.5769892,8.58254679 23.1669563,8.06543786 23.8728664,7.74127517 C24.5787764,7.41711247 25.3954558,7.25503356 26.3229289,7.25503356 C26.7557497,7.25503356 27.1447673,7.28333305 27.4899934,7.33993289 Z M38.7132254,11.3302013 C38.7132254,11.3302013 38.1077918,11.1166673 37.6904289,10.9983221 C37.273066,10.879977 36.8454042,10.7847878 36.4074308,10.7127517 C35.9694574,10.6407155 35.5392194,10.604698 35.1167039,10.604698 C34.3438096,10.604698 33.7667239,10.7281867 33.3854294,10.9751678 C33.0041349,11.2221489 32.8134906,11.5514521 32.8134906,11.9630872 C32.8134906,12.1791957 32.8778974,12.3592834 33.0067132,12.5033557 C33.1355289,12.647428 33.3081393,12.7657713 33.5245497,12.8583893 C33.7409601,12.9510072 33.9985876,13.0256149 34.2974401,13.0822148 C34.5962925,13.1388146 34.9157507,13.1928409 35.2558242,13.2442953 L36.5851956,13.4449664 C38.2134262,13.6919475 39.4629198,14.180757 40.333714,14.9114094 C41.2045082,15.6420618 41.6398987,16.6454075 41.6398987,17.9214765 C41.6398987,18.6932924 41.4853222,19.3930617 41.1761645,20.0208054 C40.8670068,20.648549 40.4187349,21.181094 39.8313352,21.6184564 C39.2439356,22.0558187 38.5225785,22.3954127 37.6672422,22.6372483 C36.8119059,22.879084 35.8432263,23 34.7611743,23 C34.2459115,23 33.7023174,22.9717005 33.1303756,22.9151007 C32.5584339,22.8585008 31.9813482,22.7633116 31.3991012,22.6295302 C30.8168542,22.4957488 30.2423447,22.3156611 29.6755556,22.0892617 C29.1087665,21.8628624 28.5832063,21.5798675 28.0988592,21.2402685 L29.6910134,18.1838926 C30.0104764,18.4000011 30.3505447,18.5955249 30.7112287,18.7704698 C31.0719127,18.9454147 31.4609303,19.0997756 31.8782932,19.233557 C32.2956561,19.3673385 32.743928,19.4702457 33.2231225,19.5422819 C33.7023169,19.614318 34.2253008,19.6503356 34.7920899,19.6503356 C35.7298683,19.6503356 36.4254627,19.5268469 36.878894,19.2798658 C37.3323253,19.0328847 37.5590375,18.6881454 37.5590375,18.2456376 C37.5590375,17.8854568 37.3632406,17.5973165 36.9716408,17.3812081 C36.5800411,17.1650996 35.9462773,16.9953026 35.0703305,16.8718121 L33.8491637,16.7020134 C30.3969027,16.228633 28.6707981,14.7158964 28.6707981,12.1637584 C28.6707981,11.3919424 28.8150695,10.7050366 29.1036167,10.1030201 C29.3921639,9.5010037 29.8095205,8.98904014 30.3556991,8.56711409 C30.9018777,8.14518805 31.5639805,7.8236029 32.3420274,7.60234899 C33.1200743,7.38109509 34.0037368,7.2704698 34.9930414,7.2704698 C35.5907463,7.2704698 36.1601032,7.29876929 36.7011292,7.35536913 C37.2421552,7.41196896 37.7677154,7.49944012 38.2778256,7.61778523 C38.7879358,7.73613035 39.6583297,8.02426832 39.6583297,8.02426832 L38.7132254,11.3302013 Z M52.8141761,11.2375839 L48.4241587,11.2375839 L48.4241587,22.614094 L44.3896709,22.614094 L44.3896709,11.2375839 L40.4409903,11.2298658 L41.4661749,7.65637584 L44.3896709,7.65637584 L44.3896709,5.80402685 C44.3896709,4.92930211 44.5056033,4.13434362 44.7374716,3.41912752 C44.9693399,2.70391141 45.3119845,2.09418597 45.7654158,1.58993289 C46.2188471,1.08567981 46.7778989,0.694632262 47.442588,0.416778523 C48.107277,0.138924785 48.8775834,0 49.7535302,0 C50.7737506,0 51.6522606,0.12863406 52.3890864,0.38590604 C53.1259122,0.64317802 53.2280448,0.747232345 53.6617788,1.01234385 L52.7006977,4.45868871 C52.3297084,4.25287113 51.9794567,4.09832284 51.5466359,3.95939597 C51.1138151,3.8204691 50.6603906,3.75100671 50.1863488,3.75100671 C49.0115496,3.75100671 48.4241587,4.450776 48.4241587,5.85033557 L48.4241587,7.65637584 L52.8141761,7.65637584 L52.8141761,11.2375839 Z M68.2393506,16.2389262 C68.2393506,17.4223773 68.0461299,18.4385864 67.6596828,19.2875839 C67.2732357,20.1365814 66.7554043,20.8363507 66.1061731,21.3869128 C65.456942,21.9374748 64.7046695,22.3439584 63.8493332,22.6063758 C62.9939969,22.8687933 62.0974531,23 61.1596747,23 C60.2218964,23 59.3253525,22.8687933 58.4700162,22.6063758 C57.6146799,22.3439584 56.8598311,21.9374748 56.2054474,21.3869128 C55.5510636,20.8363507 55.0306559,20.1365814 54.6442088,19.2875839 C54.2577617,18.4385864 54.064541,17.4223773 54.064541,16.2389262 L54.064541,7.65637584 L58.0990288,7.65637584 L58.0990288,15.8838926 C58.0990288,16.4807636 58.1763171,16.9927272 58.3308959,17.4197987 C58.4854748,17.8468701 58.6993056,18.1941821 58.9723949,18.461745 C59.2454842,18.7293078 59.5700949,18.9274043 59.9462368,19.0560403 C60.3223787,19.1846763 60.7268539,19.2489933 61.1596747,19.2489933 C61.5924955,19.2489933 61.9943945,19.1846763 62.3653837,19.0560403 C62.7363729,18.9274043 63.0609837,18.7293078 63.3392256,18.461745 C63.6174675,18.1941821 63.8338747,17.8468701 63.9884535,17.4197987 C64.1430324,16.9927272 64.2203206,16.4807636 64.2203206,15.8838926 L64.2203206,7.65637584 L68.2393506,7.65637584 L68.2393506,16.2389262 Z M82.1650234,11.2375839 L76.4165162,11.2375839 L76.4165162,16.7020134 C76.4165162,17.165103 76.4757705,17.5587232 76.594281,17.8828859 C76.7127914,18.2070486 76.8725205,18.4694621 77.073473,18.6701342 C77.2744255,18.8708064 77.5114428,19.0174492 77.7845321,19.1100671 C78.0576214,19.202685 78.3487406,19.2489933 78.6578983,19.2489933 C79.1422453,19.2489933 79.6291614,19.1486587 80.1186611,18.9479866 C80.6081608,18.7473144 81.059009,18.5234912 81.4712193,18.2765101 L82.9551688,21.4255034 C82.2956324,21.878302 81.5691227,22.2539135 80.7756179,22.552349 C79.9821132,22.8507845 79.054654,23 77.9932125,23 C76.1279611,23 74.7264672,22.4906091 73.7886889,21.4718121 C72.8509105,20.453015 72.3820284,18.9711507 72.3820284,17.0261745 L72.3820284,11.2375839 L69.4914183,11.2375839 L69.4914183,7.65637584 L72.3820284,7.65637584 L72.3820284,3.21073826 L76.4165162,3.21073826 L76.4165162,7.65637584 L82.1650234,7.65637584 L82.1650234,11.2375839 Z M97.5954574,16.2389262 C97.5954574,17.4223773 97.4022368,18.4385864 97.0157896,19.2875839 C96.6293425,20.1365814 96.1115111,20.8363507 95.46228,21.3869128 C94.8130488,21.9374748 94.0607764,22.3439584 93.2054401,22.6063758 C92.3501038,22.8687933 91.4535599,23 90.5157815,23 C89.5780032,23 88.6814593,22.8687933 87.826123,22.6063758 C86.9707867,22.3439584 86.215938,21.9374748 85.5615542,21.3869128 C84.9071704,20.8363507 84.3867627,20.1365814 84.0003156,19.2875839 C83.6138685,18.4385864 83.4206478,17.4223773 83.4206478,16.2389262 L83.4206478,7.65637584 L87.4551356,7.65637584 L87.4551356,15.8838926 C87.4551356,16.4807636 87.5324239,16.9927272 87.6870027,17.4197987 C87.8415816,17.8468701 88.0554124,18.1941821 88.3285017,18.461745 C88.601591,18.7293078 88.9262018,18.9274043 89.3023436,19.0560403 C89.6784855,19.1846763 90.0829608,19.2489933 90.5157815,19.2489933 C90.9486023,19.2489933 91.3505013,19.1846763 91.7214905,19.0560403 C92.0924798,18.9274043 92.4170905,18.7293078 92.6953324,18.461745 C92.9735743,18.1941821 93.1899815,17.8468701 93.3445603,17.4197987 C93.4991392,16.9927272 93.5764274,16.4807636 93.5764274,15.8838926 L93.5764274,7.65637584 L97.5954574,7.65637584 L97.5954574,16.2389262 Z M109.284117,7.33993289 C109.629344,7.39653272 110.075706,7.4994402 110.353948,7.60234899 L109.284117,11.4775747 C109.040638,11.3919463 108.900251,11.3173382 108.457125,11.2298658 C108.013999,11.1423933 107.586337,11.0986577 107.174127,11.0986577 C106.71039,11.0986577 106.285305,11.1706928 105.898858,11.3147651 C105.51241,11.4588374 105.180071,11.6697973 104.901829,11.947651 C104.623587,12.2255047 104.40718,12.5753894 104.252601,12.9973154 C104.098022,13.4192415 104.020734,13.9080509 104.020734,14.4637584 L104.020734,22.614094 L99.9862461,22.614094 L99.9862461,7.65637584 L103.897071,7.65637584 L103.897071,9.29261745 C104.371113,8.58254679 104.96108,8.06543786 105.66699,7.74127517 C106.372901,7.41711247 107.18958,7.25503356 108.117053,7.25503356 C108.549874,7.25503356 108.938891,7.28333305 109.284117,7.33993289 Z M126,22.614094 L122.058259,22.614094 L122.058259,20.9624161 C121.563607,21.569578 120.950453,22.0609601 120.21878,22.4365772 C119.487107,22.8121943 118.60602,23 117.575495,23 C116.544969,23 115.586595,22.7993309 114.700343,22.3979866 C113.814091,21.9966423 113.04636,21.4460885 112.397129,20.7463087 C111.747898,20.0465289 111.240372,19.2155529 110.874535,18.2533557 C110.508699,17.2911585 110.325783,16.2492226 110.325783,15.1275168 C110.325783,14.0058109 110.508699,12.9638751 110.874535,12.0016779 C111.240372,11.0394806 111.747898,10.2085046 112.397129,9.50872483 C113.04636,8.80894505 113.814091,8.25839127 114.700343,7.85704698 C115.586595,7.45570269 116.544969,7.25503356 117.575495,7.25503356 C118.60602,7.25503356 119.487107,7.44283929 120.21878,7.81845638 C120.950453,8.19407347 121.563607,8.69060094 122.058259,9.30805369 L122.058259,7.65637584 L126,7.65637584 L126,22.614094 Z M116.721072,11.3302013 C116.241877,11.5463098 115.834826,11.8395955 115.499905,12.2100671 C115.164984,12.5805388 114.907357,13.0178946 114.727015,13.5221477 C114.546673,14.0264007 114.456503,14.5615184 114.456503,15.1275168 C114.456503,15.703806 114.546673,16.2414964 114.727015,16.740604 C114.907357,17.2397117 115.164984,17.6744948 115.499905,18.0449664 C115.834826,18.4154381 116.241877,18.7087238 116.721072,18.9248322 C117.200266,19.1409407 117.733555,19.2489933 118.320955,19.2489933 C118.898049,19.2489933 119.42361,19.146086 119.897651,18.9402685 C120.371693,18.7344509 120.778745,18.4463106 121.118818,18.0758389 C121.458892,17.7053673 121.721672,17.2680115 121.907166,16.7637584 C122.092661,16.2595053 122.185407,15.7140969 122.185407,15.1275168 C122.185407,14.5409367 122.092661,13.9955282 121.907166,13.4912752 C121.721672,12.9870221 121.458892,12.5496663 121.118818,12.1791946 C120.778745,11.808723 120.371693,11.5205827 119.897651,11.3147651 C119.42361,11.1089475 118.898049,11.0060403 118.320955,11.0060403 C117.733555,11.0060403 117.200266,11.1140929 116.721072,11.3302013 Z" id="Ars-Futura-Logo" fill="#FF4A38"></path>
    </g>
</svg>