<svg enable-background="new 0 0 213.746 85.184" height="85.184" viewBox="0 0 213.746 85.184" width="213.746" xmlns="http://www.w3.org/2000/svg"><g fill="#ff4121"><path d="m37.242 38.285v1.061h-6.186l5.381-21.177h-4.577v-1.06h5.837l-5.382 21.176zm-1.601 28.729v1.06h-6.187l5.382-21.177h-4.577v-1.06h5.836l-5.382 21.177zm12.911-24.472 4.757-31.84h-32.078l-9.529 63.779h37.907l4.771-31.939z"/><path d="m69.839 41.124 1.658-.313c1.569-.358 1.793-.448 1.793-2.778v-23.888c0-2.331-.224-2.42-1.793-2.778l-1.658-.314v-.493h12.324c6.678 0 10.89 2.062 10.89 7.305 0 4.123-2.599 6.453-7.395 7.305v.09c5.96.493 9.008 2.913 9.008 7.619 0 5.736-4.392 8.739-11.518 8.739h-13.31v-.494zm11.875-16.134c3.944 0 6.229-2.062 6.229-6.767 0-4.84-1.792-6.632-6.229-6.632-1.254 0-2.554.134-3.316.358v13.041zm7.53 8.202c0-5.019-1.882-7.125-6.946-7.125h-3.899v11.113c0 3.002.627 3.406 4.616 3.406 4.167 0 6.229-2.465 6.229-7.394z"/><path d="m95.951 41.169 1.255-.313c1.523-.359 1.658-.538 1.658-2.286v-15.865c0-1.613-.224-1.837-1.748-2.554l-1.165-.672v-.359l7.529-.986.224.089c-.045.762-.179 2.331-.179 5.199v15.148c0 1.748.224 1.927 1.792 2.286l1.165.313v.448h-10.531zm5.064-31.595c1.568 0 2.734 1.076 2.734 2.645 0 1.568-1.166 2.644-2.734 2.644s-2.734-1.076-2.734-2.644c0-1.569 1.166-2.645 2.734-2.645z"/><path d="m108.343 40.676 13.579-20.75v-.179h-4.93c-3.361 0-3.72.224-4.93 2.151-.672.941-1.165 2.151-2.017 3.765h-.448l.313-6.901h17.344v.807l-13.624 20.884v.179h4.526c4.706 0 5.199-.538 6.274-2.375.717-1.21 1.344-2.509 2.017-4.078h.448l-.493 7.439h-18.061v-.942z"/><path d="m129.059 40.676 13.579-20.75v-.179h-4.93c-3.361 0-3.72.224-4.93 2.151-.672.941-1.165 2.151-2.017 3.765h-.448l.313-6.901h17.344v.807l-13.624 20.884v.179h4.526c4.706 0 5.199-.538 6.274-2.375.717-1.21 1.344-2.509 2.017-4.078h.448l-.493 7.439h-18.061v-.942z"/><path d="m149.887 30.144c0-7.932 5.512-12.145 11.249-12.145 6.274 0 11.249 3.899 11.249 11.921 0 7.888-5.512 12.145-11.249 12.145-6.275 0-11.249-3.899-11.249-11.921zm17.478.359c0-8.246-2.151-11.562-6.319-11.562-3.989 0-6.14 3.137-6.14 10.71 0 8.246 2.106 11.518 6.408 11.518 4.124 0 6.051-3.272 6.051-10.666z"/><path d="m173.543 41.169 1.255-.313c1.523-.359 1.658-.538 1.658-2.286v-15.91c0-1.658-.269-1.837-1.703-2.555l-1.121-.627v-.358l7.215-.986.269.089-.045 2.823h.045c2.151-1.434 5.467-3.047 8.335-3.047 4.302 0 5.916 1.927 5.916 6.005v14.566c0 1.748.09 1.927 1.658 2.286l1.255.313v.448h-10.487v-.448l1.255-.269c1.434-.359 1.613-.493 1.613-2.331v-13.758c0-3.182-.852-4.212-3.496-4.212-2.733 0-4.75.717-6.05 1.21v16.761c0 1.837.224 1.972 1.658 2.331l1.299.269v.448h-10.531v-.449z"/></g></svg>