<?xml version="1.0" encoding="UTF-8" standalone="no"?>
<svg
   xmlns:dc="http://purl.org/dc/elements/1.1/"
   xmlns:cc="http://creativecommons.org/ns#"
   xmlns:rdf="http://www.w3.org/1999/02/22-rdf-syntax-ns#"
   xmlns:svg="http://www.w3.org/2000/svg"
   xmlns="http://www.w3.org/2000/svg"
   viewBox="0 0 238.44305 83.796661"
   height="83.796661"
   width="238.44305"
   xml:space="preserve"
   id="svg815"
   version="1.1"><metadata
     id="metadata821"><rdf:RDF><cc:Work
         rdf:about=""><dc:format>image/svg+xml</dc:format><dc:type
           rdf:resource="http://purl.org/dc/dcmitype/StillImage" /><dc:title></dc:title></cc:Work></rdf:RDF></metadata><defs
     id="defs819"><clipPath
       id="clipPath831"
       clipPathUnits="userSpaceOnUse"><path
         id="path829"
         d="M 0,100.5 H 230.5 V 0 H 0 Z" /></clipPath></defs><g
     transform="matrix(1.3333333,0,0,-1.3333333,-34.445466,108.8312)"
     id="g823"><g
       id="g825"><g
         clip-path="url(#clipPath831)"
         id="g827"><g
           transform="translate(47.3708,19.877)"
           id="g833"><path
             id="path835"
             style="fill:#22396c;fill-opacity:1;fill-rule:nonzero;stroke:none"
             d="m 0,0 h 1.749 c 0.599,0 1.159,0.075 1.682,0.226 0.523,0.15 0.979,0.38 1.364,0.685 0.386,0.311 0.69,0.703 0.912,1.181 0.223,0.472 0.335,1.037 0.335,1.686 0,0.653 -0.112,1.218 -0.335,1.69 C 5.485,5.945 5.181,6.339 4.795,6.648 4.41,6.954 3.954,7.184 3.431,7.334 2.908,7.485 2.348,7.561 1.749,7.561 H 0 Z M -0.849,8.33 H 1.967 C 2.758,8.33 3.423,8.234 3.971,8.041 4.52,7.849 4.975,7.602 5.344,7.301 5.707,7.004 5.992,6.67 6.201,6.305 6.41,5.941 6.565,5.595 6.665,5.26 6.762,4.925 6.824,4.623 6.85,4.352 6.879,4.083 6.892,3.891 6.892,3.778 6.892,3.669 6.879,3.477 6.85,3.209 6.824,2.937 6.762,2.636 6.665,2.301 6.565,1.966 6.41,1.619 6.201,1.255 5.992,0.891 5.707,0.556 5.344,0.259 4.975,-0.043 4.52,-0.289 3.971,-0.482 3.423,-0.674 2.758,-0.77 1.967,-0.77 h -2.816 z" /></g><g
           transform="translate(47.4704,19.9766)"
           id="g837"><path
             id="path839"
             style="fill:#22396b;fill-opacity:1;fill-rule:nonzero;stroke:none"
             d="M 0,0 H 1.649 C 2.236,0 2.792,0.075 3.304,0.222 3.81,0.367 4.258,0.593 4.633,0.89 5.006,1.19 5.304,1.575 5.517,2.034 5.732,2.493 5.843,3.046 5.843,3.679 5.843,4.314 5.732,4.868 5.517,5.325 5.303,5.786 5.006,6.172 4.633,6.471 4.259,6.768 3.812,6.992 3.304,7.139 2.793,7.286 2.237,7.361 1.649,7.361 H 0 Z m 1.649,-0.199 h -1.848 v 7.76 H 1.649 C 2.256,7.561 2.831,7.483 3.358,7.33 3.893,7.177 4.363,6.94 4.758,6.627 5.155,6.309 5.472,5.898 5.698,5.41 5.927,4.927 6.042,4.344 6.042,3.679 6.042,3.017 5.927,2.435 5.698,1.949 5.472,1.463 5.156,1.054 4.758,0.733 4.361,0.419 3.891,0.183 3.358,0.03 2.83,-0.122 2.255,-0.199 1.649,-0.199 M -0.849,-0.77 h 2.716 c 0.774,0 1.437,0.095 1.971,0.283 0.54,0.19 0.979,0.426 1.343,0.723 0.347,0.285 0.629,0.611 0.834,0.969 0.21,0.365 0.358,0.7 0.455,1.024 0.097,0.337 0.156,0.629 0.18,0.89 0.037,0.33 0.042,0.492 0.042,0.56 0,0.118 -0.014,0.317 -0.042,0.562 C 6.626,4.504 6.566,4.795 6.47,5.133 6.373,5.456 6.225,5.791 6.015,6.155 5.811,6.513 5.529,6.839 5.181,7.124 4.82,7.418 4.368,7.661 3.838,7.847 3.305,8.035 2.642,8.131 1.867,8.131 H -0.849 Z M 1.867,-0.969 H -1.048 V 8.33 H 1.867 C 2.676,8.33 3.343,8.234 3.904,8.036 4.456,7.843 4.929,7.588 5.308,7.278 5.675,6.979 5.972,6.634 6.188,6.255 6.405,5.877 6.561,5.528 6.661,5.188 6.763,4.838 6.824,4.535 6.85,4.262 6.877,4.008 6.892,3.806 6.892,3.679 6.892,3.556 6.877,3.35 6.85,3.099 6.824,2.827 6.763,2.523 6.661,2.174 6.561,1.834 6.405,1.484 6.188,1.105 5.971,0.726 5.674,0.382 5.308,0.082 4.926,-0.23 4.467,-0.479 3.904,-0.677 3.349,-0.871 2.663,-0.969 1.867,-0.969" /></g><path
           id="path841"
           style="fill:#22396c;fill-opacity:1;fill-rule:nonzero;stroke:none"
           d="m 59.667,28.207 h 0.849 v -9.101 h -0.849 z" /><path
           id="path843"
           style="fill:#22396b;fill-opacity:1;fill-rule:nonzero;stroke:none"
           d="m 59.766,19.206 h 0.649 v 8.901 h -0.649 z m 0.849,-0.199 h -1.048 v 9.3 h 1.048 z" /><g
           transform="translate(74.0241,19.6963)"
           id="g845"><path
             id="path847"
             style="fill:#22396c;fill-opacity:1;fill-rule:nonzero;stroke:none"
             d="m 0,0 c -0.531,-0.297 -1.084,-0.511 -1.652,-0.636 -0.57,-0.121 -1.152,-0.184 -1.742,-0.184 -0.694,0 -1.33,0.117 -1.907,0.352 -0.578,0.234 -1.075,0.565 -1.486,0.99 -0.409,0.423 -0.732,0.93 -0.962,1.516 -0.234,0.586 -0.347,1.231 -0.347,1.92 0,0.695 0.113,1.335 0.347,1.916 0.23,0.582 0.553,1.089 0.962,1.512 0.411,0.426 0.908,0.757 1.486,0.996 0.577,0.242 1.213,0.358 1.907,0.358 1.357,0 2.449,-0.418 3.277,-1.259 L -0.732,6.842 C -0.87,7 -1.038,7.155 -1.238,7.298 -1.443,7.436 -1.66,7.557 -1.896,7.657 -2.13,7.753 -2.377,7.833 -2.636,7.888 -2.892,7.942 -3.146,7.971 -3.394,7.971 -3.983,7.971 -4.52,7.866 -4.991,7.661 -5.469,7.457 -5.874,7.172 -6.209,6.812 -6.544,6.452 -6.799,6.029 -6.979,5.54 -7.159,5.055 -7.251,4.528 -7.251,3.958 c 0,-0.564 0.092,-1.092 0.272,-1.577 0.18,-0.489 0.435,-0.911 0.77,-1.272 0.335,-0.365 0.74,-0.644 1.218,-0.85 0.471,-0.204 1.008,-0.309 1.597,-0.309 0.491,0 0.946,0.038 1.377,0.117 0.427,0.076 0.817,0.217 1.168,0.423 V 3.548 H -3.033 V 4.322 H 0 Z" /></g><g
           transform="translate(70.6305,28.3369)"
           id="g849"><path
             id="path851"
             style="fill:#22396b;fill-opacity:1;fill-rule:nonzero;stroke:none"
             d="m 0,0 c -0.686,0 -1.314,-0.118 -1.868,-0.351 -0.568,-0.235 -1.057,-0.562 -1.453,-0.973 -0.4,-0.412 -0.716,-0.91 -0.942,-1.48 -0.225,-0.558 -0.34,-1.19 -0.34,-1.879 0,-0.686 0.115,-1.319 0.34,-1.882 0.225,-0.572 0.541,-1.071 0.942,-1.484 0.399,-0.414 0.887,-0.739 1.451,-0.967 0.562,-0.229 1.191,-0.345 1.87,-0.345 0.572,0 1.151,0.061 1.721,0.182 0.535,0.118 1.063,0.319 1.573,0.597 v 4.164 H 0.46 V -4.993 H 2.645 V -8.208 L 2.596,-8.236 C 2.233,-8.448 1.83,-8.595 1.395,-8.672 0.959,-8.752 0.502,-8.79 0,-8.79 c -0.601,0 -1.151,0.106 -1.638,0.316 -0.5,0.216 -0.91,0.502 -1.251,0.875 -0.344,0.371 -0.603,0.798 -0.791,1.305 -0.184,0.497 -0.277,1.039 -0.277,1.611 0,0.576 0.093,1.12 0.277,1.618 0.185,0.5 0.451,0.939 0.791,1.305 0.347,0.372 0.769,0.666 1.252,0.872 0.485,0.211 1.035,0.318 1.637,0.318 0.252,0 0.515,-0.029 0.778,-0.085 0.248,-0.052 0.503,-0.132 0.758,-0.236 0.233,-0.099 0.453,-0.22 0.675,-0.369 0.168,-0.119 0.318,-0.251 0.452,-0.392 l 0.473,0.491 C 2.341,-0.391 1.286,0 0,0 m 0,-9.561 c -0.705,0 -1.359,0.122 -1.945,0.36 -0.589,0.238 -1.101,0.579 -1.521,1.013 -0.418,0.432 -0.748,0.954 -0.982,1.549 -0.236,0.586 -0.354,1.244 -0.354,1.956 0,0.714 0.119,1.371 0.354,1.954 0.235,0.593 0.565,1.113 0.982,1.543 0.416,0.431 0.928,0.775 1.521,1.02 0.578,0.242 1.233,0.365 1.945,0.365 1.379,0 2.506,-0.433 3.348,-1.288 L 3.416,-1.158 2.657,-1.947 2.586,-1.864 C 2.445,-1.703 2.281,-1.555 2.098,-1.424 1.889,-1.284 1.679,-1.169 1.459,-1.075 1.217,-0.977 0.973,-0.9 0.737,-0.851 0.486,-0.797 0.238,-0.77 0,-0.77 c -0.574,0 -1.098,-0.101 -1.558,-0.301 -0.459,-0.197 -0.856,-0.474 -1.184,-0.825 -0.326,-0.351 -0.571,-0.756 -0.75,-1.239 -0.176,-0.475 -0.266,-0.996 -0.266,-1.548 0,-0.547 0.09,-1.067 0.266,-1.542 0.178,-0.482 0.423,-0.886 0.75,-1.238 0.323,-0.352 0.71,-0.622 1.184,-0.827 0.46,-0.199 0.985,-0.301 1.558,-0.301 0.49,0 0.935,0.038 1.359,0.116 0.393,0.07 0.757,0.198 1.086,0.382 v 2.901 H 0.261 v 0.973 h 3.232 v -4.48 L 3.442,-8.728 C 2.9,-9.03 2.335,-9.248 1.763,-9.374 1.18,-9.498 0.587,-9.561 0,-9.561" /></g><path
           id="path853"
           style="fill:#22396c;fill-opacity:1;fill-rule:nonzero;stroke:none"
           d="m 80.022,28.207 h 0.85 v -9.101 h -0.85 z" /><path
           id="path855"
           style="fill:#22396b;fill-opacity:1;fill-rule:nonzero;stroke:none"
           d="m 80.122,19.206 h 0.65 v 8.901 h -0.65 z m 0.849,-0.199 h -1.049 v 9.3 h 1.049 z" /><g
           transform="translate(88.8903,27.4375)"
           id="g857"><path
             id="path859"
             style="fill:#22396c;fill-opacity:1;fill-rule:nonzero;stroke:none"
             d="M 0,0 H -3.109 V 0.77 H 3.958 V 0 H 0.85 V -8.331 H 0 Z" /></g><g
           transform="translate(88.9899,19.2061)"
           id="g861"><path
             id="path863"
             style="fill:#22396b;fill-opacity:1;fill-rule:nonzero;stroke:none"
             d="m 0,0 h 0.65 v 8.331 h 3.109 v 0.57 H -3.109 V 8.331 H 0 Z m 0.85,-0.199 h -1.049 v 8.331 h -3.11 V 9.101 H 3.958 V 8.132 H 0.85 Z" /></g><g
           transform="translate(100.069,27.2822)"
           id="g865"><path
             id="path867"
             style="fill:#22396c;fill-opacity:1;fill-rule:nonzero;stroke:none"
             d="m 0,0 -2.122,-4.987 h 4.176 z m -0.397,0.925 h 0.874 l 3.828,-9.1 h -0.95 l -0.992,2.418 h -4.82 l -1.028,-2.418 h -0.888 z" /></g><g
           transform="translate(98.0983,22.3945)"
           id="g869"><path
             id="path871"
             style="fill:#22396b;fill-opacity:1;fill-rule:nonzero;stroke:none"
             d="M 0,0 H 3.875 L 1.969,4.629 Z m 4.174,-0.199 h -4.477 l 0.06,0.138 2.216,5.207 z m 1.22,-2.989 H 6.125 L 2.381,5.713 H 1.639 L -2.25,-3.188 h 0.669 l 1.028,2.418 H 4.401 Z M 6.426,-3.387 H 5.259 L 4.267,-0.969 H -0.42 l -1.028,-2.418 h -1.107 l 0.061,0.14 4.002,9.159 h 1.006 z" /></g><g
           transform="translate(109.1882,28.207)"
           id="g873"><path
             id="path875"
             style="fill:#22396c;fill-opacity:1;fill-rule:nonzero;stroke:none"
             d="m 0,0 h 0.849 v -8.331 h 4.239 v -0.77 H 0 Z" /></g><g
           transform="translate(109.2878,19.2061)"
           id="g877"><path
             id="path879"
             style="fill:#22396b;fill-opacity:1;fill-rule:nonzero;stroke:none"
             d="M 0,0 H 4.889 V 0.57 H 0.649 V 8.901 H 0 Z m 5.088,-0.199 h -5.287 v 9.3 H 0.849 V 0.77 h 4.239 z" /></g><path
           id="path881"
           style="fill:#22396c;fill-opacity:1;fill-rule:nonzero;stroke:none"
           d="m 133.452,28.207 h 0.849 v -9.101 h -0.849 z" /><path
           id="path883"
           style="fill:#22396b;fill-opacity:1;fill-rule:nonzero;stroke:none"
           d="m 133.551,19.206 h 0.649 v 8.901 h -0.649 z m 0.849,-0.199 h -1.048 v 9.3 h 1.048 z" /><g
           transform="translate(147.8102,19.6963)"
           id="g885"><path
             id="path887"
             style="fill:#22396c;fill-opacity:1;fill-rule:nonzero;stroke:none"
             d="m 0,0 c -0.531,-0.297 -1.084,-0.511 -1.652,-0.636 -0.57,-0.121 -1.152,-0.184 -1.742,-0.184 -0.695,0 -1.331,0.117 -1.908,0.352 -0.577,0.234 -1.075,0.565 -1.485,0.99 -0.409,0.423 -0.733,0.93 -0.962,1.516 -0.235,0.586 -0.348,1.231 -0.348,1.92 0,0.695 0.113,1.335 0.348,1.916 0.229,0.582 0.553,1.089 0.962,1.512 0.41,0.426 0.908,0.757 1.485,0.996 0.577,0.242 1.213,0.358 1.908,0.358 1.356,0 2.449,-0.418 3.277,-1.259 L -0.732,6.842 C -0.871,7 -1.038,7.155 -1.238,7.298 -1.444,7.436 -1.661,7.557 -1.896,7.657 -2.131,7.753 -2.377,7.833 -2.637,7.888 -2.892,7.942 -3.146,7.971 -3.394,7.971 -3.983,7.971 -4.52,7.866 -4.992,7.661 -5.469,7.457 -5.875,7.172 -6.209,6.812 -6.544,6.452 -6.8,6.029 -6.979,5.54 -7.159,5.055 -7.252,4.528 -7.252,3.958 c 0,-0.564 0.093,-1.092 0.273,-1.577 0.179,-0.489 0.435,-0.911 0.77,-1.272 0.334,-0.365 0.74,-0.644 1.217,-0.85 0.472,-0.204 1.009,-0.309 1.598,-0.309 0.491,0 0.946,0.038 1.376,0.117 0.428,0.076 0.817,0.217 1.168,0.423 V 3.548 H -3.034 V 4.322 H 0 Z" /></g><g
           transform="translate(144.4167,28.3369)"
           id="g889"><path
             id="path891"
             style="fill:#22396b;fill-opacity:1;fill-rule:nonzero;stroke:none"
             d="m 0,0 c -0.687,0 -1.315,-0.118 -1.869,-0.351 -0.569,-0.236 -1.058,-0.563 -1.452,-0.973 -0.402,-0.414 -0.718,-0.912 -0.942,-1.48 -0.225,-0.557 -0.341,-1.19 -0.341,-1.879 0,-0.686 0.116,-1.32 0.341,-1.882 0.224,-0.57 0.54,-1.069 0.942,-1.484 0.397,-0.413 0.885,-0.738 1.45,-0.967 0.562,-0.229 1.191,-0.345 1.871,-0.345 0.572,0 1.151,0.061 1.721,0.182 0.535,0.118 1.063,0.319 1.573,0.597 v 4.164 H 0.459 V -4.993 H 2.644 V -8.208 L 2.595,-8.236 C 2.232,-8.449 1.828,-8.596 1.394,-8.672 0.959,-8.752 0.503,-8.79 0,-8.79 c -0.601,0 -1.151,0.106 -1.639,0.316 -0.501,0.217 -0.91,0.503 -1.251,0.875 -0.34,0.368 -0.607,0.807 -0.79,1.305 -0.184,0.499 -0.278,1.041 -0.278,1.611 0,0.574 0.094,1.118 0.278,1.618 0.184,0.498 0.45,0.937 0.791,1.305 0.345,0.371 0.766,0.665 1.251,0.872 0.486,0.211 1.036,0.318 1.638,0.318 0.253,0 0.515,-0.029 0.777,-0.085 C 1.026,-0.708 1.274,-0.784 1.536,-0.891 1.768,-0.99 1.988,-1.11 2.211,-1.26 2.377,-1.378 2.527,-1.509 2.663,-1.652 l 0.473,0.491 C 2.341,-0.391 1.286,0 0,0 m 0,-9.561 c -0.705,0 -1.36,0.122 -1.946,0.36 -0.59,0.239 -1.102,0.58 -1.52,1.013 -0.419,0.434 -0.75,0.956 -0.982,1.549 -0.236,0.585 -0.355,1.243 -0.355,1.956 0,0.715 0.119,1.372 0.355,1.954 0.233,0.591 0.563,1.111 0.982,1.543 0.415,0.43 0.926,0.774 1.52,1.02 0.578,0.242 1.233,0.365 1.946,0.365 1.379,0 2.506,-0.433 3.348,-1.288 L 3.416,-1.158 2.657,-1.946 2.586,-1.864 c -0.144,0.163 -0.308,0.311 -0.488,0.44 -0.21,0.14 -0.42,0.255 -0.639,0.349 C 1.211,-0.975 0.974,-0.9 0.736,-0.851 0.486,-0.797 0.238,-0.77 0,-0.77 c -0.573,0 -1.098,-0.101 -1.559,-0.301 -0.46,-0.197 -0.857,-0.475 -1.183,-0.825 -0.323,-0.348 -0.576,-0.765 -0.75,-1.239 -0.177,-0.477 -0.267,-0.998 -0.267,-1.548 0,-0.546 0.09,-1.065 0.267,-1.542 0.177,-0.48 0.422,-0.884 0.75,-1.238 0.321,-0.351 0.708,-0.622 1.183,-0.827 0.461,-0.199 0.986,-0.301 1.559,-0.301 0.49,0 0.935,0.038 1.358,0.116 0.392,0.069 0.757,0.198 1.086,0.382 v 2.901 H 0.26 v 0.973 h 3.233 v -4.48 L 3.442,-8.728 C 2.9,-9.03 2.335,-9.248 1.763,-9.374 1.18,-9.498 0.587,-9.561 0,-9.561" /></g><g
           transform="translate(153.8083,28.207)"
           id="g893"><path
             id="path895"
             style="fill:#22396c;fill-opacity:1;fill-rule:nonzero;stroke:none"
             d="m 0,0 h 0.849 v -8.331 h 4.239 v -0.77 H 0 Z" /></g><g
           transform="translate(153.9079,19.2061)"
           id="g897"><path
             id="path899"
             style="fill:#22396b;fill-opacity:1;fill-rule:nonzero;stroke:none"
             d="M 0,0 H 4.889 V 0.57 H 0.649 V 8.901 H 0 Z m 5.088,-0.199 h -5.287 v 9.3 H 0.849 V 0.77 h 4.239 z" /></g><g
           transform="translate(163.9948,23.6543)"
           id="g901"><path
             id="path903"
             style="fill:#22396c;fill-opacity:1;fill-rule:nonzero;stroke:none"
             d="m 0,0 c 0,-0.564 0.091,-1.092 0.271,-1.577 0.18,-0.489 0.435,-0.911 0.77,-1.272 0.335,-0.364 0.741,-0.644 1.218,-0.85 0.472,-0.204 1.009,-0.309 1.598,-0.309 0.59,0 1.125,0.105 1.599,0.309 0.477,0.206 0.883,0.486 1.217,0.85 0.335,0.361 0.591,0.783 0.769,1.272 C 7.623,-1.092 7.715,-0.564 7.715,0 7.715,0.57 7.623,1.097 7.442,1.582 7.264,2.071 7.008,2.494 6.673,2.854 6.339,3.214 5.933,3.499 5.456,3.703 4.982,3.908 4.447,4.013 3.857,4.013 3.268,4.013 2.731,3.908 2.259,3.703 1.782,3.499 1.376,3.214 1.041,2.854 0.706,2.494 0.451,2.071 0.271,1.582 0.091,1.097 0,0.57 0,0 m -0.846,0 c 0,0.695 0.114,1.335 0.348,1.916 0.23,0.582 0.552,1.089 0.962,1.512 0.41,0.426 0.908,0.757 1.485,0.996 0.578,0.242 1.214,0.358 1.908,0.358 0.695,0 1.331,-0.116 1.909,-0.358 C 6.343,4.185 6.841,3.854 7.251,3.428 7.661,3.005 7.983,2.498 8.214,1.916 8.447,1.335 8.561,0.695 8.561,0 8.561,-0.689 8.447,-1.334 8.214,-1.92 7.983,-2.506 7.661,-3.013 7.251,-3.436 6.841,-3.861 6.343,-4.192 5.766,-4.426 5.188,-4.661 4.552,-4.778 3.857,-4.778 c -0.694,0 -1.33,0.117 -1.908,0.352 -0.577,0.234 -1.075,0.565 -1.485,0.99 -0.41,0.423 -0.732,0.93 -0.962,1.516 -0.234,0.586 -0.348,1.231 -0.348,1.92" /></g><g
           transform="translate(167.8522,27.5674)"
           id="g905"><path
             id="path907"
             style="fill:#22396b;fill-opacity:1;fill-rule:nonzero;stroke:none"
             d="m 0,0 c -0.573,0 -1.098,-0.102 -1.559,-0.302 -0.459,-0.196 -0.857,-0.473 -1.184,-0.825 -0.327,-0.352 -0.572,-0.757 -0.749,-1.238 -0.176,-0.474 -0.266,-0.994 -0.266,-1.548 0,-0.551 0.09,-1.069 0.266,-1.542 0.177,-0.482 0.422,-0.887 0.749,-1.238 0.323,-0.353 0.711,-0.622 1.184,-0.828 0.461,-0.199 0.986,-0.3 1.559,-0.3 0.572,0 1.097,0.101 1.559,0.3 0.467,0.203 0.865,0.481 1.183,0.827 0.324,0.349 0.576,0.765 0.749,1.238 0.177,0.476 0.267,0.994 0.267,1.543 0,0.552 -0.09,1.072 -0.267,1.547 -0.173,0.474 -0.425,0.89 -0.749,1.239 C 2.416,-0.776 2.019,-0.498 1.56,-0.302 1.097,-0.102 0.572,0 0,0 m 0,-8.021 c -0.601,0 -1.151,0.107 -1.639,0.317 -0.492,0.213 -0.913,0.508 -1.251,0.875 -0.34,0.366 -0.606,0.806 -0.79,1.305 -0.184,0.494 -0.277,1.037 -0.277,1.611 0,0.578 0.093,1.122 0.277,1.617 0.184,0.5 0.45,0.94 0.79,1.306 0.347,0.371 0.768,0.665 1.252,0.872 0.486,0.211 1.036,0.317 1.638,0.317 0.601,0 1.151,-0.106 1.639,-0.317 0.484,-0.207 0.905,-0.501 1.25,-0.872 0.341,-0.368 0.608,-0.808 0.79,-1.307 0.184,-0.496 0.278,-1.04 0.278,-1.616 0,-0.573 -0.094,-1.115 -0.278,-1.612 C 3.497,-6.022 3.231,-6.461 2.889,-6.83 2.553,-7.196 2.132,-7.491 1.639,-7.704 1.15,-7.914 0.6,-8.021 0,-8.021 M 0,0.77 c -0.686,0 -1.314,-0.119 -1.869,-0.351 -0.569,-0.236 -1.058,-0.564 -1.452,-0.974 -0.399,-0.411 -0.715,-0.908 -0.942,-1.479 -0.225,-0.561 -0.341,-1.193 -0.341,-1.879 0,-0.685 0.116,-1.318 0.341,-1.883 0.226,-0.573 0.542,-1.071 0.942,-1.483 0.397,-0.413 0.885,-0.739 1.45,-0.967 0.563,-0.23 1.192,-0.346 1.871,-0.346 0.68,0 1.309,0.116 1.87,0.346 0.566,0.228 1.054,0.554 1.451,0.967 0.401,0.413 0.718,0.911 0.943,1.482 0.225,0.567 0.34,1.2 0.34,1.884 0,0.685 -0.115,1.318 -0.34,1.879 -0.226,0.57 -0.543,1.067 -0.943,1.479 C 2.927,-0.145 2.438,0.183 1.87,0.418 1.315,0.651 0.687,0.77 0,0.77 m 0,-9.561 c -0.704,0 -1.359,0.121 -1.946,0.359 -0.59,0.24 -1.102,0.58 -1.52,1.014 -0.417,0.43 -0.748,0.951 -0.982,1.549 -0.236,0.588 -0.355,1.246 -0.355,1.956 0,0.712 0.119,1.369 0.355,1.953 0.235,0.595 0.566,1.115 0.983,1.544 0.414,0.43 0.925,0.773 1.519,1.02 C -1.367,0.846 -0.712,0.969 0,0.969 0.713,0.969 1.368,0.846 1.947,0.603 2.54,0.357 3.051,0.014 3.466,-0.416 3.883,-0.847 4.214,-1.366 4.449,-1.96 4.684,-2.544 4.803,-3.201 4.803,-3.913 4.803,-4.622 4.685,-5.28 4.449,-5.87 4.215,-6.466 3.884,-6.986 3.465,-7.418 3.048,-7.852 2.536,-8.192 1.945,-8.432 1.36,-8.67 0.705,-8.791 0,-8.791" /></g><g
           transform="translate(178.2223,23.6543)"
           id="g909"><path
             id="path911"
             style="fill:#22396c;fill-opacity:1;fill-rule:nonzero;stroke:none"
             d="m 0,0 c 0,-0.564 0.092,-1.092 0.272,-1.577 0.18,-0.489 0.435,-0.911 0.77,-1.272 0.335,-0.364 0.74,-0.644 1.218,-0.85 0.472,-0.204 1.009,-0.309 1.598,-0.309 0.59,0 1.125,0.105 1.599,0.309 0.477,0.206 0.882,0.486 1.217,0.85 0.335,0.361 0.59,0.783 0.769,1.272 C 7.624,-1.092 7.716,-0.564 7.716,0 7.716,0.57 7.624,1.097 7.443,1.582 7.264,2.071 7.009,2.494 6.674,2.854 6.339,3.214 5.934,3.499 5.457,3.703 4.983,3.908 4.448,4.013 3.858,4.013 3.269,4.013 2.732,3.908 2.26,3.703 1.782,3.499 1.377,3.214 1.042,2.854 0.707,2.494 0.452,2.071 0.272,1.582 0.092,1.097 0,0.57 0,0 m -0.845,0 c 0,0.695 0.114,1.335 0.348,1.916 0.229,0.582 0.552,1.089 0.962,1.512 0.41,0.426 0.908,0.757 1.485,0.996 0.578,0.242 1.214,0.358 1.908,0.358 0.695,0 1.331,-0.116 1.908,-0.358 C 6.344,4.185 6.842,3.854 7.252,3.428 7.661,3.005 7.984,2.498 8.214,1.916 8.448,1.335 8.562,0.695 8.562,0 8.562,-0.689 8.448,-1.334 8.214,-1.92 7.984,-2.506 7.661,-3.013 7.252,-3.436 6.842,-3.861 6.344,-4.192 5.766,-4.426 5.189,-4.661 4.553,-4.778 3.858,-4.778 c -0.694,0 -1.33,0.117 -1.908,0.352 -0.577,0.234 -1.075,0.565 -1.485,0.99 -0.41,0.423 -0.733,0.93 -0.962,1.516 -0.234,0.586 -0.348,1.231 -0.348,1.92" /></g><g
           transform="translate(182.0807,27.5674)"
           id="g913"><path
             id="path915"
             style="fill:#22396b;fill-opacity:1;fill-rule:nonzero;stroke:none"
             d="m 0,0 c -0.573,0 -1.098,-0.102 -1.559,-0.302 -0.459,-0.196 -0.856,-0.473 -1.184,-0.825 -0.327,-0.352 -0.572,-0.757 -0.749,-1.238 -0.177,-0.476 -0.267,-0.996 -0.267,-1.548 0,-0.549 0.09,-1.067 0.267,-1.542 0.177,-0.482 0.422,-0.887 0.749,-1.238 0.324,-0.353 0.711,-0.623 1.184,-0.828 0.461,-0.199 0.986,-0.3 1.559,-0.3 0.572,0 1.097,0.101 1.559,0.3 0.472,0.205 0.859,0.475 1.183,0.827 0.327,0.352 0.572,0.757 0.749,1.238 0.177,0.476 0.267,0.994 0.267,1.543 0,0.552 -0.09,1.072 -0.267,1.547 C 3.314,-1.884 3.069,-1.479 2.742,-1.127 2.415,-0.775 2.017,-0.498 1.56,-0.302 1.097,-0.102 0.572,0 0,0 m 0,-8.021 c -0.601,0 -1.151,0.107 -1.639,0.317 -0.499,0.215 -0.908,0.501 -1.251,0.875 -0.34,0.366 -0.606,0.806 -0.79,1.305 -0.184,0.496 -0.278,1.038 -0.278,1.611 0,0.576 0.094,1.12 0.278,1.617 0.184,0.5 0.45,0.94 0.79,1.306 0.347,0.372 0.769,0.666 1.252,0.872 0.486,0.211 1.036,0.317 1.638,0.317 0.601,0 1.151,-0.106 1.639,-0.317 0.482,-0.207 0.903,-0.5 1.25,-0.872 0.34,-0.366 0.606,-0.806 0.79,-1.307 0.184,-0.496 0.278,-1.04 0.278,-1.616 0,-0.573 -0.094,-1.115 -0.278,-1.612 C 3.495,-6.023 3.229,-6.463 2.889,-6.83 2.551,-7.197 2.13,-7.491 1.639,-7.704 1.15,-7.914 0.6,-8.021 0,-8.021 M 0,0.77 c -0.686,0 -1.314,-0.119 -1.869,-0.351 -0.569,-0.236 -1.058,-0.564 -1.452,-0.974 -0.401,-0.412 -0.717,-0.91 -0.942,-1.479 -0.225,-0.561 -0.341,-1.193 -0.341,-1.879 0,-0.685 0.116,-1.318 0.341,-1.883 0.224,-0.571 0.54,-1.07 0.942,-1.483 0.397,-0.413 0.885,-0.739 1.45,-0.967 0.563,-0.23 1.192,-0.346 1.871,-0.346 0.68,0 1.309,0.116 1.869,0.346 0.566,0.228 1.054,0.554 1.452,0.967 0.402,0.415 0.718,0.914 0.942,1.482 0.225,0.566 0.341,1.199 0.341,1.884 0,0.686 -0.116,1.318 -0.341,1.879 -0.224,0.567 -0.54,1.065 -0.942,1.479 C 2.926,-0.145 2.438,0.183 1.869,0.418 1.315,0.651 0.687,0.77 0,0.77 m 0,-9.561 c -0.704,0 -1.359,0.121 -1.946,0.359 -0.59,0.24 -1.102,0.58 -1.52,1.014 -0.419,0.432 -0.749,0.953 -0.982,1.549 -0.236,0.588 -0.355,1.246 -0.355,1.956 0,0.712 0.119,1.369 0.355,1.953 0.233,0.594 0.564,1.113 0.983,1.544 0.414,0.43 0.925,0.773 1.519,1.02 C -1.367,0.846 -0.712,0.969 0,0.969 0.713,0.969 1.368,0.846 1.946,0.603 2.54,0.357 3.051,0.015 3.466,-0.416 3.885,-0.849 4.215,-1.368 4.448,-1.96 4.684,-2.544 4.803,-3.201 4.803,-3.913 4.803,-4.623 4.684,-5.281 4.448,-5.87 4.216,-6.463 3.885,-6.984 3.466,-7.418 3.048,-7.852 2.536,-8.193 1.944,-8.432 1.36,-8.67 0.706,-8.791 0,-8.791" /></g><g
           transform="translate(148.5944,46.7334)"
           id="g917"><path
             id="path919"
             style="fill:#22396b;fill-opacity:1;fill-rule:nonzero;stroke:none"
             d="M 0,0 H -0.73 C -1.707,0.005 -2.546,0.262 -3.247,0.784 -3.953,1.309 -4.306,1.95 -4.306,2.705 v 27.022 c 0.003,0.049 0.015,0.097 0.015,0.148 v 2.915 c 0,1.154 -0.945,2.1 -2.101,2.1 -1.155,0 -2.1,-0.946 -2.1,-2.1 V 29.875 29.874 2.705 c 0,-0.951 0.204,-1.846 0.613,-2.684 0.413,-0.838 0.972,-1.571 1.677,-2.193 0.46,-0.407 0.988,-0.738 1.547,-1.034 0.299,-0.158 0.593,-0.32 0.919,-0.446 0.906,-0.35 1.888,-0.523 2.934,-0.534 H -0.709 0 c 1.151,0 2.093,0.943 2.093,2.093 C 2.093,-0.941 1.151,0 0,0" /></g><g
           transform="translate(171.6003,52)"
           id="g921"><path
             id="path923"
             style="fill:#22396b;fill-opacity:1;fill-rule:nonzero;stroke:none"
             d="m 0,0 c -0.441,-1.051 -1.059,-1.961 -1.846,-2.735 -0.789,-0.77 -1.708,-1.388 -2.761,-1.844 -1.051,-0.462 -2.166,-0.691 -3.349,-0.691 -1.183,0 -2.303,0.229 -3.353,0.691 -1.05,0.456 -1.968,1.074 -2.759,1.844 -0.786,0.774 -1.404,1.684 -1.849,2.735 -0.44,1.051 -0.665,2.169 -0.665,3.353 0,1.182 0.225,2.297 0.665,3.352 0.445,1.051 1.063,1.969 1.849,2.759 0.791,0.786 1.709,1.404 2.759,1.849 1.05,0.44 2.17,0.661 3.353,0.661 1.183,0 2.298,-0.221 3.349,-0.661 1.053,-0.445 1.972,-1.063 2.761,-1.849 C -1.059,8.674 -0.441,7.756 0,6.705 0.444,5.65 0.665,4.535 0.665,3.353 0.665,2.169 0.444,1.051 0,0 m 1.135,12.468 c -1.167,1.151 -2.531,2.061 -4.09,2.734 -1.561,0.674 -3.23,1.011 -5.001,1.011 -1.773,0 -3.433,-0.337 -4.977,-1.011 -1.544,-0.673 -2.899,-1.583 -4.066,-2.734 -1.167,-1.152 -2.085,-2.511 -2.759,-4.091 -0.674,-1.576 -1.011,-3.252 -1.011,-5.024 0,-1.772 0.337,-3.441 1.011,-5.001 0.674,-1.56 1.592,-2.915 2.759,-4.066 1.167,-1.151 2.522,-2.061 4.066,-2.735 1.544,-0.674 3.204,-1.01 4.977,-1.01 1.771,0 3.44,0.336 5.001,1.01 1.559,0.674 2.923,1.584 4.09,2.735 1.167,1.151 2.085,2.506 2.759,4.066 0.673,1.56 1.01,3.229 1.01,5.001 0,1.772 -0.337,3.448 -1.01,5.024 -0.674,1.58 -1.592,2.939 -2.759,4.091" /></g><g
           transform="translate(199.7624,52)"
           id="g925"><path
             id="path927"
             style="fill:#22396b;fill-opacity:1;fill-rule:nonzero;stroke:none"
             d="m 0,0 c -0.441,-1.051 -1.059,-1.961 -1.846,-2.735 -0.789,-0.77 -1.708,-1.388 -2.761,-1.844 -1.051,-0.462 -2.166,-0.691 -3.349,-0.691 -1.183,0 -2.302,0.229 -3.353,0.691 -1.05,0.456 -1.968,1.074 -2.758,1.844 -0.787,0.774 -1.405,1.684 -1.85,2.735 -0.44,1.051 -0.665,2.169 -0.665,3.353 0,1.182 0.225,2.297 0.665,3.352 0.445,1.051 1.063,1.969 1.85,2.759 0.79,0.786 1.708,1.404 2.758,1.849 1.051,0.44 2.17,0.661 3.353,0.661 1.183,0 2.298,-0.221 3.349,-0.661 1.053,-0.445 1.972,-1.063 2.761,-1.849 C -1.059,8.674 -0.441,7.756 0,6.705 0.444,5.65 0.665,4.535 0.665,3.353 0.665,2.169 0.444,1.051 0,0 m 3.894,8.377 c -0.674,1.58 -1.593,2.939 -2.759,4.091 -1.167,1.151 -2.531,2.061 -4.091,2.734 -1.56,0.674 -3.229,1.011 -5,1.011 -1.773,0 -3.433,-0.337 -4.977,-1.011 -1.544,-0.673 -2.899,-1.583 -4.066,-2.734 -1.167,-1.152 -2.086,-2.511 -2.759,-4.091 -0.675,-1.576 -1.011,-3.252 -1.011,-5.024 0,-1.772 0.336,-3.441 1.011,-5.001 0.673,-1.56 1.592,-2.915 2.759,-4.066 1.167,-1.151 2.522,-2.061 4.066,-2.735 1.544,-0.674 3.204,-1.01 4.977,-1.01 1.771,0 3.44,0.336 5,1.01 1.56,0.674 2.924,1.584 4.091,2.735 1.166,1.151 2.085,2.506 2.759,4.066 0.673,1.56 1.01,3.229 1.01,5.001 0,1.772 -0.337,3.448 -1.01,5.024" /></g><g
           transform="translate(46.6051,52.0522)"
           id="g929"><path
             id="path931"
             style="fill:#22396b;fill-opacity:1;fill-rule:nonzero;stroke:none"
             d="m 0,0 c -0.444,-1.055 -1.062,-1.965 -1.849,-2.735 -0.79,-0.774 -1.708,-1.388 -2.757,-1.848 -1.055,-0.462 -2.17,-0.69 -3.353,-0.69 -1.184,0 -2.299,0.228 -3.354,0.69 -1.049,0.46 -1.96,1.074 -2.734,1.848 -0.77,0.77 -1.388,1.68 -1.845,2.735 -0.461,1.051 -0.69,2.166 -0.69,3.349 0,1.182 0.229,2.301 0.69,3.352 0.457,1.051 1.075,1.969 1.845,2.758 0.774,0.791 1.685,1.404 2.734,1.849 1.055,0.442 2.17,0.666 3.354,0.666 1.183,0 2.298,-0.224 3.353,-0.666 1.049,-0.445 1.967,-1.058 2.757,-1.849 C -1.062,8.67 -0.444,7.752 0,6.701 0.441,5.65 0.662,4.531 0.662,3.349 0.662,2.166 0.441,1.051 0,0 m 4.852,27.47 c 0,1.156 -0.946,2.101 -2.101,2.101 -1.155,0 -2.101,-0.945 -2.101,-2.101 v -1.044 c 0,-0.04 0.009,-0.076 0.012,-0.114 V 12.908 c -1.147,1.019 -2.454,1.825 -3.914,2.414 -1.463,0.594 -3.031,0.887 -4.707,0.887 -1.773,0 -3.433,-0.337 -4.977,-1.007 -1.543,-0.674 -2.9,-1.596 -4.066,-2.763 -1.167,-1.163 -2.086,-2.526 -2.759,-4.086 -0.675,-1.564 -1.01,-3.228 -1.01,-5.004 0,-1.773 0.335,-3.442 1.01,-5.001 0.673,-1.56 1.592,-2.916 2.759,-4.066 1.166,-1.152 2.523,-2.062 4.066,-2.736 1.544,-0.669 3.204,-1.01 4.977,-1.01 1.772,0 3.44,0.341 5,1.01 1.56,0.674 2.915,1.584 4.066,2.736 1.152,1.15 2.062,2.506 2.735,4.066 0.674,1.559 1.011,3.228 1.011,5.001 v 21.88 H 4.852 Z" /></g><g
           transform="translate(59.0456,56.8359)"
           id="g933"><path
             id="path935"
             style="fill:#22396b;fill-opacity:1;fill-rule:nonzero;stroke:none"
             d="M 0,0 C 0.229,0.918 0.605,1.781 1.13,2.587 1.655,3.393 2.281,4.083 3.003,4.656 3.725,5.229 4.538,5.683 5.445,6.012 6.348,6.34 7.307,6.505 8.324,6.505 9.343,6.505 10.306,6.34 11.208,6.012 12.114,5.683 12.925,5.229 13.65,4.656 14.372,4.083 14.985,3.393 15.495,2.587 16.004,1.781 16.389,0.918 16.653,0 Z m 20.127,2.907 c -0.675,1.577 -1.584,2.94 -2.735,4.091 -1.147,1.147 -2.503,2.062 -4.063,2.735 -1.559,0.669 -3.227,1.011 -5.005,1.011 -1.772,0 -3.44,-0.342 -5,-1.011 C 1.764,9.06 0.4,8.145 -0.767,6.998 -1.934,5.847 -2.852,4.484 -3.524,2.907 -4.199,1.332 -4.536,-0.345 -4.536,-2.121 c 0,-1.218 0.171,-2.378 0.488,-3.487 -0.005,0.002 -0.011,0.004 -0.016,0.007 0.012,-0.037 0.035,-0.085 0.046,-0.124 0.14,-0.466 0.297,-0.925 0.494,-1.372 0.187,-0.433 0.441,-0.816 0.668,-1.217 0.592,-1.097 1.273,-2.115 2.132,-2.973 1.147,-1.148 2.503,-2.063 4.063,-2.735 1.559,-0.67 3.227,-1.011 5.005,-1.011 1.771,0 3.437,0.271 4.967,1.007 0.363,0.174 0.689,0.364 1.043,0.551 0.14,0.076 0.727,0.395 0.727,0.395 0.352,0.218 0.681,0.461 1.007,0.708 l 1.09,0.765 c 0.945,0.665 1.174,1.981 0.509,2.927 -0.664,0.945 -1.981,1.175 -2.926,0.51 l -1.536,-1.08 c -0.002,0.002 -0.005,0.004 -0.005,0.004 -0.613,-0.423 -1.267,-0.79 -1.997,-1.056 -0.225,-0.081 -0.461,-0.121 -0.693,-0.183 -0.933,-0.162 -1.811,-0.258 -2.206,-0.258 -1.017,0 -1.976,0.165 -2.879,0.494 C 4.538,-9.92 3.725,-9.459 3.003,-8.87 2.281,-8.281 1.655,-7.591 1.13,-6.801 0.605,-6.011 0.229,-5.141 0,-4.19 l 19.382,-0.128 c 0,0 0.401,0.006 1.029,0.634 0.444,0.445 0.632,1.638 0.693,2.013 0.069,0.43 0.037,0.741 0.037,0.882 0,1.001 -0.341,2.121 -1.014,3.696" /></g><g
           transform="translate(131.5446,51.9038)"
           id="g937"><path
             id="path939"
             style="fill:#22396b;fill-opacity:1;fill-rule:nonzero;stroke:none"
             d="m 0,0 c -0.445,-1.051 -1.055,-1.965 -1.824,-2.735 -0.775,-0.773 -1.685,-1.388 -2.736,-1.848 -1.05,-0.461 -2.185,-0.69 -3.4,-0.69 -1.184,0 -2.298,0.229 -3.349,0.69 -1.054,0.46 -1.964,1.075 -2.734,1.848 -0.774,0.77 -1.392,1.684 -1.849,2.735 -0.461,1.051 -0.69,2.169 -0.69,3.349 0,1.182 0.229,2.301 0.69,3.352 0.457,1.051 1.075,1.973 1.849,2.758 0.77,0.791 1.68,1.404 2.734,1.849 1.051,0.445 2.165,0.666 3.349,0.666 1.215,0 2.35,-0.221 3.4,-0.666 1.051,-0.445 1.961,-1.058 2.736,-1.849 C -1.055,8.674 -0.445,7.752 0,6.701 0.441,5.65 0.666,4.531 0.666,3.349 0.666,2.169 0.441,1.051 0,0 m 1.131,12.468 c -1.167,1.146 -2.53,2.061 -4.091,2.734 -1.56,0.67 -3.224,1.011 -5,1.011 -1.772,0 -3.433,-0.341 -4.977,-1.011 -1.543,-0.673 -2.899,-1.588 -4.066,-2.734 -1.167,-1.152 -2.085,-2.515 -2.759,-4.091 -0.674,-1.576 -1.01,-3.252 -1.01,-5.028 0,-1.773 0.336,-3.433 1.01,-4.977 0.674,-1.544 1.592,-2.9 2.759,-4.062 1.167,-1.167 2.523,-2.09 4.066,-2.764 1.544,-0.669 3.205,-1.005 4.977,-1.005 0.79,0 1.52,-0.149 2.193,-0.446 0.674,-0.297 1.272,-0.706 1.796,-1.231 0.526,-0.526 0.94,-1.127 1.236,-1.8 0.293,-0.674 0.441,-1.403 0.441,-2.193 0,-0.788 -0.172,-1.517 -0.517,-2.191 -0.345,-0.673 -0.81,-1.274 -1.404,-1.8 -0.589,-0.525 -1.291,-0.934 -2.094,-1.231 -0.805,-0.297 -1.651,-0.445 -2.537,-0.445 v -0.014 c -0.054,0.004 -0.105,0.017 -0.161,0.017 h -2.915 c -1.155,0 -2.1,-0.946 -2.1,-2.102 0,-1.154 0.945,-2.1 2.1,-2.1 h 2.915 c 0.056,0 0.107,0.012 0.161,0.016 v -0.004 c 1.48,0 2.867,0.261 4.162,0.786 1.3,0.53 2.443,1.235 3.425,2.121 0.986,0.887 1.756,1.929 2.318,3.128 0.557,1.198 0.838,2.475 0.838,3.819 0,1.447 -0.313,2.819 -0.938,4.114 -0.622,1.299 -1.412,2.405 -2.366,3.328 1.94,1.114 3.476,2.643 4.607,4.583 1.135,1.937 1.7,4.09 1.7,6.453 0,1.776 -0.337,3.452 -1.01,5.028 -0.674,1.576 -1.592,2.939 -2.759,4.091" /></g><g
           transform="translate(87.2262,57.1104)"
           id="g941"><path
             id="path943"
             style="fill:#22396b;fill-opacity:1;fill-rule:nonzero;stroke:none"
             d="m 0,0 c 0.229,0.918 0.605,1.781 1.13,2.586 0.526,0.807 1.151,1.497 1.873,2.07 0.723,0.573 1.536,1.027 2.442,1.356 0.903,0.328 1.862,0.493 2.88,0.493 1.018,0 1.981,-0.165 2.883,-0.493 C 12.115,5.683 12.925,5.229 13.65,4.656 14.372,4.083 14.985,3.393 15.495,2.586 16.004,1.781 16.389,0.918 16.653,0 Z M 20.127,2.907 C 19.452,4.484 18.543,5.847 17.392,6.998 16.245,8.145 14.89,9.06 13.329,9.732 11.77,10.402 10.102,10.744 8.325,10.744 6.552,10.744 4.884,10.402 3.324,9.732 1.765,9.06 0.4,8.145 -0.767,6.998 -1.934,5.847 -2.852,4.484 -3.525,2.907 c -0.674,-1.575 -1.01,-3.252 -1.01,-5.029 0,-1.217 0.171,-2.377 0.488,-3.486 -0.006,0.002 -0.012,0.004 -0.017,0.007 0.012,-0.038 0.035,-0.085 0.046,-0.124 0.14,-0.466 0.298,-0.925 0.493,-1.372 0.188,-0.433 0.442,-0.816 0.669,-1.218 0.592,-1.096 1.274,-2.114 2.133,-2.972 1.146,-1.148 2.501,-2.063 4.062,-2.735 1.559,-0.67 3.227,-1.011 5.005,-1.011 1.771,0 3.437,0.271 4.967,1.007 0.364,0.174 0.689,0.364 1.043,0.551 0.141,0.076 0.727,0.395 0.727,0.395 0.352,0.218 0.681,0.461 1.007,0.708 l 1.09,0.765 c 0.945,0.665 1.174,1.981 0.509,2.927 -0.663,0.945 -1.981,1.175 -2.926,0.51 l -1.536,-1.08 c -0.002,0.002 -0.005,0.004 -0.007,0.006 -0.612,-0.425 -1.265,-0.792 -1.995,-1.058 -0.225,-0.081 -0.461,-0.121 -0.693,-0.183 -0.933,-0.162 -1.811,-0.258 -2.205,-0.258 -1.018,0 -1.977,0.165 -2.88,0.494 -0.906,0.329 -1.719,0.79 -2.442,1.379 -0.722,0.589 -1.347,1.279 -1.873,2.069 -0.525,0.79 -0.901,1.66 -1.13,2.61 l 19.383,-0.127 c 0,0 0.4,0.006 1.028,0.634 0.445,0.445 0.632,1.638 0.693,2.013 0.069,0.43 0.037,0.741 0.037,0.882 0,1.001 -0.341,2.121 -1.014,3.696" /></g></g></g></g></svg>