<svg xmlns="http://www.w3.org/2000/svg" width="277.284" height="58.209" viewBox="0 0 277.284 58.209">
  <defs>
    <clipPath id="a">
      <path d="M0 113.39h283.46V0H0v113.39z"/>
    </clipPath>
  </defs>
  <path fill="#9793c4" d="M220.498 9.565L208.338 25l14.35 23.645h-9.477l-9.99-17.198-3.52 4.444v12.76h-8.88V9.57h8.89v18.36l14.35-18.36h6.45z"/>
  <g clip-path="url(#a)" transform="matrix(1.25 0 0 -1.25 -38.618 99.341)">
    <path fill="#9793c4" d="M214.915 51.76c.077-1.932.188-3.398.337-4.396.146-1 .542-1.903 1.186-2.71.645-.808 1.638-1.214 2.982-1.214 1.877 0 3.06.714 3.553 2.137.49 1.427.736 3.444.736 6.052 0 2.56-.25 4.59-.75 6.08-.5 1.49-1.68 2.23-3.55 2.23-1.93-.06-3.16-.8-3.7-2.24-.54-1.44-.81-3.42-.81-5.96M219.34 63c2.59 0 4.67-.42 6.23-1.26 1.55-.84 2.67-2.086 3.35-3.734.67-1.65 1.01-3.74 1.01-6.275 0-3.96-.85-6.86-2.52-8.7-1.69-1.84-4.43-2.76-8.22-2.76-3.61.04-6.26.96-7.97 2.77s-2.56 4.69-2.56 8.63c.06 7.55 3.62 11.33 10.67 11.33m27.13-17.7v13.55c0 .13-.34.36-1.015.67-.675.32-1.615.52-2.816.61-2.21 0-3.69-.67-4.44-2-.76-1.34-1.13-3.26-1.13-5.77 0-2 .18-3.642.53-4.94.35-1.29.95-2.27 1.79-2.93.84-.66 1.97-.99 3.37-.99 1.02.097 1.9.38 2.62.86.72.47 1.08.79 1.08.958m6.24 26.5V40.55h-6.24v1.35c-.23-.24-.75-.546-1.57-.917-.82-.37-1.98-.555-3.47-.555-1.71.02-3.26.32-4.63.892-1.37.572-2.51 1.73-3.41 3.463-.9 1.737-1.35 4.242-1.35 7.518.05 4.36.89 7.24 2.5 8.63 1.61 1.4 3.66 2.1 6.15 2.1 2.34 0 4.27-.37 5.78-1.13v9.93h6.24z"/>
    <path fill="#6c66ac" d="M89.577 56.247c-.023 2.467-.213 4.537-.574 6.207-.36 1.67-1.08 3-2.16 3.987-1.083.99-2.65 1.49-4.702 1.49h-4.56V44.46h5.11c2.7 0 4.52.983 5.47 2.95.95 1.963 1.43 4.91 1.43 8.842M84.3 71.826c4.02 0 6.865-1.37 8.55-4.11 1.68-2.74 2.52-6.56 2.52-11.463 0-3.526-.374-6.444-1.12-8.753-.75-2.31-1.95-4.043-3.606-5.2-1.653-1.156-3.812-1.736-6.477-1.736H70.47v31.26h13.82zm19.3-20.062c.075-1.93.187-3.396.334-4.394.15-1 .546-1.903 1.19-2.71.644-.808 1.637-1.214 2.98-1.214 1.878 0 3.063.715 3.555 2.138.49 1.427.73 3.444.73 6.052 0 2.564-.25 4.592-.75 6.083-.5 1.49-1.68 2.23-3.55 2.23-1.92-.06-3.15-.8-3.7-2.24-.54-1.44-.81-3.43-.81-5.96m4.44 11.26c2.6 0 4.67-.42 6.23-1.27 1.55-.84 2.67-2.09 3.35-3.74.67-1.65 1.01-3.74 1.01-6.28 0-3.96-.85-6.867-2.53-8.707-1.68-1.84-4.42-2.76-8.22-2.76-3.61.03-6.26.95-7.97 2.764-1.71 1.81-2.57 4.69-2.57 8.633.08 7.56 3.64 11.34 10.69 11.34M127 45.308c0-.14.36-.455 1.07-.94.72-.486 1.57-.78 2.55-.88 2.107 0 3.594.725 4.46 2.17.87 1.448 1.3 3.68 1.3 6.69 0 2.51-.37 4.437-1.12 5.775-.75 1.33-2.223 2-4.43 2-1.222-.084-2.165-.29-2.83-.602-.67-.32-1-.542-1-.673V45.33zm-6.31 26.49H127v-9.9c1.507.754 3.43 1.13 5.765 1.13 1.58 0 2.98-.24 4.21-.72s2.265-1.52 3.11-3.12c.846-1.6 1.27-3.894 1.27-6.885 0-3.22-.446-5.704-1.34-7.45-.897-1.75-2.03-2.916-3.4-3.504-1.37-.59-2.902-.9-4.593-.92-1.48 0-2.63.18-3.445.55-.814.37-1.34.68-1.58.92v-1.34h-6.3v31.26zm32.94-27.77c2.05.556 3.08 1.45 3.08 2.686v5.09c-.01-.03-.084-.187-.23-.466-.14-.28-.46-.55-.962-.83-.51-.27-1.27-.47-2.3-.584-1.747-.24-3.08-.63-3.996-1.17-.92-.54-1.38-1.467-1.38-2.778.14-1.52 1.35-2.28 3.634-2.28.69 0 1.404.107 2.147.326m3.08-3.49v2.35c-.177-.4-.76-.91-1.76-1.5-1-.6-2.695-.9-5.088-.9-2.04.07-3.74.6-5.09 1.57-1.36.97-2.05 2.51-2.08 4.6 0 2.25.8 3.94 2.41 5.06 1.61 1.13 4.026 1.81 7.247 2.05 1.484.12 2.63.5 3.43 1.14.802.64 1.203 1.36 1.203 2.16 0 .81-.37 1.5-1.107 2.08-.74.58-1.735.87-2.99.87-2.588 0-4.6-.48-6.035-1.43-1.435-.95-2.375-1.75-2.825-2.39l.933 4.44c0 .08.34.31 1.03.71.68.395 1.64.76 2.86 1.11 1.23.342 2.68.52 4.38.53 3.45 0 5.95-.585 7.49-1.76 1.54-1.17 2.31-2.71 2.31-4.61V40.56h-6.31zm8.92.01v22.34h6.306v-2.75c.02.02.15.18.38.47s.58.6 1.05.91c.47.32 1.11.62 1.91.9.86.36 1.96.54 3.29.54 1.03 0 1.67-.04 1.935-.13l.54-3.22c-.766.185-1.48.278-2.148.278-1.45 0-2.66-.27-3.62-.81-1.08-.53-1.91-1.262-2.49-2.19-.58-.93-.87-1.78-.87-2.554V40.56h-6.31z"/>
    <path fill="#9793c4" d="M40.208 79.473V70.16l13.97-13.97-13.97-13.97v-9.314L63.49 56.19 40.21 79.472z"/>
    <path fill="#6c66ac" d="M40.208 46.877v4.654l-4.657 4.66 4.66 4.66v4.66L30.9 56.2l9.318-9.312z"/>
  </g>
</svg>
