<?xml version="1.0" encoding="UTF-8" standalone="no"?>
<!-- Created with Inkscape (http://www.inkscape.org/) -->

<svg
   xmlns:dc="http://purl.org/dc/elements/1.1/"
   xmlns:cc="http://creativecommons.org/ns#"
   xmlns:rdf="http://www.w3.org/1999/02/22-rdf-syntax-ns#"
   xmlns:svg="http://www.w3.org/2000/svg"
   xmlns="http://www.w3.org/2000/svg"
   xmlns:sodipodi="http://sodipodi.sourceforge.net/DTD/sodipodi-0.dtd"
   xmlns:inkscape="http://www.inkscape.org/namespaces/inkscape"
   version="1.1"
   id="svg3699"
   xml:space="preserve"
   width="396.56"
   height="168.42667"
   viewBox="0 0 396.56 168.42667"
   sodipodi:docname="ecx.io-Logo.svg"
   inkscape:version="0.92.1 r15371"><metadata
     id="metadata3705"><rdf:RDF><cc:Work
         rdf:about=""><dc:format>image/svg+xml</dc:format><dc:type
           rdf:resource="http://purl.org/dc/dcmitype/StillImage" /><dc:title></dc:title></cc:Work></rdf:RDF></metadata><defs
     id="defs3703" /><sodipodi:namedview
     pagecolor="#ffffff"
     bordercolor="#666666"
     borderopacity="1"
     objecttolerance="10"
     gridtolerance="10"
     guidetolerance="10"
     inkscape:pageopacity="0"
     inkscape:pageshadow="2"
     inkscape:window-width="2560"
     inkscape:window-height="1418"
     id="namedview3701"
     showgrid="false"
     inkscape:zoom="6.049526"
     inkscape:cx="198.28"
     inkscape:cy="84.213333"
     inkscape:window-x="0"
     inkscape:window-y="0"
     inkscape:window-maximized="0"
     inkscape:current-layer="g3707" /><g
     id="g3707"
     inkscape:groupmode="layer"
     inkscape:label="ink_ext_XXXXXX"
     transform="matrix(1.3333333,0,0,-1.3333333,0,168.42667)"><g
       id="g3709"
       transform="scale(0.1)"><path
         d="m 399.633,756.125 c 5.246,0 7.863,2.617 7.863,7.859 0,19.657 -2.617,34.071 -6.551,47.168 -14.414,43.239 -53.718,69.446 -106.132,69.446 -52.411,0 -91.715,-26.207 -106.129,-69.446 -3.934,-13.097 -6.555,-27.511 -6.555,-47.168 0,-5.242 2.621,-7.859 7.859,-7.859 z M 22.2773,538.621 C 9.17578,577.926 0,623.785 0,689.301 0,756.125 7.86328,801.984 20.9688,841.289 57.6563,955.285 158.547,1020.8 293.5,1020.8 c 140.199,0 237.164,-66.823 273.848,-178.202 13.105,-41.926 20.968,-87.785 20.968,-195.227 0,-7.863 -5.246,-13.105 -14.414,-13.105 H 189.988 c -5.238,0 -7.859,-2.618 -7.859,-7.864 1.312,-13.093 3.93,-24.89 7.859,-35.371 17.039,-55.039 65.516,-83.855 131.032,-83.855 62.89,0 108.75,22.273 145.441,56.336 6.547,5.246 13.102,6.554 18.344,0 l 86.472,-81.239 c 6.555,-5.234 6.555,-13.097 1.317,-18.339 -60.274,-64.2 -153.309,-106.133 -269.918,-106.133 -144.129,0 -243.7112,66.824 -280.3987,180.82"
         style="fill:#f47216;fill-opacity:1;fill-rule:nonzero;stroke:none"
         id="path3711"
         inkscape:connector-curvature="0" /><path
         d="m 651.172,537.313 c -13.106,37.996 -19.656,85.164 -19.656,151.988 0,66.824 6.55,113.992 19.656,151.988 38,117.926 140.195,179.511 273.844,179.511 108.754,0 193.924,-49.792 239.774,-119.237 3.94,-6.551 3.94,-13.102 -2.61,-18.344 l -114,-74.688 c -7.86,-5.238 -14.41,-3.929 -19.65,2.621 -27.52,38 -55.034,55.036 -100.893,55.036 -48.481,0 -83.86,-22.274 -98.274,-68.133 -9.168,-26.207 -11.789,-56.344 -11.789,-108.754 0,-52.41 2.621,-82.547 11.789,-108.758 14.414,-45.859 49.793,-68.133 98.274,-68.133 45.859,0 73.373,17.039 100.893,55.039 5.24,6.543 11.79,7.86 19.65,2.617 l 114,-74.687 c 6.55,-5.246 6.55,-11.789 2.61,-18.34 -45.85,-69.445 -131.02,-119.238 -239.774,-119.238 -133.649,0 -235.844,61.582 -273.844,179.512"
         style="fill:#f47216;fill-opacity:1;fill-rule:nonzero;stroke:none"
         id="path3713"
         inkscape:connector-curvature="0" /><path
         d="m 1615.5,372.215 c -9.17,0 -14.42,3.933 -19.65,11.797 l -113.99,172.949 h -1.31 L 1367.86,384.012 c -6.55,-7.864 -11.8,-11.797 -20.97,-11.797 h -169.02 c -10.48,0 -13.1,6.551 -9.17,13.105 l 213.57,315.77 -197.85,292.191 c -3.93,6.555 -1.31,13.099 9.17,13.099 h 170.34 c 9.17,0 15.72,-2.61 22.27,-11.786 l 95.66,-149.371 h 1.3 l 96.97,149.371 c 6.54,7.856 11.78,11.786 20.95,11.786 h 169.03 c 11.79,0 14.41,-6.544 10.49,-13.099 L 1582.74,701.09 1796.32,385.32 c 3.92,-6.554 1.31,-13.105 -10.48,-13.105 H 1615.5"
         style="fill:#f47216;fill-opacity:1;fill-rule:nonzero;stroke:none"
         id="path3715"
         inkscape:connector-curvature="0" /><path
         d="m 1839.53,542.547 c 0,7.859 5.25,13.105 13.11,13.105 h 155.91 c 7.88,0 13.11,-5.246 13.11,-13.105 V 385.32 c 0,-7.863 -5.23,-13.105 -13.11,-13.105 h -155.91 c -7.86,0 -13.11,5.242 -13.11,13.105 v 157.227"
         style="fill:#f47216;fill-opacity:1;fill-rule:nonzero;stroke:none"
         id="path3717"
         inkscape:connector-curvature="0" /><path
         d="m 2136.93,372.215 c -7.86,0 -13.1,5.242 -13.1,13.105 v 607.961 c 0,7.859 5.24,13.099 13.1,13.099 h 157.23 c 7.86,0 13.11,-5.24 13.11,-13.099 V 385.32 c 0,-7.863 -5.25,-13.105 -13.11,-13.105 z m 0,735.065 c -7.86,0 -13.1,5.24 -13.1,13.1 v 129.71 c 0,7.87 5.24,13.11 13.1,13.11 h 157.23 c 7.86,0 13.11,-5.24 13.11,-13.11 v -129.71 c 0,-7.86 -5.25,-13.1 -13.11,-13.1 h -157.23"
         style="fill:#f47216;fill-opacity:1;fill-rule:nonzero;stroke:none"
         id="path3719"
         inkscape:connector-curvature="0" /><path
         d="m 2776.32,580.543 c 9.18,28.828 11.8,55.039 11.8,108.758 0,53.719 -2.62,79.926 -11.8,108.754 -14.41,44.543 -49.79,68.133 -98.26,68.133 -48.49,0 -83.86,-23.59 -98.27,-68.133 -9.18,-28.828 -11.8,-55.035 -11.8,-108.754 0,-53.719 2.62,-79.93 11.8,-108.758 14.41,-44.551 49.78,-68.133 98.27,-68.133 48.47,0 83.85,23.582 98.26,68.133 z m -373.43,-44.551 c -14.4,45.871 -20.96,90.41 -20.96,153.309 0,62.894 6.56,107.437 20.96,153.297 36.69,115.308 141.51,178.202 275.17,178.202 133.64,0 238.46,-62.894 275.15,-178.202 14.42,-45.86 20.96,-90.403 20.96,-153.297 0,-62.899 -6.54,-107.438 -20.96,-153.309 -36.69,-115.301 -141.51,-178.191 -275.15,-178.191 -133.66,0 -238.48,62.89 -275.17,178.191"
         style="fill:#f47216;fill-opacity:1;fill-rule:nonzero;stroke:none"
         id="path3721"
         inkscape:connector-curvature="0" /><path
         d="m 1245.46,107.969 c -15.05,-11.1682 -58.78,-0.231 -58.78,-29.1604 0,-12.7578 10.93,-17.3086 22.78,-17.3086 25.52,0 36,15.7109 36,26.6602 z m 31.43,-60.3596 c -3.42,-2.0586 -8.2,-3.1875 -13.9,-3.1875 -10.02,0 -16.4,5.4492 -16.4,18.207 -10.7,-12.7578 -25.06,-18.207 -41.46,-18.207 -21.41,0 -38.95,9.3281 -38.95,33.0195 0,26.6486 19.82,32.5786 39.86,36.2186 21.18,4.32 39.64,2.5 39.64,17.309 0,17.101 -14.13,19.601 -26.2,19.601 -16.4,0 -28.47,-5.031 -29.38,-22.332 h -19.37 c 1.15,29.16 23.47,39.41 49.89,39.41 21.18,0 44.19,-4.777 44.19,-32.339 V 74.7109 c 0,-9.1093 0,-13.2109 6.15,-13.2109 1.83,0 3.88,0.4492 5.93,1.1289 V 47.6094"
         style="fill:#363a3e;fill-opacity:1;fill-rule:nonzero;stroke:none"
         id="path3723"
         inkscape:connector-curvature="0" /><path
         d="m 1299.51,164.91 h 18.22 v -18.68 h 0.45 c 8.2,14.579 21.19,21.418 38.27,21.418 30.98,0 40.55,-17.769 40.55,-43.046 V 47.1484 h -19.36 v 79.7226 c 0,14.578 -9.12,23.699 -23.92,23.699 -23.46,0 -34.85,-15.73 -34.85,-36.91 V 47.1484 h -19.36 V 164.91"
         style="fill:#363a3e;fill-opacity:1;fill-rule:nonzero;stroke:none"
         id="path3725"
         inkscape:connector-curvature="0" /><path
         d="m 1488.68,209.801 h 21.64 V 47.1484 h -21.64 V 209.801"
         style="fill:#363a3e;fill-opacity:1;fill-rule:nonzero;stroke:none"
         id="path3727"
         inkscape:connector-curvature="0" /><path
         d="m 1568.44,65.3789 h 54.21 c 18.9,0 30.52,11.1524 30.52,29.1602 0,21.1799 -17.08,27.1019 -35.3,27.1019 h -49.43 z m 0,74.4731 h 43.28 c 24.59,0 34.62,8.66 34.62,25.988 0,22.769 -15.72,25.719 -34.62,25.719 h -43.28 z m -21.65,69.949 h 59 c 14.13,0 33.49,0 43.05,-5.942 10.72,-6.359 19.15,-17.75 19.15,-33.918 0,-17.332 -8.89,-30.312 -24.15,-36.453 v -0.468 c 20.04,-4.321 30.97,-19.141 30.97,-39.1684 0,-23.7032 -17.3,-46.7032 -49.43,-46.7032 h -78.59 V 209.801"
         style="fill:#363a3e;fill-opacity:1;fill-rule:nonzero;stroke:none"
         id="path3729"
         inkscape:connector-curvature="0" /><path
         d="m 1702.47,209.801 h 29.61 l 51.26,-136.6916 51.48,136.6916 h 29.61 V 47.1484 h -20.51 V 182.461 h -0.45 L 1792.68,47.1484 h -18.46 l -50.79,135.3126 h -0.46 V 47.1484 h -20.5 V 209.801"
         style="fill:#363a3e;fill-opacity:1;fill-rule:nonzero;stroke:none"
         id="path3731"
         inkscape:connector-curvature="0" /><path
         d="m 2073.46,160.809 c -4.79,23.019 -22.79,34.632 -45.56,34.632 -38.72,0 -55.13,-31.89 -55.13,-65.832 0,-37.1285 16.41,-68.109 55.36,-68.109 28.25,0 45.1,20.0313 46.92,46.93 h 21.64 c -4.33,-40.7894 -29.16,-65.1605 -70.39,-65.1605 -50.34,0 -75.17,37.3594 -75.17,84.7505 0,47.371 26.88,85.652 77,85.652 33.94,0 62.18,-18.231 66.97,-52.863 h -21.64"
         style="fill:#363a3e;fill-opacity:1;fill-rule:nonzero;stroke:none"
         id="path3733"
         inkscape:connector-curvature="0" /><path
         d="m 2174.91,61.5 c 20.27,0 36.67,15.9414 36.67,44.43 0,28.468 -16.4,44.64 -36.67,44.64 -20.27,0 -36.68,-16.172 -36.68,-44.64 0,-28.4886 16.41,-44.43 36.68,-44.43 z m 0,106.148 c 37.36,0 57.16,-27.109 57.16,-61.718 0,-34.4105 -19.8,-61.5081 -57.16,-61.5081 -37.37,0 -57.19,27.0976 -57.19,61.5081 0,34.609 19.82,61.718 57.19,61.718"
         style="fill:#363a3e;fill-opacity:1;fill-rule:nonzero;stroke:none"
         id="path3735"
         inkscape:connector-curvature="0" /><path
         d="m 2256.3,164.91 h 18.23 v -17.308 h 0.47 c 8.86,13.449 21.4,20.046 38.02,20.046 14.58,0 27.58,-5.468 32.35,-20.046 7.97,12.757 21.64,20.046 36.91,20.046 23.46,0 39.17,-9.789 39.17,-34.16 V 47.1484 h -19.36 v 77.2106 c 0,14.582 -3.86,26.211 -22.78,26.211 -18.9,0 -30.75,-11.851 -30.75,-30.07 V 47.1484 h -19.37 v 77.2106 c 0,15.27 -4.76,26.211 -22.09,26.211 -22.77,0 -31.44,-20.961 -31.44,-30.07 V 47.1484 H 2256.3 V 164.91"
         style="fill:#363a3e;fill-opacity:1;fill-rule:nonzero;stroke:none"
         id="path3737"
         inkscape:connector-curvature="0" /><path
         d="m 2505.62,150.57 c -26.2,0 -36,-22.55 -36,-44.422 0,-23.0191 10.48,-44.648 37.14,-44.648 26.43,0 35.31,22.5586 35.31,45.559 0,22.089 -11.39,43.511 -36.45,43.511 z m -54.68,14.34 h 19.37 v -15.93 h 0.46 c 6.38,12.981 21.18,18.668 37.58,18.668 36.23,0 54.22,-28.707 54.22,-61.968 0,-33.4808 -17.77,-61.2581 -53.76,-61.2581 -11.85,0 -29.62,4.539 -38.04,18.4375 h -0.46 V 2.03906 h -19.37 V 164.91"
         style="fill:#363a3e;fill-opacity:1;fill-rule:nonzero;stroke:none"
         id="path3739"
         inkscape:connector-curvature="0" /><path
         d="m 2659.91,107.969 c -15.04,-11.1682 -58.78,-0.231 -58.78,-29.1604 0,-12.7578 10.94,-17.3086 22.78,-17.3086 25.52,0 36,15.7109 36,26.6602 z m 31.44,-60.3596 c -3.43,-2.0586 -8.22,-3.1875 -13.91,-3.1875 -10.02,0 -16.4,5.4492 -16.4,18.207 -10.7,-12.7578 -25.06,-18.207 -41.46,-18.207 -21.4,0 -38.95,9.3281 -38.95,33.0195 0,26.6486 19.81,32.5786 39.86,36.2186 21.19,4.32 39.64,2.5 39.64,17.309 0,17.101 -14.11,19.601 -26.19,19.601 -16.41,0 -28.47,-5.031 -29.4,-22.332 h -19.34 c 1.13,29.16 23.44,39.41 49.87,39.41 21.18,0 44.2,-4.777 44.2,-32.339 V 74.7109 c 0,-9.1093 0,-13.2109 6.14,-13.2109 1.84,0 3.88,0.4492 5.94,1.1289 V 47.6094"
         style="fill:#363a3e;fill-opacity:1;fill-rule:nonzero;stroke:none"
         id="path3741"
         inkscape:connector-curvature="0" /><path
         d="m 2713.96,164.91 h 18.21 v -18.68 h 0.47 c 8.19,14.579 21.18,21.418 38.26,21.418 30.98,0 40.55,-17.769 40.55,-43.046 V 47.1484 h -19.37 v 79.7226 c 0,14.578 -9.1,23.699 -23.9,23.699 -23.47,0 -34.86,-15.73 -34.86,-36.91 V 47.1484 h -19.36 V 164.91"
         style="fill:#363a3e;fill-opacity:1;fill-rule:nonzero;stroke:none"
         id="path3743"
         inkscape:connector-curvature="0" /><path
         d="M 2883.29,31.4414 C 2874.18,8.64063 2866.43,0 2849.12,0 c -4.56,0 -9.13,0.441406 -13.45,2.03906 V 19.8086 c 3.66,-1.1367 7.51,-2.7305 11.39,-2.7305 7.98,0 12.3,3.6328 15.95,10.7032 l 7.98,20.0468 -46.71,117.0819 h 21.87 l 34.39,-96.3592 h 0.46 l 33.04,96.3592 h 20.49 L 2883.29,31.4414"
         style="fill:#363a3e;fill-opacity:1;fill-rule:nonzero;stroke:none"
         id="path3745"
         inkscape:connector-curvature="0" /></g></g></svg>