<?xml version="1.0" encoding="utf-8"?>
<!-- Generator: Adobe Illustrator 23.0.3, SVG Export Plug-In . SVG Version: 6.00 Build 0)  -->
<svg version="1.1" id="Layer_1" xmlns="http://www.w3.org/2000/svg" xmlns:xlink="http://www.w3.org/1999/xlink" x="0px" y="0px"
	 viewBox="0 0 205.2 111.3" style="enable-background:new 0 0 205.2 111.3;" xml:space="preserve">
<style type="text/css">
	.st0{fill:#FFC100;}
</style>
<g>
	<g>
		<g>
			<path d="M0,48.5h10.2v2.5H3v3.3h6.3v2.5H3v6H0V48.5z"/>
			<path d="M15.1,48.5h3v11.7h7.1v2.6H15.1V48.5z"/>
			<path d="M41.3,61.6c-1.1,1.1-2.6,1.7-4.7,1.7c-2,0-3.6-0.6-4.7-1.7c-1.5-1.4-2.2-3.3-2.2-5.9c0-2.6,0.7-4.6,2.2-5.9
				c1.1-1.1,2.6-1.7,4.7-1.7c2,0,3.6,0.6,4.7,1.7c1.4,1.3,2.2,3.3,2.2,5.9C43.5,58.2,42.7,60.2,41.3,61.6z M39.4,59.4
				c0.7-0.9,1-2.1,1-3.7c0-1.6-0.3-2.8-1-3.7c-0.7-0.9-1.6-1.3-2.8-1.3c-1.2,0-2.1,0.4-2.8,1.3c-0.7,0.9-1.1,2.1-1.1,3.7
				c0,1.6,0.4,2.9,1.1,3.7c0.7,0.9,1.7,1.3,2.8,1.3C37.8,60.7,38.7,60.3,39.4,59.4z"/>
			<path d="M50.7,48.5l1.9,8.2L53,59l0.4-2.2l1.6-8.2h3.2l1.7,8.2l0.4,2.3l0.4-2.2l1.9-8.3h3l-4,14.3h-2.9l-1.7-8.4l-0.5-2.8
				l-0.5,2.8l-1.7,8.4h-2.8l-4.1-14.3H50.7z"/>
		</g>
		<g>
			<path d="M140.4,48.5h10.2v2.5h-7.2v3.3h6.3v2.5h-6.3v6h-3V48.5z"/>
			<path d="M166.6,61.6c-1.1,1.1-2.6,1.7-4.7,1.7c-2,0-3.6-0.6-4.7-1.7c-1.5-1.4-2.2-3.3-2.2-5.9c0-2.6,0.7-4.6,2.2-5.9
				c1.1-1.1,2.6-1.7,4.7-1.7c2,0,3.6,0.6,4.7,1.7c1.4,1.3,2.2,3.3,2.2,5.9C168.8,58.2,168,60.2,166.6,61.6z M164.7,59.4
				c0.7-0.9,1-2.1,1-3.7c0-1.6-0.3-2.8-1-3.7c-0.7-0.9-1.6-1.3-2.8-1.3c-1.2,0-2.1,0.4-2.8,1.3c-0.7,0.9-1.1,2.1-1.1,3.7
				c0,1.6,0.4,2.9,1.1,3.7c0.7,0.9,1.7,1.3,2.8,1.3C163.1,60.7,164,60.3,164.7,59.4z"/>
			<path d="M183.2,48.9c0.5,0.2,1,0.6,1.3,1c0.3,0.4,0.5,0.8,0.7,1.2c0.2,0.4,0.3,0.9,0.3,1.5c0,0.7-0.2,1.3-0.5,2
				c-0.3,0.7-0.9,1.1-1.7,1.4c0.7,0.3,1.1,0.6,1.4,1.1c0.3,0.5,0.4,1.2,0.4,2.2v1c0,0.7,0,1.1,0.1,1.3c0.1,0.4,0.3,0.6,0.6,0.8v0.4
				h-3.3c-0.1-0.3-0.2-0.6-0.2-0.8c-0.1-0.4-0.1-0.8-0.1-1.2l0-1.3c0-0.9-0.2-1.5-0.5-1.8c-0.3-0.3-0.9-0.5-1.7-0.5H177v5.6h-2.9
				V48.5h6.8C181.9,48.5,182.7,48.7,183.2,48.9z M177,51v3.8h3.2c0.6,0,1.1-0.1,1.4-0.2c0.6-0.3,0.8-0.8,0.8-1.6
				c0-0.9-0.3-1.5-0.8-1.7c-0.3-0.2-0.8-0.3-1.4-0.3H177z"/>
			<path d="M200.9,48.5h4.3v14.3h-2.8v-9.7c0-0.3,0-0.7,0-1.2c0-0.5,0-0.9,0-1.2l-2.7,12h-2.9l-2.7-12c0,0.3,0,0.7,0,1.2
				c0,0.5,0,0.9,0,1.2v9.7h-2.8V48.5h4.4l2.6,11.3L200.9,48.5z"/>
		</g>
	</g>
	<path class="st0" d="M127.9,60.8c2.3-2.3,2.3-6,0-8.3c-1.1-1.1-2.6-1.7-4.1-1.7h0c-1.6,0-3,0.6-4.1,1.7L108.2,64l4.1,4.1
		c3.5,3.5,5.4,8.1,5.4,13s-1.9,9.6-5.4,13c-3.5,3.5-8.1,5.4-13,5.4c-4.9,0-9.6-1.9-13-5.4c-3.5-3.5-5.4-8.1-5.4-13
		c0-4.9,1.9-9.5,5.3-13l29.5-28.6c4.4-4.4,6.8-10.2,6.8-16.4c0-6.2-2.4-12-6.8-16.4C111.3,2.4,105.5,0,99.3,0
		c-6.2,0-12,2.4-16.4,6.8c-4.4,4.4-6.8,10.2-6.8,16.4c0,6.2,2.4,12,6.8,16.4c2.3,2.3,6,2.3,8.3,0c2.3-2.3,2.3-6,0-8.3
		c-2.2-2.2-3.4-5.1-3.4-8.1c0-3.1,1.2-6,3.4-8.1c4.3-4.3,11.9-4.3,16.3,0c2.2,2.2,3.4,5.1,3.4,8.1c0,3.1-1.2,5.9-3.3,8.1L77.9,59.9
		c-5.7,5.7-8.8,13.3-8.8,21.3c0,8.1,3.1,15.6,8.8,21.3c5.7,5.7,13.3,8.8,21.3,8.8c8.1,0,15.6-3.1,21.3-8.8
		c5.7-5.7,8.8-13.3,8.8-21.3c0-6.1-1.8-11.8-5.1-16.8L127.9,60.8z"/>
</g>
</svg>
