<?xml version="1.0" encoding="utf-8"?>
<!-- Generator: Adobe Illustrator 22.1.0, SVG Export Plug-In . SVG Version: 6.00 Build 0)  -->
<svg version="1.1" id="Layer_1" xmlns="http://www.w3.org/2000/svg" xmlns:xlink="http://www.w3.org/1999/xlink" x="0px" y="0px"
	 viewBox="0 0 129 58" style="enable-background:new 0 0 129 58;" xml:space="preserve">
<style type="text/css">
	.st0{fill:#FDB515;}
	.st1{fill:#F47521;}
	.st2{fill:#ED1C24;}
	.st3{fill:#82BEE8;}
	.st4{fill:#5491CD;}
	.st5{fill:#3B6BB4;}
</style>
<g>
	<path class="st0" d="M9.8,25c0,2.3,0.7,3,2.9,3h0.5V3.5h18c5.4,0,8.5,0.9,8.5,6.5c0-3.5,0.2-4.5,1.8-6.2C39.4,1.6,36,0.7,31,0.7
		H9.8V25z"/>
	<path class="st1" d="M73.2,0.7H52c-5,0-8.5,0.9-10.5,3.1c1.6,1.7,1.8,2.7,1.8,6.2c0-5.6,3.1-6.5,8.5-6.5h18v13.4h3.4V0.7z"/>
	<path class="st2" d="M43.3,10C43.3,10,43.3,10,43.3,10c0-3.6-0.2-4.5-1.8-6.3c-1.6,1.7-1.8,2.7-1.8,6.2c0,0,0,0,0,0v6.9h3.6V10z"/>
	<path class="st3" d="M17.2,35.8c0-2.3,0.7-3,2.9-3h0.5v21.7h10.6c5.4,0,8.5-0.9,8.5-6.5c0,3.5,0.2,4.5,1.8,6.2
		c-2.1,2.2-5.5,3.1-10.5,3.1H17.2V35.8z"/>
	<path class="st4" d="M65.8,57.3H52c-5,0-8.5-0.9-10.5-3.1c1.6-1.7,1.8-2.7,1.8-6.2c0,5.6,3.1,6.5,8.5,6.5h10.6v-9.8h3.4V57.3z"/>
	<path class="st5" d="M43.3,48L43.3,48c0,3.6-0.2,4.5-1.8,6.3c-1.6-1.7-1.8-2.7-1.8-6.2c0,0,0,0,0,0v-3.3h3.6V48z"/>
	<path d="M45.5,22.8H32.3v14.5c0,0.6,0.2,1.6,1.7,1.6h1.2V25.1H40v12.1c0,1.1,0.5,1.6,1.6,1.6h1.3V25.1h2.6c1.6,0,2.2,0.6,2.2,2.2
		v9.9c0,1,0.7,1.6,1.8,1.6h1.1V27.4C50.6,24.2,49,22.8,45.5,22.8"/>
	<path d="M63.5,36.5h-4.1c-2.5,0-2.5-1.6-2.5-2.1v-1.5c0-1.7,0.6-2.3,2.5-2.3c1.2,0,2.5,0.1,4.1,0.3V36.5z M61,22.8h-5.9v1
		c0,1.4,1.4,1.4,1.9,1.4H61c1.6,0,2.4,0.7,2.4,2.1v1.2c-1.6-0.2-2.7-0.3-4.2-0.3c-3.5-0.1-5.4,1.6-5.4,4.7v1.8c0,2.7,2,4.3,5.4,4.3
		h7.1V27.2C66.3,24.2,64.6,22.8,61,22.8"/>
	<path d="M70,37.1c0,1.1,0.6,1.7,1.7,1.7h1.2V22.8H70V37.1z"/>
	<path d="M85.7,36.5h-3.4c-2.1,0-3.2-1-3.2-3.1v-5.1c0-2.6,1.7-3.1,3.2-3.1h3.4V36.5z M85.7,22.8h-3.4c-3.9,0-6.1,1.8-6.1,5.2v5.7
		c0,2.4,1.1,5.2,6.1,5.2h6.3V16.9h-2.9V22.8z"/>
	<path d="M101.6,29.1c0,0.3,0,0.4,0,0.5c0,0-0.2,0.1-0.5,0.1h-6.6v-2c0-1.8,1.3-2.9,3.5-2.9c2.4,0,3.7,1,3.7,2.9V29.1z M98,22.4
		c-4,0-6.4,2.2-6.4,5.8v5.5c0,3.1,2.2,5.2,5.7,5.2h4.7c0.8,0,1.9-0.1,1.9-1.4v-1h-6.6c-1.4,0-2.8-0.7-2.8-2.8V32h7.7
		c1.9,0,2.3-1.2,2.3-2.1v-2.3C104.5,24.5,101.9,22.4,98,22.4"/>
	<path d="M116.3,36.5h-4.2c-2.5,0-2.5-1.6-2.5-2.1v-1.5c0-1.7,0.6-2.3,2.5-2.3c1.2,0,2.5,0.1,4.2,0.3V36.5z M113.9,22.8H108v1
		c0,1.4,1.4,1.4,1.9,1.4h4.1c1.6,0,2.4,0.7,2.4,2.1v1.2c-1.6-0.2-2.8-0.3-4.2-0.3c-3.5-0.1-5.4,1.6-5.4,4.7v1.8c0,2.7,2,4.3,5.4,4.3
		h7.1V27.2C119.2,24.2,117.5,22.8,113.9,22.8"/>
</g>
</svg>
