<svg xmlns="http://www.w3.org/2000/svg" viewBox="0 0 298.03 90.38"><defs><style>.cls-1{fill:#008dd0;}.cls-2{fill:#111239;}</style></defs><title>Asset 1</title><g id="Layer_2" data-name="Layer 2"><g id="Layer_1-2" data-name="Layer 1"><path class="cls-1" d="M65.55,24.83c-4.12-4.13-11-6.25-20.36-6.31S29,20.7,24.83,24.83s-6.25,11-6.31,20.36,2.18,16.24,6.31,20.36,11,6.25,20.36,6.3,16.24-2.17,20.36-6.3,6.25-11,6.3-20.36S69.68,29,65.55,24.83Z"/><path class="cls-1" d="M72.17,71c-.2.21-.38.43-.59.63-6.9,6.91-17,8.75-26.39,8.8S25.7,78.49,18.8,71.58c-.21-.2-.4-.42-.59-.63a18.41,18.41,0,0,0-6.36,4,17,17,0,0,0-2,2.52c.48.55,1,1.08,1.49,1.6C20.17,88,33.11,90.32,45.19,90.38s25-2.43,33.89-11.3c.52-.52,1-1,1.49-1.6a16.44,16.44,0,0,0-2-2.52A18.46,18.46,0,0,0,72.17,71Z"/><path class="cls-1" d="M79.08,11.3C70.21,2.43,57.27.06,45.19,0s-25,2.43-33.89,11.3S.06,33.11,0,45.19c0,8.39,1.2,17.19,4.87,24.75.31-.34.63-.68,1-1a26.11,26.11,0,0,1,7.61-5.23C10.87,58,10,51.44,10,45.19c.05-9.41,1.89-19.49,8.8-26.39s17-8.75,26.39-8.8,19.49,1.89,26.39,8.8,8.75,17,8.8,26.39c0,6.25-.87,12.79-3.45,18.51a26,26,0,0,1,7.62,5.23c.33.33.65.67,1,1,3.67-7.56,4.84-16.36,4.88-24.75C90.32,33.11,88,20.17,79.08,11.3Z"/><path class="cls-2" d="M117,29.05a66.52,66.52,0,0,1,7.5-1.56,64.16,64.16,0,0,1,10.23-.74,23.59,23.59,0,0,1,8.82,1.44,13.74,13.74,0,0,1,5.64,4,15.49,15.49,0,0,1,3,6.26,34.91,34.91,0,0,1,.86,8V71.85h-10V48.09a33,33,0,0,0-.45-5.89,10.57,10.57,0,0,0-1.49-4,5.94,5.94,0,0,0-2.8-2.22,11.73,11.73,0,0,0-4.33-.7,32.11,32.11,0,0,0-4,.25c-1.38.16-2.39.3-3,.41V71.85h0a10,10,0,0,1-10-10Z"/><path class="cls-2" d="M193.53,52.61A10.69,10.69,0,0,0,190.8,49a13.67,13.67,0,0,0-4-2.39,37.08,37.08,0,0,0-4.81-1.5l-3.13-.61a15.48,15.48,0,0,1-3.2-1,8.07,8.07,0,0,1-2.48-1.62,3,3,0,0,1-.88-2.26,2.79,2.79,0,0,1,1.56-2.6,8.54,8.54,0,0,1,4.31-1,8.89,8.89,0,0,1,4.48,1,11.15,11.15,0,0,1,3.14,2.66l.56.7.71-.54,6-4.56.67-.5-.44-.71a13.51,13.51,0,0,0-6.45-5.52,21.7,21.7,0,0,0-8.25-1.62,22.16,22.16,0,0,0-5.87.81,17,17,0,0,0-5.27,2.45,12.87,12.87,0,0,0-3.79,4.21,12.1,12.1,0,0,0-1.45,6,11.54,11.54,0,0,0,1.13,5.33,10.57,10.57,0,0,0,3,3.57,15.36,15.36,0,0,0,4.2,2.2c1.52.52,3.13,1,4.81,1.39.87.18,1.86.4,3,.65a18.73,18.73,0,0,1,3,1A6.8,6.8,0,0,1,183.61,56a3,3,0,0,1,.82,2.19,2.84,2.84,0,0,1-.55,1.74,5,5,0,0,1-1.6,1.37,8.28,8.28,0,0,1-2.4.85,14,14,0,0,1-2.78.28,9.54,9.54,0,0,1-5.18-1.32,22.85,22.85,0,0,1-4-3.22l-.59-.59-.64.53-5.85,4.81-.66.55.51.7a16.86,16.86,0,0,0,7.22,6,24.67,24.67,0,0,0,9.24,1.61,27.58,27.58,0,0,0,6.18-.71,16.82,16.82,0,0,0,5.58-2.36,13.23,13.23,0,0,0,4.06-4.29,12.19,12.19,0,0,0,1.59-6.35A12.6,12.6,0,0,0,193.53,52.61Z"/><path class="cls-2" d="M224.5,26.57H219a16.92,16.92,0,0,0-16.91,16.92V54.94A16.91,16.91,0,0,0,219,71.85h5.54a16.91,16.91,0,0,0,16.92-16.91V43.49A16.92,16.92,0,0,0,224.5,26.57Zm6.59,28a7.77,7.77,0,0,1-7.78,7.77h-3.16a7.77,7.77,0,0,1-7.77-7.77V43.85a7.77,7.77,0,0,1,7.77-7.77h3.16a7.77,7.77,0,0,1,7.78,7.77Z"/><path class="cls-2" d="M269.59,30.7H260v-5c0-3.43,4.16-5.42,9.7-5.53V10C254.64,10,250,16.77,250,25.09V71.85H260V39.61h9.55Z"/><path class="cls-2" d="M297.88,39.51h-9.55V56.2c0,3.43,4.16,5.41,9.7,5.53V71.85c-15.1,0-19.75-6.75-19.75-15.08V10h0a10.05,10.05,0,0,1,10.05,10.06V30.6h9.55Z"/></g></g></svg>