<svg xmlns="http://www.w3.org/2000/svg" xmlns:xlink="http://www.w3.org/1999/xlink" viewBox="0 0 860.47 855.74"><defs><style>.cls-1{fill:none;}.cls-2{clip-path:url(#clip-path);}.cls-3{fill:url(#linear-gradient);}.cls-4{fill:#00e2ff;}</style><clipPath id="clip-path" transform="translate(0 0)"><path class="cls-1" d="M383.62,0c-16.42,0-32.84,3.87-46.24,11.6L46.24,179.69C19.44,195.16,0,228.85,0,259.78v17c0,31,19.47,64.65,46.31,80.1L537.82,640.28,616.4,595,85.53,288.89c-2.84-1.87-6.88-8.86-7.09-12.16V259.89c.21-3.41,4.26-10.43,7-12.26l291.05-168a18.22,18.22,0,0,1,7.17-1.15,17.7,17.7,0,0,1,7,1.1l291.05,168c2.85,1.88,6.9,8.9,7.1,12.2V595.86c-.21,3.41-4.26,10.43-7,12.26l-291,168c-3.05,1.53-11.16,1.53-14.13.05l-291-168c-2.85-1.88-6.9-8.9-7.11-12.21V422.63L0,376V596c0,30.95,19.44,64.63,46.24,80.09l291.14,168.1c13.4,7.73,29.82,11.59,46.24,11.59s32.84-3.86,46.24-11.59L721,676.05c26.79-15.46,46.24-49.15,46.24-80.09V259.78c0-30.93-19.45-64.62-46.24-80.09L429.86,11.6C416.47,3.87,400,0,383.62,0Z"/></clipPath><linearGradient id="linear-gradient" x1="-3148.41" y1="772.56" x2="-3147.16" y2="772.56" gradientTransform="matrix(615.86, 0, 0, -615.86, 1938966.91, 476212.75)" gradientUnits="userSpaceOnUse"><stop offset="0" stop-color="lime"/><stop offset="1" stop-color="#00e2ff"/></linearGradient></defs><title>Asset 50</title><g id="Layer_2" data-name="Layer 2"><g id="Layer_3" data-name="Layer 3"><g class="cls-2"><rect class="cls-3" width="767.24" height="855.74"/></g><polygon class="cls-4" points="686.8 745.21 860.47 846.5 860.47 758.47 765.38 699.92 686.8 745.21"/></g></g></svg>