<svg xmlns="http://www.w3.org/2000/svg" viewBox="0 0 155.174 26.627">
  <path fill="#B51218" fill-rule="evenodd" d="M43.453 8.37c-.738-.753-1.82-1.192-2.992-1.186-.39 0-.79.045-1.2.137-.77.18-1.26.95-1.09 1.72.18.78.94 1.27 1.72 1.1.22-.05.41-.07.58-.07.504.01.766.158.95.338.18.183.296.44.298.776-.004.468-.23 1.104-1.05 1.71-.814.6-2.263 1.14-4.56 1.14-2.166 0-5.072-.49-8.787-1.787 3.64-1.007 6.13-2.19 7.807-3.494 1.71-1.33 2.613-2.903 2.615-4.48 0-1.273-.603-2.376-1.43-3.1C35.476.43 34.415.006 33.285 0 31.99-.022 30.57.663 29.77 2.01c-.42.678-.208 1.565.47 1.98.68.413 1.568.198 1.98-.48.33-.506.63-.608 1.06-.63.37-.004.81.164 1.11.436.31.276.46.586.46.948 0 .432-.236 1.202-1.514 2.213-1.065.835-2.83 1.76-5.49 2.6.16-.535.25-1.102.25-1.69 0-3.208-2.6-5.81-5.808-5.81s-5.81 2.602-5.81 5.81c0 .588.09 1.155.25 1.69-2.66-.84-4.428-1.765-5.49-2.6-1.275-1.012-1.51-1.782-1.51-2.214.002-.362.154-.67.46-.947.3-.273.743-.44 1.112-.438.43.024.725.125 1.055.63.412.68 1.3.894 1.98.48.676-.414.89-1.3.477-1.978C14.014.66 12.594-.023 11.3 0c-1.13.004-2.19.43-3.023 1.16-.825.727-1.428 1.83-1.426 3.103 0 1.577.91 3.152 2.62 4.48 1.68 1.305 4.17 2.487 7.81 3.494-3.715 1.3-6.62 1.788-8.79 1.786-2.292.002-3.743-.538-4.56-1.138-.82-.606-1.043-1.243-1.05-1.71.005-.337.118-.592.3-.776.185-.18.45-.33.95-.34.167 0 .358.02.577.07.777.17 1.545-.32 1.72-1.098.17-.777-.32-1.546-1.095-1.718-.41-.093-.81-.14-1.2-.14-1.175-.006-2.255.433-2.995 1.185C.39 9.112-.005 10.13 0 11.17c-.007 1.476.78 2.983 2.23 4.034 1.45 1.06 3.525 1.693 6.26 1.693 2.877 0 6.514-.7 11.084-2.44-.938 3.58-2.227 5.91-3.49 7.31-1.38 1.52-2.687 1.974-3.656 1.975-.675 0-1.2-.223-1.54-.513-.336-.3-.484-.63-.488-1 .002-.338.123-.78.615-1.34.526-.598.47-1.506-.126-2.034-.6-.527-1.51-.47-2.03.124-.87.976-1.35 2.12-1.34 3.247-.01 1.26.59 2.41 1.49 3.18.9.774 2.1 1.21 3.41 1.21h.01c1.9 0 3.99-.93 5.78-2.93 1.63-1.81 3.052-4.486 4.073-8.266 1.02 3.78 2.44 6.457 4.07 8.267 1.793 2 3.88 2.926 5.785 2.926h.01c1.31 0 2.515-.434 3.415-1.21.9-.767 1.494-1.915 1.49-3.176.004-1.125-.47-2.27-1.336-3.245-.527-.592-1.438-.65-2.033-.12-.595.527-.65 1.436-.12 2.03.49.565.61 1.006.613 1.34 0 .37-.15.697-.49.995-.333.29-.86.512-1.534.512-.97-.004-2.276-.456-3.655-1.978-1.26-1.4-2.55-3.723-3.49-7.304 4.57 1.74 8.208 2.44 11.087 2.44 2.733 0 4.808-.633 6.26-1.692 1.448-1.05 2.23-2.56 2.23-4.036-.002-1.04-.393-2.06-1.137-2.805zm-23.785.823c-.404 0-.732-.327-.732-.73 0-.407.328-.735.732-.735s.734.328.734.734c0 .404-.33.73-.734.73zm5.25 0c-.404 0-.73-.327-.73-.73 0-.407.326-.735.73-.735.406 0 .736.328.736.734 0 .404-.33.73-.736.73z" clip-rule="evenodd"/>
  <path fill="#DE731D" d="M66.437 21.734l-1.334.002-.02-12.456-3.975.006-.002-1.246 9.284-.015.002 1.246-3.977.01.022 12.46zm16.37-.026l-1.334.002-.023-13.7 1.336-.002.022 13.7z"/>
  <path fill="#B51218" d="M89.23 13.807l5.625-5.818 1.72-.01-5.744 5.94 7.7 7.76h-1.75l-6.8-6.84-.737.77.01 6.08h-1.34L87.88 5.2l1.337-.002.013 8.61zm24.32 1.003c.005 4.062-3.163 7.15-7.196 7.158-3.944.006-7.123-3.22-7.13-7.106-.005-3.945 3.134-7.183 7.106-7.19 4.035-.006 7.213 3.074 7.22 7.138zm-12.99.05c.003 3.113 2.47 5.866 5.702 5.86 3.352-.004 5.957-2.556 5.95-5.88-.003-3.38-2.587-5.927-5.968-5.922-3.264.005-5.69 2.767-5.685 5.94zm26.932 4.317h-.06c-1.004 1.75-3.198 2.763-5.215 2.766-4.15.006-6.767-3.223-6.773-7.226-.007-4.003 2.57-7.062 6.692-7.07 2.106-.002 4.123.944 5.282 2.664h.06l-.008-5.17h1.335l.025 16.5h-1.335l-.003-2.46zm.082-4.627c-.004-3.174-2.174-5.662-5.495-5.657-3.15.005-5.31 2.855-5.3 5.822 0 3.143 2.08 5.986 5.4 5.98 3.5-.004 5.39-2.854 5.39-6.145zm5.813.348c-.084 3.47 2.322 5.778 5.495 5.772 2.135-.003 3.854-1.278 4.83-3.12l1.128.65c-1.242 2.373-3.435 3.712-6.135 3.717-4.062.006-6.646-3.283-6.653-7.168-.005-3.83 2.628-7.13 6.632-7.13 4.152-.01 6.62 3.31 6.596 7.25l-11.893.02zm10.556-1.264c-.332-2.52-2.41-4.77-5.23-4.766-2.786.004-5.097 2.204-5.33 4.782l10.56-.016z"/>
  <path fill="#DE731D" d="M78.58 8.012c-4.003.006-6.638 3.007-6.632 6.83l.01 6.883 1.335-.002-.01-6.516c-.11-3.784 2.54-5.875 5.328-5.88V8.015l-.03-.003z"/>
  <path fill="#B51218" d="M155.14 7.893c-4 .006-6.636 3.007-6.63 6.83l.01 6.883 1.336-.003-.01-6.516c-.11-3.783 2.54-5.875 5.328-5.88l-.002-1.312-.03-.002z"/>
</svg>
