<?xml version="1.0" encoding="UTF-8" standalone="no"?>
<svg
   xmlns:dc="http://purl.org/dc/elements/1.1/"
   xmlns:cc="http://creativecommons.org/ns#"
   xmlns:rdf="http://www.w3.org/1999/02/22-rdf-syntax-ns#"
   xmlns:svg="http://www.w3.org/2000/svg"
   xmlns="http://www.w3.org/2000/svg"
   viewBox="0 0 592.79999 131.16"
   height="131.16"
   width="592.79999"
   xml:space="preserve"
   id="svg2"
   version="1.1"><metadata
     id="metadata8"><rdf:RDF><cc:Work
         rdf:about=""><dc:format>image/svg+xml</dc:format><dc:type
           rdf:resource="http://purl.org/dc/dcmitype/StillImage" /></cc:Work></rdf:RDF></metadata><defs
     id="defs6" /><g
     transform="matrix(1.3333333,0,0,-1.3333333,0,131.16)"
     id="g10"><g
       transform="scale(0.1)"
       id="g12"><path
         id="path14"
         style="fill:#231f20;fill-opacity:1;fill-rule:nonzero;stroke:none"
         d="m 10.8242,835.996 h 84.9024 c 4.7694,0 8.9804,-3.129 10.3594,-7.699 l 61.269,-197.051 c 1.047,-3.375 5.825,-3.387 6.879,-0.012 L 236.07,828.32 c 1.379,4.559 5.586,7.676 10.352,7.676 h 81.93 c 7.55,0 12.777,-7.543 10.125,-14.613 L 226.199,522.184 c -1.586,-4.227 -5.617,-7.02 -10.125,-7.02 h -93.523 c -4.52,0 -8.559,2.805 -10.133,7.031 L 0.691406,821.402 c -2.636716,7.063 2.589844,14.594 10.132794,14.594" /><path
         id="path16"
         style="fill:#231f20;fill-opacity:1;fill-rule:nonzero;stroke:none"
         d="m 555.523,703.754 c 2.02,0 3.7,1.684 3.618,3.707 -0.684,16.863 -6.094,30.555 -16.227,41.059 -10.871,11.269 -25.199,16.906 -42.996,16.906 -16.598,0 -30.539,-5.539 -41.813,-16.613 -10.386,-10.2 -17.5,-23.778 -21.332,-40.711 -0.507,-2.235 1.247,-4.348 3.536,-4.348 z m 64.196,89.543 c 28.062,-30.836 42.105,-73.141 42.105,-126.906 0,-3.082 -0.027,-5.887 -0.086,-8.426 -0.133,-5.879 -4.929,-10.559 -10.816,-10.559 H 443.129 c -2.488,0 -4.188,-2.453 -3.402,-4.812 5.285,-15.856 13.687,-28.18 25.199,-37 12.648,-9.688 28.07,-14.52 46.265,-14.52 13.829,0 27.176,2.758 40.032,8.297 9.925,4.277 19.211,10.098 27.847,17.453 4.344,3.692 10.743,3.563 14.774,-0.472 l 40.332,-40.34 c 4.219,-4.223 4.269,-11.125 0.012,-15.309 -15.047,-14.777 -32.625,-26.293 -52.723,-34.574 -23.535,-9.695 -50.117,-14.524 -79.766,-14.524 -34.398,0 -64.441,6.711 -90.152,20.157 -25.692,13.449 -45.356,32.418 -58.996,56.937 -13.649,24.512 -20.457,52.977 -20.457,85.391 0,32.812 6.906,61.773 20.75,86.887 13.828,25.101 33.406,44.48 58.703,58.125 25.301,13.632 54.566,20.453 87.777,20.453 52.196,0 92.313,-15.426 120.395,-46.258" /><path
         id="path18"
         style="fill:#231f20;fill-opacity:1;fill-rule:nonzero;stroke:none"
         d="m 844.184,825.316 c 14.437,8.122 30.558,12.907 48.336,14.36 6.359,0.519 11.851,-4.399 11.851,-10.781 l 0.004,-74.043 c 0,-6.028 -4.918,-10.911 -10.945,-10.809 -1.575,0.027 -3.258,0.039 -5.063,0.039 -24.914,0 -45.07,-5.844 -60.496,-17.5 -15.211,-11.516 -24.078,-27.152 -26.586,-46.945 -0.07,-0.532 -0.097,-1.078 -0.097,-1.614 V 525.98 c 0,-5.972 -4.844,-10.816 -10.817,-10.816 h -83.93 c -5.972,0 -10.816,4.844 -10.816,10.816 v 299.204 c 0,5.972 4.844,10.812 10.816,10.812 h 83.93 c 5.973,0 10.817,-4.84 10.817,-10.812 v -30.539 c 0,-3.473 4.453,-4.95 6.488,-2.129 10,13.816 22.172,24.75 36.508,32.8" /><path
         id="path20"
         style="fill:#231f20;fill-opacity:1;fill-rule:nonzero;stroke:none"
         d="m 1097.71,417.008 c -20.57,-14.422 -46.06,-21.641 -76.5,-21.641 -17.8,0 -34.401,2.668 -49.827,8.012 -12.594,4.355 -24.922,10.762 -36.985,19.199 -4.636,3.246 -5.937,9.578 -3.015,14.43 l 32.609,54.203 c 3.231,5.367 10.27,6.777 15.465,3.281 4.16,-2.797 8.188,-5.004 12.086,-6.617 6.723,-2.754 13.847,-4.141 21.357,-4.141 17.39,0 30.24,8.11 38.55,24.313 l 5.22,10.043 c 1.58,3.031 1.72,6.605 0.38,9.75 L 932.691,820.957 c -3.027,7.133 2.207,15.039 9.954,15.039 h 84.635 c 4.54,0 8.59,-2.832 10.16,-7.09 l 70.33,-185.07 c 1.2,-3.156 5.7,-3.074 6.79,0.129 l 62.54,184.574 c 1.45,4.449 5.6,7.457 10.28,7.457 h 81.3 c 7.61,0 12.85,-7.656 10.07,-14.746 L 1146.92,483.734 c -12.26,-30.043 -28.66,-52.289 -49.21,-66.726" /><path
         id="path22"
         style="fill:#231f20;fill-opacity:1;fill-rule:nonzero;stroke:none"
         d="m 1702.39,619.008 c 12.84,14.621 19.27,33.805 19.27,57.519 0,23.731 -6.43,43 -19.27,57.828 -12.85,14.821 -29.56,22.235 -50.11,22.235 -20.16,0 -36.57,-7.414 -49.23,-22.235 -12.65,-14.828 -18.97,-34.097 -18.97,-57.828 0,-23.714 6.32,-42.898 18.97,-57.519 12.66,-14.633 29.07,-21.938 49.23,-21.938 20.55,0 37.26,7.305 50.11,21.938 z m 54.26,200.156 c 22.54,-13.641 40.03,-33.023 52.49,-58.125 12.46,-25.117 18.67,-54.07 18.67,-86.883 0,-32.418 -6.03,-60.886 -18.08,-85.39 -12.06,-24.524 -29.27,-43.493 -51.6,-56.942 -22.33,-13.445 -48.13,-20.156 -77.39,-20.156 -20.16,0 -38.45,3.855 -54.85,11.57 -13.53,6.34 -25.38,15.047 -35.54,26.106 -2.23,2.433 -6.27,0.918 -6.27,-2.391 v -20.91 c 0,-5.977 -4.84,-10.813 -10.81,-10.813 h -83.93 c -5.98,0 -10.82,4.836 -10.82,10.813 v 418.406 c 0,5.977 4.84,10.813 10.82,10.813 h 83.93 c 5.97,0 10.81,-4.836 10.81,-10.813 V 804.438 c 0,-3.321 4.07,-4.833 6.3,-2.368 22.57,25.028 51.9,37.547 87.98,37.547 29.67,0 55.76,-6.82 78.29,-20.453" /><path
         id="path24"
         style="fill:#231f20;fill-opacity:1;fill-rule:nonzero;stroke:none"
         d="m 1972.43,927.387 c 0,-31.114 -25.98,-56.336 -58.04,-56.336 -32.04,0 -58.02,25.222 -58.02,56.336 0,31.117 25.98,56.34 58.02,56.34 32.06,0 58.04,-25.223 58.04,-56.34" /><path
         id="path26"
         style="fill:#231f20;fill-opacity:1;fill-rule:nonzero;stroke:none"
         d="m 1873.62,836.059 h 83.33 c 5.98,0 10.82,-4.844 10.82,-10.817 V 526.043 c 0,-5.977 -4.84,-10.813 -10.82,-10.813 h -83.33 c -5.97,0 -10.82,4.836 -10.82,10.813 v 299.199 c 0,5.973 4.85,10.817 10.82,10.817" /><path
         id="path28"
         style="fill:#231f20;fill-opacity:1;fill-rule:nonzero;stroke:none"
         d="m 2212.1,630.871 c 11.86,13.832 17.78,31.813 17.78,53.961 0,22.547 -5.92,40.723 -17.78,54.566 -11.87,13.829 -27.49,20.754 -46.86,20.754 -19.36,0 -35.08,-7.023 -47.15,-21.05 -12.06,-14.039 -18.08,-32.133 -18.08,-54.27 0,-22.148 6.02,-40.129 18.08,-53.961 12.07,-13.84 27.79,-20.766 47.15,-20.766 19.37,0 34.99,6.926 46.86,20.766 z m 111.95,205.188 c 5.97,0 10.81,-4.844 10.81,-10.817 V 543.691 c 0,-29.648 -7.33,-55.64 -21.95,-77.988 -14.63,-22.332 -35.09,-39.523 -61.37,-51.601 -26.31,-12.047 -56.65,-18.079 -91.04,-18.079 -26.88,0 -52.78,3.758 -77.69,11.27 -21.27,6.418 -40.37,14.699 -57.31,24.859 -4.87,2.914 -6.64,9.106 -4.09,14.172 l 26.99,53.543 c 2.84,5.621 9.8,7.574 15.22,4.387 11.8,-6.949 24.33,-12.586 37.58,-16.895 16.99,-5.539 34.2,-8.308 51.6,-8.308 23.71,0 42.49,5.539 56.33,16.597 13.83,11.075 20.75,26.106 20.75,45.075 v 24.429 c 0,3.328 -4.07,4.828 -6.31,2.364 -20.88,-23.008 -49.23,-34.504 -85.01,-34.504 -26.5,0 -50.12,6.426 -70.86,19.281 -20.77,12.84 -36.99,31.031 -48.64,54.551 -11.67,23.523 -17.49,50.5 -17.49,80.953 0,30.043 5.62,56.531 16.9,79.473 11.27,22.925 27.17,40.707 47.74,53.378 20.55,12.641 43.89,18.969 69.98,18.969 19.76,0 37.66,-3.656 53.67,-10.976 13.01,-5.942 24.26,-14.028 33.73,-24.278 2.25,-2.429 6.29,-0.922 6.29,2.391 v 18.488 c 0,5.973 4.84,10.817 10.82,10.817 h 83.35" /><path
         id="path30"
         style="fill:#231f20;fill-opacity:1;fill-rule:nonzero;stroke:none"
         d="m 4446,561.715 c 0,-28.332 -23.66,-51.301 -52.84,-51.301 -29.18,0 -52.84,22.969 -52.84,51.301 0,28.328 23.66,51.293 52.84,51.293 29.18,0 52.84,-22.965 52.84,-51.293" /><path
         id="path32"
         style="fill:#231f20;fill-opacity:1;fill-rule:nonzero;stroke:none"
         d="m 3261.15,927.32 c 0,-31.113 -25.97,-56.34 -58.02,-56.34 -32.06,0 -58.03,25.227 -58.03,56.34 0,31.118 25.97,56.34 58.03,56.34 32.05,0 58.02,-25.222 58.02,-56.34" /><path
         id="path34"
         style="fill:#231f20;fill-opacity:1;fill-rule:nonzero;stroke:none"
         d="m 2741.84,540.164 c 1.36,-5.023 -1.02,-10.324 -5.71,-12.582 -9.88,-4.754 -20.87,-8.602 -32.94,-11.531 -15.41,-3.758 -31.04,-5.637 -46.84,-5.637 -31.64,0 -57.24,9.082 -76.8,27.277 -19.58,18.176 -29.35,43.293 -29.35,75.317 v 133.98 c 0,1.985 -1.62,3.602 -3.61,3.602 h -30.06 c -5.97,0 -10.82,4.844 -10.82,10.816 v 48.36 c 0,5.976 4.85,10.812 10.82,10.812 h 30.06 c 1.99,0 3.61,1.617 3.61,3.61 v 91.265 c 0,5.973 4.84,10.817 10.81,10.817 h 83.34 c 5.97,0 10.81,-4.844 10.81,-10.817 v -91.265 c 0,-1.993 1.62,-3.61 3.6,-3.61 h 64.77 c 5.98,0 10.82,-4.836 10.82,-10.812 v -48.36 c 0,-5.972 -4.84,-10.816 -10.82,-10.816 h -64.77 c -1.98,0 -3.6,-1.617 -3.6,-3.602 V 629.617 c 0,-22.543 9.28,-33.801 27.87,-33.801 8.72,0 18.71,2.055 29.97,6.18 5.95,2.18 12.49,-1.215 14.14,-7.324 l 14.7,-54.508" /><path
         id="path36"
         style="fill:#231f20;fill-opacity:1;fill-rule:nonzero;stroke:none"
         d="m 3075.32,806.938 c 21.15,-22.149 31.73,-51.997 31.73,-89.555 V 525.977 c 0,-5.973 -4.84,-10.817 -10.81,-10.817 h -83.94 c -5.97,0 -10.81,4.844 -10.81,10.817 v 161.16 c 0,18.179 -4.84,32.519 -14.54,43 -9.68,10.468 -23.03,15.722 -40.03,15.722 -19.36,-0.41 -34.69,-7.218 -45.95,-20.468 -11.27,-13.246 -16.9,-30.539 -16.9,-51.895 V 525.977 c 0,-5.973 -4.85,-10.817 -10.82,-10.817 h -83.93 c -5.97,0 -10.81,4.844 -10.81,10.817 v 418.406 c 0,5.972 4.84,10.816 10.81,10.816 h 83.93 c 5.97,0 10.82,-4.844 10.82,-10.816 v -148.86 c 0,-3.445 4.39,-4.949 6.45,-2.187 10.37,13.926 22.95,24.789 37.73,32.57 17.98,9.492 38.63,14.239 61.97,14.239 35.58,0 63.95,-11.075 85.1,-33.207" /><path
         id="path38"
         style="fill:#231f20;fill-opacity:1;fill-rule:nonzero;stroke:none"
         d="m 3162.34,835.992 h 83.34 c 5.98,0 10.82,-4.84 10.82,-10.812 V 525.977 c 0,-5.973 -4.84,-10.817 -10.82,-10.817 h -83.34 c -5.97,0 -10.81,4.844 -10.81,10.817 V 825.18 c 0,5.972 4.84,10.812 10.81,10.812" /><path
         id="path40"
         style="fill:#231f20;fill-opacity:1;fill-rule:nonzero;stroke:none"
         d="m 3603.13,806.938 c 21.14,-22.149 31.72,-51.997 31.72,-89.555 V 525.977 c 0,-5.973 -4.85,-10.817 -10.82,-10.817 h -83.33 c -5.97,0 -10.82,4.844 -10.82,10.817 v 161.16 c 0,18.179 -4.94,32.519 -14.83,43 -9.89,10.468 -23.12,15.722 -39.73,15.722 -17.4,-0.41 -31.73,-6.148 -42.99,-17.207 -11.12,-10.922 -17.72,-25.312 -19.79,-43.148 -0.05,-0.496 -0.08,-0.996 -0.08,-1.492 V 525.977 c 0,-5.973 -4.84,-10.817 -10.82,-10.817 h -83.93 c -5.97,0 -10.81,4.844 -10.81,10.817 V 825.18 c 0,5.972 4.84,10.812 10.81,10.812 h 83.93 c 5.98,0 10.82,-4.84 10.82,-10.812 v -29.668 c 0,-3.442 4.4,-4.946 6.45,-2.184 10.38,13.926 22.95,24.793 37.73,32.578 17.98,9.492 38.63,14.239 61.97,14.239 35.19,0 63.35,-11.075 84.52,-33.207" /><path
         id="path42"
         style="fill:#231f20;fill-opacity:1;fill-rule:nonzero;stroke:none"
         d="m 3875.02,630.805 c 11.87,13.828 17.79,31.812 17.79,53.961 0,22.543 -5.92,40.722 -17.79,54.562 -11.87,13.832 -27.48,20.754 -46.85,20.754 -19.36,0 -35.08,-7.019 -47.15,-21.047 -12.06,-14.039 -18.08,-32.137 -18.08,-54.269 0,-22.149 6.02,-40.133 18.08,-53.961 12.07,-13.844 27.79,-20.762 47.15,-20.762 19.37,0 34.98,6.918 46.85,20.762 z m 111.95,205.187 c 5.98,0 10.82,-4.84 10.82,-10.812 V 543.621 c 0,-29.648 -7.33,-55.637 -21.95,-77.98 -14.64,-22.336 -35.09,-39.528 -61.38,-51.606 -26.3,-12.047 -56.64,-18.078 -91.03,-18.078 -26.89,0 -52.78,3.754 -77.7,11.27 -21.26,6.414 -40.36,14.695 -57.31,24.863 -4.87,2.914 -6.63,9.101 -4.08,14.164 l 26.99,53.551 c 2.83,5.613 9.8,7.574 15.22,4.379 11.8,-6.95 24.33,-12.579 37.57,-16.895 16.99,-5.535 34.2,-8.305 51.6,-8.305 23.72,0 42.49,5.536 56.34,16.594 13.83,11.082 20.75,26.11 20.75,45.082 v 24.426 c 0,3.332 -4.08,4.828 -6.32,2.363 -20.87,-23.011 -49.22,-34.504 -85.01,-34.504 -26.49,0 -50.11,6.426 -70.86,19.282 -20.77,12.839 -36.98,31.035 -48.64,54.55 -11.66,23.52 -17.48,50.496 -17.48,80.957 0,30.043 5.62,56.528 16.9,79.469 11.27,22.922 27.17,40.707 47.74,53.375 20.55,12.645 43.89,18.973 69.97,18.973 19.77,0 37.67,-3.656 53.68,-10.973 13,-5.945 24.25,-14.031 33.73,-24.281 2.25,-2.434 6.29,-0.926 6.29,2.387 v 18.496 c 0,5.972 4.84,10.812 10.81,10.812 h 83.35" /><path
         id="path44"
         style="fill:#231f20;fill-opacity:1;fill-rule:nonzero;stroke:none"
         d="m 4167.99,767.203 c -9.1,0 -16.42,-1.68 -21.95,-5.047 -5.54,-3.359 -8.3,-8.402 -8.3,-15.125 0,-7.105 4.34,-12.843 13.04,-17.191 8.7,-4.352 22.55,-9.098 41.51,-14.238 22.93,-6.727 42.02,-13.336 57.24,-19.86 15.22,-6.527 28.37,-16.418 39.44,-29.648 11.06,-13.254 16.6,-30.543 16.6,-51.899 0,-32.418 -12.56,-57.812 -37.66,-76.207 -25.12,-18.379 -57.81,-27.574 -98.14,-27.574 -27.28,0 -53.38,3.859 -78.29,11.566 -21.73,6.723 -41.37,16.243 -58.9,28.551 -4.38,3.071 -5.91,8.852 -3.57,13.657 l 23.88,49.035 c 2.81,5.773 10,7.816 15.45,4.402 15.13,-9.484 30.85,-17.055 47.16,-22.699 19.96,-6.918 38.85,-10.379 56.64,-10.379 10.27,0 18.48,1.68 24.61,5.043 6.13,3.344 9.19,8.191 9.19,14.519 0,7.911 -4.45,14.039 -13.34,18.391 -8.91,4.352 -22.83,9.082 -41.82,14.223 -22.53,6.722 -41.12,13.351 -55.74,19.879 -14.63,6.523 -27.38,16.296 -38.25,29.351 -10.87,13.051 -16.31,30.043 -16.31,51.004 0,32.406 12.25,57.816 36.77,76.211 24.5,18.375 56.13,27.57 94.89,27.57 23.32,0 46.35,-3.164 69.09,-9.492 19.32,-5.379 37.73,-12.902 55.19,-22.558 5.14,-2.848 7.11,-9.27 4.4,-14.485 l -25.9,-50.074 c -2.7,-5.238 -9.14,-7.328 -14.42,-4.699 -37.24,18.508 -68.08,27.773 -92.51,27.773" /><path
         id="path46"
         style="fill:#231f20;fill-opacity:1;fill-rule:nonzero;stroke:none"
         d="m 602.637,71.5508 c 8.187,5.4844 13.715,13.207 16.59,23.1719 v 18.2383 h -42.801 c -11.656,0 -20.52,-1.941 -26.59,-5.824 -6.086,-3.887 -9.121,-9.7112 -9.121,-17.4768 0,-7.9375 2.914,-14.3125 8.738,-19.1211 5.824,-4.8125 13.551,-7.2227 23.176,-7.2227 11.812,0 21.82,2.7461 30.008,8.2344 z m 16.84,-21.6563 -0.25,22.2891 c -5.239,-7.7695 -12.075,-13.5469 -20.516,-17.3477 -8.441,-3.8046 -18.148,-5.7031 -29.125,-5.7031 -8.953,0 -16.844,1.7344 -23.68,5.1953 -6.84,3.4571 -12.117,8.2266 -15.832,14.3125 -3.711,6.0742 -5.57,12.9141 -5.57,20.5117 0,11.4807 4.43,20.5197 13.293,27.1017 8.867,6.586 21.066,9.875 36.601,9.875 h 44.575 v 10.133 c 0,10.465 -3.129,18.57 -9.375,24.312 -6.243,5.739 -15.36,8.614 -27.348,8.614 -14.184,0 -28.457,-5.317 -42.801,-15.958 l -7.597,11.649 c 8.945,6.246 17.472,10.851 25.574,13.805 8.105,2.953 17.387,4.433 27.863,4.433 16.039,0 28.449,-4.012 37.231,-12.031 8.777,-8.023 13.25,-19.121 13.425,-33.305 l 0.25,-87.8865 h -16.718" /><path
         id="path48"
         style="fill:#231f20;fill-opacity:1;fill-rule:nonzero;stroke:none"
         d="m 863.633,70.2852 c 7.594,4.4687 13.551,10.6718 17.851,18.6132 4.309,7.9336 6.461,16.9686 6.461,27.0976 0,10.133 -2.152,19.207 -6.461,27.231 -4.3,8.015 -10.257,14.308 -17.851,18.867 -7.598,4.558 -16.211,6.84 -25.836,6.84 -9.625,0 -18.238,-2.282 -25.832,-6.84 -7.602,-4.559 -13.598,-10.852 -17.981,-18.867 -4.394,-8.024 -6.586,-17.098 -6.586,-27.231 0,-10.129 2.153,-19.164 6.457,-27.0976 4.309,-7.9414 10.301,-14.1445 17.985,-18.6132 7.68,-4.4766 16.332,-6.7149 25.957,-6.7149 9.625,0 18.238,2.2383 25.836,6.7149 z M 904.918,237.824 V 49.8945 h -16.973 v 30.3946 c -5.066,-9.9649 -12.16,-17.6875 -21.273,-23.1758 -9.125,-5.4922 -19.758,-8.2344 -31.91,-8.2344 -12.5,0 -23.645,2.8711 -33.434,8.6133 -9.797,5.7383 -17.398,13.7617 -22.797,24.0625 -5.406,10.2969 -8.101,21.9493 -8.101,34.9533 0,12.996 2.738,24.562 8.226,34.695 5.489,10.133 13.082,18.067 22.797,23.809 9.703,5.738 20.723,8.613 33.055,8.613 12.152,0 22.832,-2.789 32.039,-8.359 9.195,-5.571 16.332,-13.34 21.398,-23.301 v 85.859 h 16.973" /><path
         id="path50"
         style="fill:#231f20;fill-opacity:1;fill-rule:nonzero;stroke:none"
         d="m 960.23,182.609 h 16.965 V 49.8945 H 960.23 Z m 16.965,46.731 c 2.196,-2.281 3.297,-5.11 3.297,-8.488 0,-3.379 -1.14,-6.247 -3.422,-8.61 -2.281,-2.367 -5.023,-3.543 -8.23,-3.543 -3.379,0 -6.203,1.176 -8.485,3.543 -2.281,2.363 -3.421,5.231 -3.421,8.61 0,3.378 1.14,6.207 3.421,8.488 2.282,2.277 5.106,3.418 8.485,3.418 3.371,0 6.164,-1.141 8.355,-3.418" /><path
         id="path52"
         style="fill:#231f20;fill-opacity:1;fill-rule:nonzero;stroke:none"
         d="m 1108.84,75.6016 c 7.26,4.3086 12.92,10.2617 16.98,17.8554 4.05,7.602 6.07,16.125 6.07,25.578 0,9.629 -2.02,18.238 -6.07,25.836 -4.06,7.602 -9.72,13.551 -16.98,17.856 -7.26,4.308 -15.44,6.461 -24.56,6.461 -9.12,0 -17.31,-2.153 -24.57,-6.461 -7.26,-4.305 -12.96,-10.254 -17.09,-17.856 -4.14,-7.598 -6.21,-16.207 -6.21,-25.836 0,-9.621 2.07,-18.191 6.21,-25.703 4.13,-7.5156 9.79,-13.4218 16.96,-17.7304 7.18,-4.3047 15.41,-6.4571 24.7,-6.4571 9.12,0 17.3,2.1524 24.56,6.4571 z m 40.02,107.0074 V 63.8242 c 0,-12.832 -2.7,-24.0625 -8.1,-33.6836 -5.41,-9.625 -13.13,-17.0078 -23.18,-22.16013 -10.05,-5.15234 -21.65,-7.722657 -34.82,-7.722657 -19.59,0 -37.74,6.749997 -54.45,20.257787 l 8.1,12.1563 c 6.75,-5.9063 13.84,-10.3828 21.28,-13.4219 7.42,-3.043 15.53,-4.5586 24.31,-4.5586 15.2,0 27.31,4.4297 36.34,13.293 9.03,8.8672 13.55,20.7344 13.55,35.5859 v 21.5313 c -4.73,-9.2891 -11.48,-16.5508 -20.26,-21.7852 -8.78,-5.2344 -18.91,-7.8516 -30.39,-7.8516 -11.82,0 -22.33,2.7461 -31.53,8.2344 -9.21,5.4844 -16.38,13.086 -21.53,22.793 -5.16,9.707 -7.73,20.7268 -7.73,33.0508 0,12.324 2.57,23.301 7.73,32.93 5.15,9.621 12.37,17.132 21.65,22.539 9.29,5.402 19.84,8.105 31.66,8.105 11.48,0 21.53,-2.578 30.14,-7.722 8.61,-5.157 15.36,-12.457 20.26,-21.911 v 29.125 h 16.97" /><path
         id="path54"
         style="fill:#231f20;fill-opacity:1;fill-rule:nonzero;stroke:none"
         d="m 1201.87,182.609 h 16.97 V 49.8945 h -16.97 z m 16.97,46.731 c 2.19,-2.281 3.29,-5.11 3.29,-8.488 0,-3.379 -1.13,-6.247 -3.42,-8.61 -2.27,-2.367 -5.02,-3.543 -8.23,-3.543 -3.38,0 -6.2,1.176 -8.48,3.543 -2.28,2.363 -3.43,5.231 -3.43,8.61 0,3.378 1.15,6.207 3.43,8.488 2.28,2.277 5.1,3.418 8.48,3.418 3.38,0 6.17,-1.141 8.36,-3.418" /><path
         id="path56"
         style="fill:#231f20;fill-opacity:1;fill-rule:nonzero;stroke:none"
         d="m 1340.13,59.0117 c -9.12,-6.2461 -18.91,-9.5351 -29.38,-9.8789 -10.13,0 -18.15,3.125 -24.06,9.375 -5.91,6.2461 -8.87,15.6133 -8.87,28.1094 v 79.0238 h -18.99 l -0.25,13.172 h 19.24 V 213 h 16.97 v -34.187 l 43.06,0.253 v -13.425 h -43.06 V 89.4063 c 0,-16.3829 6.08,-24.5704 18.24,-24.5704 6.75,0 14.1,2.3633 22.04,7.0938 l 5.06,-12.918" /><path
         id="path58"
         style="fill:#231f20;fill-opacity:1;fill-rule:nonzero;stroke:none"
         d="m 1447.29,71.5508 c 8.18,5.4844 13.72,13.207 16.59,23.1719 v 18.2383 h -42.81 c -11.65,0 -20.51,-1.941 -26.59,-5.824 -6.08,-3.887 -9.12,-9.7112 -9.12,-17.4768 0,-7.9375 2.92,-14.3125 8.74,-19.1211 5.83,-4.8125 13.55,-7.2227 23.18,-7.2227 11.81,0 21.82,2.7461 30.01,8.2344 z m 16.84,-21.6563 -0.25,22.2891 c -5.24,-7.7695 -12.08,-13.5469 -20.52,-17.3477 -8.44,-3.8046 -18.15,-5.7031 -29.12,-5.7031 -8.96,0 -16.84,1.7344 -23.68,5.1953 -6.84,3.4571 -12.12,8.2266 -15.83,14.3125 -3.72,6.0742 -5.58,12.9141 -5.58,20.5117 0,11.4807 4.44,20.5197 13.3,27.1017 8.86,6.586 21.06,9.875 36.6,9.875 h 44.57 v 10.133 c 0,10.465 -3.12,18.57 -9.37,24.312 -6.25,5.739 -15.36,8.614 -27.35,8.614 -14.19,0 -28.45,-5.317 -42.8,-15.958 l -7.6,11.649 c 8.95,6.246 17.47,10.851 25.58,13.805 8.11,2.953 17.39,4.433 27.86,4.433 16.04,0 28.45,-4.012 37.23,-12.031 8.78,-8.023 13.25,-19.121 13.42,-33.305 l 0.25,-87.8865 h -16.71" /><path
         id="path60"
         style="fill:#231f20;fill-opacity:1;fill-rule:nonzero;stroke:none"
         d="m 1533.73,237.824 h 16.97 V 49.8945 h -16.97 V 237.824" /><path
         id="path62"
         style="fill:#231f20;fill-opacity:1;fill-rule:nonzero;stroke:none"
         d="m 1797.89,70.7891 c 7.59,4.4726 13.51,10.6797 17.72,18.6172 4.22,7.9335 6.34,16.9687 6.34,27.1017 0,9.961 -2.12,18.906 -6.34,26.844 -4.21,7.933 -10.13,14.14 -17.72,18.613 -7.6,4.473 -16.13,6.715 -25.58,6.715 -9.62,0 -18.2,-2.242 -25.71,-6.715 -7.51,-4.473 -13.43,-10.68 -17.73,-18.613 -4.3,-7.938 -6.46,-16.883 -6.46,-26.844 0,-10.133 2.11,-19.1682 6.33,-27.1017 4.22,-7.9375 10.14,-14.1446 17.73,-18.6172 7.6,-4.4727 16.22,-6.711 25.84,-6.711 9.45,0 17.98,2.2383 25.58,6.711 z m 10.51,103.8439 c 9.71,-5.66 17.26,-13.594 22.67,-23.809 5.4,-10.215 8.1,-21.828 8.1,-34.828 0,-12.832 -2.7,-24.3124 -8.1,-34.4413 -5.41,-10.1328 -12.92,-18.0274 -22.54,-23.6836 -9.63,-5.6563 -20.61,-8.4844 -32.93,-8.4844 -12.16,0 -22.79,2.7461 -31.91,8.2344 -9.12,5.4883 -16.21,13.125 -21.28,22.918 V 0.757813 h -16.97 V 182.609 h 16.97 v -30.644 c 4.89,9.789 11.95,17.433 21.15,22.922 9.2,5.48 19.79,8.23 31.79,8.23 12.32,0 23.34,-2.832 33.05,-8.484" /><path
         id="path64"
         style="fill:#231f20;fill-opacity:1;fill-rule:nonzero;stroke:none"
         d="m 1919.43,174.887 c 8.19,5.316 18.03,8.058 29.51,8.23 V 167.16 c -14.02,0.168 -25.29,-3.926 -33.82,-12.285 -8.52,-8.359 -13.38,-19.711 -14.56,-34.062 V 49.8945 h -16.97 V 182.609 h 16.97 v -30.898 c 4.39,10.129 10.68,17.855 18.87,23.176" /><path
         id="path66"
         style="fill:#231f20;fill-opacity:1;fill-rule:nonzero;stroke:none"
         d="m 2010.36,161.84 c -7.61,-4.391 -13.51,-10.555 -17.73,-18.488 -4.23,-7.938 -6.34,-16.969 -6.34,-27.098 0,-10.305 2.11,-19.422 6.34,-27.3556 4.22,-7.9414 10.12,-14.1015 17.73,-18.4843 7.59,-4.3946 16.2,-6.5899 25.83,-6.5899 9.62,0 18.23,2.1953 25.83,6.5899 7.6,4.3828 13.51,10.5429 17.73,18.4843 4.22,7.9336 6.33,17.0506 6.33,27.3556 0,10.129 -2.11,19.16 -6.33,27.098 -4.22,7.933 -10.13,14.097 -17.73,18.488 -7.6,4.394 -16.21,6.586 -25.83,6.586 -9.63,0 -18.24,-2.192 -25.83,-6.586 z m 60.27,12.793 c 10.13,-5.66 18.07,-13.551 23.81,-23.684 5.74,-10.125 8.61,-21.617 8.61,-34.441 0,-13.004 -2.87,-24.6096 -8.61,-34.8244 -5.74,-10.2227 -13.68,-18.1563 -23.81,-23.8125 -10.13,-5.6563 -21.62,-8.4844 -34.44,-8.4844 -12.84,0 -24.32,2.8281 -34.45,8.4844 -10.13,5.6562 -18.07,13.5898 -23.81,23.8125 -5.74,10.2148 -8.6,21.8204 -8.6,34.8244 0,12.824 2.86,24.316 8.6,34.441 5.74,10.133 13.68,18.024 23.81,23.684 10.13,5.652 21.61,8.484 34.45,8.484 12.82,0 24.31,-2.832 34.44,-8.484" /><path
         id="path68"
         style="fill:#231f20;fill-opacity:1;fill-rule:nonzero;stroke:none"
         d="m 2230.37,70.2852 c 7.6,4.4687 13.55,10.6718 17.86,18.6132 4.3,7.9336 6.46,16.9686 6.46,27.0976 0,10.133 -2.16,19.207 -6.46,27.231 -4.31,8.015 -10.26,14.308 -17.86,18.867 -7.6,4.558 -16.21,6.84 -25.83,6.84 -9.63,0 -18.24,-2.282 -25.83,-6.84 -7.61,-4.559 -13.6,-10.852 -17.99,-18.867 -4.39,-8.024 -6.58,-17.098 -6.58,-27.231 0,-10.129 2.15,-19.164 6.46,-27.0976 4.3,-7.9414 10.29,-14.1445 17.98,-18.6132 7.68,-4.4766 16.33,-6.7149 25.96,-6.7149 9.62,0 18.23,2.2383 25.83,6.7149 z m 41.28,167.5388 V 49.8945 h -16.96 v 30.3946 c -5.07,-9.9649 -12.17,-17.6875 -21.28,-23.1758 -9.12,-5.4922 -19.75,-8.2344 -31.91,-8.2344 -12.5,0 -23.64,2.8711 -33.43,8.6133 -9.8,5.7383 -17.4,13.7617 -22.8,24.0625 -5.41,10.2969 -8.1,21.9493 -8.1,34.9533 0,12.996 2.74,24.562 8.23,34.695 5.48,10.133 13.08,18.067 22.79,23.809 9.71,5.738 20.73,8.613 33.05,8.613 12.16,0 22.84,-2.789 32.05,-8.359 9.2,-5.571 16.33,-13.34 21.4,-23.301 v 85.859 h 16.96" /><path
         id="path70"
         style="fill:#231f20;fill-opacity:1;fill-rule:nonzero;stroke:none"
         d="M 2442.97,182.609 V 49.8945 h -17.23 v 31.6602 c -4.39,-10.4727 -10.93,-18.4063 -19.63,-23.8086 -8.69,-5.4063 -19.21,-8.1875 -31.53,-8.3594 -15.7,0 -27.98,4.6016 -36.85,13.8047 -8.86,9.1992 -13.3,21.8203 -13.3,37.8676 v 81.55 h 17.22 v -77.5 c 0,-12.4996 3.42,-22.2496 10.26,-29.2535 6.84,-7.0117 16.25,-10.5117 28.24,-10.5117 14.19,0.1679 25.33,5.0234 33.43,14.5664 8.11,9.5351 12.16,22.0698 12.16,37.6058 v 65.093 h 17.23" /><path
         id="path72"
         style="fill:#231f20;fill-opacity:1;fill-rule:nonzero;stroke:none"
         d="m 2553.77,168.176 c -9.46,0 -17.98,-2.196 -25.58,-6.586 -7.6,-4.395 -13.51,-10.512 -17.73,-18.363 -4.22,-7.856 -6.33,-16.844 -6.33,-26.973 0,-10.133 2.11,-19.1681 6.33,-27.1017 4.22,-7.9375 10.13,-14.1015 17.73,-18.4921 7.6,-4.3868 16.12,-6.5821 25.58,-6.5821 8.61,0 16.5,1.5196 23.68,4.5625 7.17,3.0352 13.21,7.4258 18.11,13.168 l 9.63,-10.1328 c -5.92,-7.0938 -13.35,-12.582 -22.29,-16.4649 -8.95,-3.8867 -18.92,-5.8242 -29.89,-5.8242 -12.66,0 -23.98,2.8281 -33.94,8.4844 -9.96,5.6562 -17.77,13.5898 -23.43,23.8125 -5.66,10.2148 -8.48,21.7384 -8.48,34.5704 0,12.824 2.82,24.355 8.48,34.57 5.66,10.215 13.47,18.149 23.43,23.809 9.96,5.652 21.28,8.484 33.94,8.484 10.3,0 19.71,-1.687 28.24,-5.066 8.52,-3.379 15.83,-8.102 21.9,-14.18 l -9.62,-11.398 c -10.81,10.465 -24.06,15.703 -39.76,15.703" /><path
         id="path74"
         style="fill:#231f20;fill-opacity:1;fill-rule:nonzero;stroke:none"
         d="m 2720.34,59.0117 c -9.11,-6.2461 -18.91,-9.5351 -29.38,-9.8789 -10.13,0 -18.15,3.125 -24.06,9.375 -5.91,6.2461 -8.86,15.6133 -8.86,28.1094 v 79.0238 h -19 l -0.25,13.172 h 19.25 V 213 h 16.97 v -34.187 l 43.05,0.253 v -13.425 h -43.05 V 89.4063 c 0,-16.3829 6.08,-24.5704 18.23,-24.5704 6.75,0 14.1,2.3633 22.04,7.0938 l 5.06,-12.918" /><path
         id="path76"
         style="fill:#231f20;fill-opacity:1;fill-rule:nonzero;stroke:none"
         d="m 2819.09,166.527 c -6.25,1.77 -12.41,2.661 -18.49,2.661 -8.44,0 -15.24,-1.649 -20.39,-4.942 -5.15,-3.293 -7.72,-8.226 -7.72,-14.816 0,-4.559 1.39,-8.274 4.18,-11.141 2.78,-2.875 6.24,-5.195 10.38,-6.969 4.14,-1.773 9.92,-3.757 17.35,-5.953 9.12,-2.699 16.55,-5.359 22.29,-7.976 5.74,-2.618 10.64,-6.418 14.69,-11.399 4.05,-4.98 6.08,-11.5232 6.08,-19.6287 0,-11.9844 -4.56,-21.1445 -13.68,-27.4805 -9.12,-6.3281 -20.51,-9.4961 -34.19,-9.4961 -9.62,0 -18.91,1.6055 -27.86,4.8164 -8.95,3.2032 -16.46,7.7617 -22.54,13.6758 l 6.84,12.1563 c 5.73,-5.2383 12.53,-9.375 20.39,-12.4102 7.85,-3.043 15.83,-4.5625 23.93,-4.5625 8.95,0 16.25,1.8633 21.91,5.5781 5.65,3.711 8.48,9.1172 8.48,16.2071 0,4.8945 -1.43,8.9062 -4.3,12.0312 -2.88,3.1172 -6.46,5.5701 -10.77,7.3441 -4.3,1.769 -10.26,3.836 -17.85,6.203 -8.95,2.703 -16.21,5.32 -21.79,7.851 -5.57,2.536 -10.29,6.207 -14.18,11.016 -3.88,4.816 -5.82,11.105 -5.82,18.867 0,11.656 4.35,20.43 13.04,26.344 8.69,5.91 19.54,8.867 32.55,8.867 7.6,0 14.94,-1.016 22.03,-3.043 7.09,-2.023 13.42,-4.812 19,-8.359 l -6.59,-12.914 c -5.06,3.207 -10.72,5.699 -16.97,7.472" /><path
         id="path78"
         style="fill:#231f20;fill-opacity:1;fill-rule:nonzero;stroke:none"
         d="m 3050.2,71.5508 c 8.19,5.4844 13.72,13.207 16.59,23.1719 v 18.2383 h -42.81 c -11.65,0 -20.51,-1.941 -26.59,-5.824 -6.08,-3.887 -9.11,-9.7112 -9.11,-17.4768 0,-7.9375 2.91,-14.3125 8.73,-19.1211 5.83,-4.8125 13.55,-7.2227 23.18,-7.2227 11.81,0 21.82,2.7461 30.01,8.2344 z m 16.84,-21.6563 -0.25,22.2891 c -5.24,-7.7695 -12.07,-13.5469 -20.52,-17.3477 -8.44,-3.8046 -18.15,-5.7031 -29.13,-5.7031 -8.94,0 -16.84,1.7344 -23.67,5.1953 -6.84,3.4571 -12.12,8.2266 -15.83,14.3125 -3.72,6.0742 -5.57,12.9141 -5.57,20.5117 0,11.4807 4.42,20.5197 13.29,27.1017 8.86,6.586 21.06,9.875 36.6,9.875 h 44.57 v 10.133 c 0,10.465 -3.12,18.57 -9.37,24.312 -6.24,5.739 -15.36,8.614 -27.35,8.614 -14.18,0 -28.45,-5.317 -42.8,-15.958 l -7.6,11.649 c 8.94,6.246 17.47,10.851 25.58,13.805 8.11,2.953 17.39,4.433 27.86,4.433 16.04,0 28.45,-4.012 37.23,-12.031 8.78,-8.023 13.25,-19.121 13.43,-33.305 l 0.25,-87.8865 h -16.72" /><path
         id="path80"
         style="fill:#231f20;fill-opacity:1;fill-rule:nonzero;stroke:none"
         d="m 3213.63,75.6016 c 7.26,4.3086 12.92,10.2617 16.97,17.8554 4.05,7.602 6.08,16.125 6.08,25.578 0,9.629 -2.03,18.238 -6.08,25.836 -4.05,7.602 -9.71,13.551 -16.97,17.856 -7.26,4.308 -15.45,6.461 -24.56,6.461 -9.12,0 -17.32,-2.153 -24.57,-6.461 -7.26,-4.305 -12.96,-10.254 -17.1,-17.856 -4.13,-7.598 -6.2,-16.207 -6.2,-25.836 0,-9.621 2.07,-18.191 6.2,-25.703 4.14,-7.5156 9.79,-13.4218 16.97,-17.7304 7.18,-4.3047 15.41,-6.4571 24.7,-6.4571 9.11,0 17.3,2.1524 24.56,6.4571 z m 40.02,107.0074 V 63.8242 c 0,-12.832 -2.7,-24.0625 -8.1,-33.6836 -5.41,-9.625 -13.13,-17.0078 -23.18,-22.16013 -10.05,-5.15234 -21.65,-7.722657 -34.83,-7.722657 -19.58,0 -37.73,6.749997 -54.44,20.257787 l 8.1,12.1563 c 6.75,-5.9063 13.84,-10.3828 21.27,-13.4219 7.43,-3.043 15.53,-4.5586 24.32,-4.5586 15.19,0 27.31,4.4297 36.34,13.293 9.03,8.8672 13.55,20.7344 13.55,35.5859 v 21.5313 c -4.73,-9.2891 -11.48,-16.5508 -20.26,-21.7852 -8.78,-5.2344 -18.92,-7.8516 -30.39,-7.8516 -11.83,0 -22.34,2.7461 -31.53,8.2344 -9.21,5.4844 -16.39,13.086 -21.53,22.793 -5.16,9.707 -7.73,20.7268 -7.73,33.0508 0,12.324 2.57,23.301 7.73,32.93 5.14,9.621 12.36,17.132 21.65,22.539 9.29,5.402 19.84,8.105 31.66,8.105 11.48,0 21.53,-2.578 30.14,-7.722 8.61,-5.157 15.36,-12.457 20.26,-21.911 v 29.125 h 16.97" /><path
         id="path82"
         style="fill:#231f20;fill-opacity:1;fill-rule:nonzero;stroke:none"
         d="m 3408.65,123.852 c -0.84,13.839 -5.44,24.863 -13.8,33.05 -8.36,8.188 -19.29,12.286 -32.8,12.286 -13.34,0 -24.48,-4.141 -33.43,-12.415 -8.96,-8.269 -14.1,-19.246 -15.45,-32.921 z m 0.26,39.636 c 10.8,-13.086 15.78,-30.687 14.94,-52.808 h -110.68 c 1.18,-14.1839 6.41,-25.6253 15.7,-34.3206 9.28,-8.6953 20.77,-13.043 34.45,-13.043 8.44,0 16.29,1.5195 23.55,4.5625 7.26,3.0352 13.51,7.3438 18.74,12.9141 l 9.63,-9.625 c -6.42,-6.9219 -14.15,-12.2852 -23.18,-16.0821 -9.03,-3.8007 -18.95,-5.6992 -29.76,-5.6992 -12.83,0 -24.23,2.8281 -34.19,8.4844 -9.96,5.6562 -17.77,13.5508 -23.43,23.6836 -5.66,10.1289 -8.48,21.6953 -8.48,34.6993 0,12.824 2.82,24.355 8.48,34.57 5.66,10.215 13.47,18.149 23.43,23.809 9.96,5.652 21.19,8.484 33.69,8.484 20.6,0 36.3,-6.547 47.11,-19.629" /><path
         id="path84"
         style="fill:#231f20;fill-opacity:1;fill-rule:nonzero;stroke:none"
         d="m 3573.68,169.313 c 9.03,-9.204 13.55,-21.825 13.55,-37.864 V 49.8945 h -17.22 v 77.5005 c 0,12.496 -3.47,22.289 -10.39,29.378 -6.92,7.098 -16.54,10.641 -28.87,10.641 -13.68,-0.172 -24.61,-4.394 -32.8,-12.668 -8.19,-8.273 -12.88,-19.418 -14.05,-33.43 V 49.8945 h -16.97 V 182.609 h 16.97 v -30.898 c 4.56,10.297 11.27,18.066 20.13,23.301 8.87,5.23 19.63,7.933 32.29,8.105 15.87,0 28.33,-4.605 37.36,-13.804" /><path
         id="path86"
         style="fill:#231f20;fill-opacity:1;fill-rule:nonzero;stroke:none"
         d="m 3695.58,168.176 c -9.46,0 -17.98,-2.196 -25.58,-6.586 -7.6,-4.395 -13.51,-10.512 -17.73,-18.363 -4.22,-7.856 -6.33,-16.844 -6.33,-26.973 0,-10.133 2.11,-19.1681 6.33,-27.1017 4.22,-7.9375 10.13,-14.1015 17.73,-18.4921 7.6,-4.3868 16.12,-6.5821 25.58,-6.5821 8.61,0 16.5,1.5196 23.68,4.5625 7.18,3.0352 13.21,7.4258 18.11,13.168 l 9.62,-10.1328 c -5.91,-7.0938 -13.34,-12.582 -22.28,-16.4649 -8.96,-3.8867 -18.92,-5.8242 -29.9,-5.8242 -12.65,0 -23.97,2.8281 -33.93,8.4844 -9.97,5.6562 -17.77,13.5898 -23.43,23.8125 -5.66,10.2148 -8.48,21.7384 -8.48,34.5704 0,12.824 2.82,24.355 8.48,34.57 5.66,10.215 13.46,18.149 23.43,23.809 9.96,5.652 21.28,8.484 33.93,8.484 10.31,0 19.72,-1.687 28.25,-5.066 8.52,-3.379 15.83,-8.102 21.91,-14.18 l -9.63,-11.398 c -10.81,10.465 -24.06,15.703 -39.76,15.703" /><path
         id="path88"
         style="fill:#231f20;fill-opacity:1;fill-rule:nonzero;stroke:none"
         d="m 3820.82,7.85547 c -6.68,-5.23438 -14.31,-7.85156375 -22.92,-7.85156375 -10.3,0 -19.42,3.03515375 -27.35,9.11328375 l 7.59,13.17191 c 5.91,-4.0547 12.24,-6.0821 19,-6.0821 5.4,0 10.29,1.7735 14.69,5.3243 4.38,3.5429 8.01,8.6953 10.88,15.4492 l 5.58,13.6758 -54.96,131.9527 h 17.98 l 45.59,-113.9684 43.81,113.9684 h 17.48 L 3836.9,30.9023 c -4.05,-10.1328 -9.41,-17.8125 -16.08,-23.04683" /><path
         id="path90"
         style="fill:#231f20;fill-opacity:1;fill-rule:nonzero;stroke:none"
         d="m 3918.2,67.625 c 2.19,-2.1992 3.29,-4.8984 3.29,-8.1055 0,-3.207 -1.1,-5.9531 -3.29,-8.2343 -2.19,-2.2774 -4.9,-3.418 -8.1,-3.418 -3.22,0 -5.87,1.1016 -7.98,3.293 -2.12,2.1914 -3.17,4.9804 -3.17,8.3593 0,3.2071 1.05,5.9063 3.17,8.1055 2.11,2.1914 4.76,3.2891 7.98,3.2891 3.2,0 5.91,-1.0977 8.1,-3.2891" /></g></g></svg>