<?xml version="1.0" encoding="UTF-8"?>
<svg width="450px" height="79px" viewBox="0 0 450 79" version="1.1" xmlns="http://www.w3.org/2000/svg" xmlns:xlink="http://www.w3.org/1999/xlink">
    <!-- Generator: Sketch 51.3 (57544) - http://www.bohemiancoding.com/sketch -->
    <title>vumedi-logo</title>
    <desc>Created with Sketch.</desc>
    <defs></defs>
    <g id="Page-1" stroke="none" stroke-width="1" fill="none" fill-rule="evenodd">
        <g id="vumedi-logo" fill-rule="nonzero">
            <g id="Group" transform="translate(142.866741, 0.100000)" fill="#071E38">
                <path d="M99.235302,53.865258 C99.235302,62.54718 96.668067,65.767893 89.713194,65.767893 C82.758321,65.767893 80.191086,62.54718 80.191086,53.865258 L80.191086,22.87173 L67.68165,22.87173 L67.68165,57.506064 C67.68165,70.575624 75.290001,77.437143 89.713194,77.437143 C104.136387,77.437143 111.744738,70.528947 111.744738,57.506064 L111.744738,22.87173 L99.235302,22.87173 L99.235302,53.865258 Z" id="Shape"></path>
                <polygon id="Shape" points="178.119432 77.437143 192.542625 77.437143 186.708 0.093354 171.164559 0.093354 156.507981 45.603429 141.758049 0.093354 126.307962 0.093354 120.473337 77.437143 134.89653 77.437143 137.977212 31.27359 138.817398 31.27359 152.213697 77.437143 160.755588 77.437143 174.198564 31.27359 174.992073 31.27359 175.03875 31.506975"></polygon>
                <polygon id="Shape" points="231.471243 55.498953 231.471243 44.903274 212.613735 44.903274 212.613735 33.467409 232.264752 33.467409 232.264752 22.87173 200.150976 22.87173 200.150976 77.670528 232.264752 77.670528 232.264752 67.074849 212.613735 67.074849 212.613735 55.498953"></polygon>
                <path d="M257.423655,22.87173 L241.133382,22.87173 L241.133382,77.670528 L257.423655,77.670528 C265.078683,77.670528 272.220264,74.916585 277.541442,69.968823 C282.955974,64.88103 285.989979,57.87948 285.989979,50.224452 C285.943302,34.867719 273.387189,22.87173 257.423655,22.87173 Z M255.883314,66.888141 L253.596141,66.888141 L253.596141,33.654117 L255.883314,33.654117 C265.452099,33.654117 272.406972,40.655667 272.406972,50.317806 C272.360295,59.933268 265.405422,66.888141 255.883314,66.888141 Z" id="Shape"></path>
                <rect id="Rectangle-path" x="293.038206" y="25.905735" width="12.509436" height="51.764793"></rect>
                <polygon id="Shape" points="16.430304 0.093354 0.186708 0.093354 27.446076 77.437143 38.881941 77.437143 66.141309 0.093354 49.851036 0.093354 33.14067 51.858147"></polygon>
            </g>
            <circle id="Oval" fill="#33D79D" cx="442.159665" cy="7.848382" r="7.655028"></circle>
            <path d="M108.465792,77.677174 C103.004583,79.217515 97.309989,75.950125 95.769648,70.442239 L79.666083,13.869715 C78.125742,8.315152 81.346455,2.527204 86.807664,0.986863 C92.268873,-0.553478 97.963467,2.713912 99.503808,8.221798 L115.607373,64.794322 C117.147714,70.348885 113.927001,76.136833 108.465792,77.677174 Z" id="Shape" fill="#07A6ED" opacity="0.2"></path>
            <path d="M7.550118,77.210404 C13.011327,78.750745 18.705921,75.483355 20.246262,69.975469 L36.349827,13.402945 C37.890168,7.848382 34.669455,2.060434 29.208246,0.520093 C23.747037,-1.066925 18.052443,2.200465 16.512102,7.755028 L0.408537,64.327552 C-1.131804,69.882115 2.088909,75.670063 7.550118,77.210404 Z" id="Shape" fill="#07A6ED" opacity="0.2"></path>
            <path d="M94.602723,1.780372 C89.654961,-1.020248 83.353566,0.753478 80.599623,5.747917 L58.288017,46.263553 L35.416287,5.421178 C32.662344,0.473416 26.314272,-1.30031 21.413187,1.453633 C16.465425,4.254253 14.691699,10.555648 17.492319,15.550087 L49.326033,72.402673 C50.072865,73.756306 51.146436,74.876554 52.360038,75.763417 C52.406715,75.810094 52.453392,75.810094 52.453392,75.856771 L53.153547,76.276864 C53.200224,76.323541 53.246901,76.323541 53.293578,76.370218 C53.340255,76.416895 53.386932,76.416895 53.433609,76.463572 L53.993733,76.743634 C54.133764,76.836988 54.273795,76.883665 54.460503,76.930342 C54.600534,76.977019 54.740565,77.023696 54.833919,77.070373 C55.020627,77.163727 55.254012,77.210404 55.44072,77.257081 C55.534074,77.303758 55.627428,77.303758 55.720782,77.350435 L56.420937,77.490466 C56.514291,77.490466 56.607645,77.537143 56.700999,77.537143 C56.934384,77.58382 57.121092,77.58382 57.354477,77.630497 C57.494508,77.630497 57.634539,77.630497 57.77457,77.677174 L58.334694,77.677174 L58.894818,77.677174 C59.034849,77.677174 59.17488,77.677174 59.314911,77.630497 C59.548296,77.630497 59.735004,77.58382 59.968389,77.537143 C60.061743,77.537143 60.155097,77.490466 60.248451,77.490466 L60.948606,77.350435 C61.04196,77.303758 61.135314,77.303758 61.228668,77.257081 C61.415376,77.210404 61.648761,77.11705 61.835469,77.070373 C61.9755,77.023696 62.115531,76.977019 62.208885,76.930342 C62.348916,76.883665 62.488947,76.790311 62.675655,76.743634 L63.235779,76.463572 C63.282456,76.416895 63.329133,76.416895 63.37581,76.370218 C63.422487,76.323541 63.469164,76.323541 63.515841,76.276864 L64.215996,75.856771 C64.262673,75.810094 64.30935,75.810094 64.30935,75.763417 C65.522952,74.923231 66.549846,73.802983 67.343355,72.402673 L98.616945,15.923503 C101.324211,10.882387 99.550485,4.534315 94.602723,1.780372 Z" id="Shape" fill="#33D79D"></path>
        </g>
    </g>
</svg>